<svg width="397" height="155" viewBox="0 0 397 155" fill="none" xmlns="http://www.w3.org/2000/svg">
<rect x="1" y="1.41406" width="394.168" height="152" rx="8.40458" fill="white"/>
<mask id="path-2-outside-1_213_285" maskUnits="userSpaceOnUse" x="35.6183" y="23.1016" width="81" height="108" fill="black">
<rect fill="white" x="35.6183" y="23.1016" width="81" height="108"/>
<path d="M68.6629 116.377C58.8607 116.377 50.1396 115.505 45.9324 114.123C45.6554 114.032 45.4259 113.836 45.2944 113.577C45.1629 113.318 45.1401 113.017 45.2312 112.741C45.3222 112.466 45.5196 112.237 45.7799 112.106C46.0401 111.975 46.342 111.953 46.619 112.043C50.5632 113.352 59.226 114.196 68.6629 114.196C78.5089 114.196 87.3031 113.309 91.0575 111.927C91.1963 111.871 91.3449 111.844 91.4945 111.847C91.6441 111.85 91.7915 111.883 91.928 111.944C92.0644 112.005 92.1871 112.093 92.2885 112.203C92.3899 112.312 92.4681 112.441 92.5183 112.581C92.5764 112.719 92.6054 112.868 92.6034 113.017C92.6015 113.167 92.5687 113.314 92.507 113.451C92.4454 113.587 92.3562 113.709 92.2451 113.81C92.1339 113.911 92.0032 113.988 91.8609 114.036C87.829 115.432 78.7427 116.377 68.6629 116.377Z"/>
<path d="M96.7109 66.5968H96.6378C96.4945 66.5895 96.3541 66.5537 96.2248 66.4917C96.0954 66.4298 95.9798 66.3428 95.8846 66.2358C95.7894 66.1289 95.7166 66.0041 95.6703 65.8688C95.6241 65.7336 95.6054 65.5905 95.6153 65.4479L97.602 29.9633C97.5961 29.8111 97.6224 29.6594 97.679 29.5179C97.7356 29.3765 97.8213 29.2484 97.9307 29.1419C98.04 29.0354 98.1706 28.9529 98.3139 28.8996C98.4572 28.8464 98.6102 28.8237 98.7629 28.8329C98.9156 28.842 99.0646 28.883 99.2005 28.953C99.3363 29.023 99.456 29.1205 99.5516 29.2393C99.6473 29.3582 99.717 29.4956 99.7561 29.6428C99.7952 29.7901 99.8028 29.9438 99.7786 30.0942L97.7919 65.5788C97.7735 65.8528 97.652 66.1098 97.4516 66.2986C97.2512 66.4873 96.9867 66.5938 96.7109 66.5968Z"/>
<path d="M68.6629 129.728C64.3535 129.728 42.85 129.48 42.85 124.812L37.6203 30.0797C37.6028 29.7904 37.7015 29.5061 37.8947 29.2892C38.0878 29.0724 38.3596 28.9409 38.6501 28.9235C38.9407 28.9061 39.2263 29.0044 39.4441 29.1967C39.6619 29.389 39.7941 29.6595 39.8115 29.9488L45.0413 124.652C46.1369 125.859 55.0041 127.561 68.6629 127.561C82.3217 127.561 91.2036 125.859 92.2992 124.652L93.76 99.4492C93.7542 99.297 93.7804 99.1453 93.837 99.0039C93.8936 98.8624 93.9793 98.7343 94.0887 98.6278C94.1981 98.5213 94.3286 98.4388 94.4719 98.3856C94.6153 98.3323 94.7682 98.3096 94.9209 98.3188C95.0736 98.3279 95.2227 98.3689 95.3585 98.4389C95.4944 98.5089 95.614 98.6064 95.7097 98.7253C95.8053 98.8441 95.875 98.9815 95.9141 99.1288C95.9532 99.276 95.9608 99.4297 95.9366 99.5801L94.4758 124.87C94.4758 129.48 72.987 129.728 68.6629 129.728Z"/>
<path d="M68.7066 34.937C63.506 34.937 37.6201 34.6897 37.6201 30.0215C37.6201 28.6981 38.8034 27.331 47.3638 26.2403C54.4486 25.4345 61.5759 25.0557 68.7066 25.106C73.8925 25.106 99.7785 25.3387 99.7785 30.0215C99.7785 31.3449 98.5952 32.7119 90.0347 33.8026C82.9548 34.6081 75.8324 34.9869 68.7066 34.937ZM40.1181 30.0215C42.4262 31.2431 52.7543 32.7555 68.7066 32.7555C84.6589 32.7555 95.0016 31.3013 97.2805 30.0215C94.9723 28.7853 84.6443 27.2874 68.7066 27.2874C52.7689 27.2874 42.4262 28.7853 40.1181 30.0215Z"/>
<path d="M68.7068 62.7721C61.7824 62.7721 39.2272 62.423 39.2272 58.0602C39.2272 55.5152 46.6336 53.9736 61.2419 53.4792C61.525 53.4789 61.7973 53.5878 62.0015 53.783C62.2058 53.9783 62.3262 54.2446 62.3375 54.5262C62.3455 54.8146 62.24 55.0946 62.0435 55.3065C61.847 55.5185 61.5751 55.6455 61.2857 55.6606C49.5991 56.0532 43.5074 57.2312 41.7544 58.0602C44.121 59.2091 53.8355 60.5906 68.6629 60.5906C83.4904 60.5906 93.1757 59.2091 95.5568 58.0602C93.8477 57.2603 88.0043 56.1114 76.8874 55.6897C76.5981 55.6746 76.3261 55.5475 76.1296 55.3356C75.9331 55.1237 75.8276 54.8436 75.8356 54.5553C75.8577 54.2699 75.9875 54.0033 76.1988 53.8091C76.4102 53.6149 76.6874 53.5074 76.9751 53.5082C98.1279 54.3226 98.1279 57.1294 98.1279 58.0602C98.1717 62.423 75.6019 62.7721 68.7068 62.7721Z"/>
<path d="M96.5064 94.9118C93.9776 94.908 91.5535 93.9062 89.7654 92.1261C87.9773 90.346 86.971 87.9328 86.9671 85.4153C86.9671 80.5144 94.7972 71.4833 95.7321 70.4798C95.8374 70.3666 95.9651 70.2762 96.1071 70.2145C96.2492 70.1527 96.4025 70.1208 96.5575 70.1208C96.7125 70.1208 96.8658 70.1527 97.0079 70.2145C97.1499 70.2762 97.2776 70.3666 97.3829 70.4798C98.274 71.4833 106.148 80.5144 106.148 85.4153C106.146 86.6705 105.895 87.9129 105.408 89.0708C104.922 90.2288 104.21 91.2795 103.313 92.1623C102.417 93.0451 101.354 93.7425 100.186 94.2144C99.0177 94.6863 97.7671 94.9233 96.5064 94.9118ZM96.5064 72.8794C93.8915 76.0206 89.2022 82.3177 89.2022 85.4153C89.2022 87.3554 89.9764 89.216 91.3544 90.5879C92.7324 91.9597 94.6014 92.7304 96.5502 92.7304C98.499 92.7304 100.368 91.9597 101.746 90.5879C103.124 89.216 103.898 87.3554 103.898 85.4153C103.854 82.3613 99.1359 76.0061 96.5064 72.923V72.8794Z"/>
<path d="M96.5064 100.729C92.9018 100.729 89.3782 99.6653 86.3807 97.6722C83.3833 95.6792 81.0465 92.8464 79.6658 89.5317C78.285 86.217 77.9223 82.5692 78.6234 79.0494C79.3245 75.5295 81.0579 72.2955 83.6047 69.7561C86.1514 67.2167 89.3972 65.4858 92.9318 64.7822C96.4663 64.0787 100.131 64.4339 103.463 65.8032C106.795 67.1724 109.644 69.4941 111.651 72.475C113.658 75.4558 114.732 78.962 114.738 82.5504C114.739 84.9357 114.269 87.2981 113.354 89.5026C112.439 91.7071 111.097 93.7105 109.404 95.3986C107.711 97.0866 105.701 98.4262 103.488 99.3408C101.275 100.255 98.9024 100.727 96.5064 100.729ZM96.5064 66.6259C93.3282 66.6259 90.2214 67.5641 87.5788 69.3219C84.9363 71.0797 82.8767 73.5781 81.6604 76.5012C80.4442 79.4243 80.126 82.6408 80.746 85.744C81.366 88.8471 82.8965 91.6976 85.1438 93.9348C87.3911 96.172 90.2543 97.6956 93.3714 98.3129C96.4885 98.9301 99.7195 98.6133 102.656 97.4026C105.592 96.1918 108.102 94.1414 109.867 91.5106C111.633 88.8799 112.576 85.787 112.576 82.6231C112.579 80.5199 112.167 78.4365 111.361 76.4923C110.555 74.5481 109.372 72.7811 107.879 71.2926C106.387 69.804 104.614 68.6231 102.663 67.8173C100.711 67.0116 98.6191 66.5968 96.5064 66.5968V66.6259Z"/>
</mask>
<path d="M68.6629 116.377C58.8607 116.377 50.1396 115.505 45.9324 114.123C45.6554 114.032 45.4259 113.836 45.2944 113.577C45.1629 113.318 45.1401 113.017 45.2312 112.741C45.3222 112.466 45.5196 112.237 45.7799 112.106C46.0401 111.975 46.342 111.953 46.619 112.043C50.5632 113.352 59.226 114.196 68.6629 114.196C78.5089 114.196 87.3031 113.309 91.0575 111.927C91.1963 111.871 91.3449 111.844 91.4945 111.847C91.6441 111.85 91.7915 111.883 91.928 111.944C92.0644 112.005 92.1871 112.093 92.2885 112.203C92.3899 112.312 92.4681 112.441 92.5183 112.581C92.5764 112.719 92.6054 112.868 92.6034 113.017C92.6015 113.167 92.5687 113.314 92.507 113.451C92.4454 113.587 92.3562 113.709 92.2451 113.81C92.1339 113.911 92.0032 113.988 91.8609 114.036C87.829 115.432 78.7427 116.377 68.6629 116.377Z" fill="#253C8C"/>
<path d="M96.7109 66.5968H96.6378C96.4945 66.5895 96.3541 66.5537 96.2248 66.4917C96.0954 66.4298 95.9798 66.3428 95.8846 66.2358C95.7894 66.1289 95.7166 66.0041 95.6703 65.8688C95.6241 65.7336 95.6054 65.5905 95.6153 65.4479L97.602 29.9633C97.5961 29.8111 97.6224 29.6594 97.679 29.5179C97.7356 29.3765 97.8213 29.2484 97.9307 29.1419C98.04 29.0354 98.1706 28.9529 98.3139 28.8996C98.4572 28.8464 98.6102 28.8237 98.7629 28.8329C98.9156 28.842 99.0646 28.883 99.2005 28.953C99.3363 29.023 99.456 29.1205 99.5516 29.2393C99.6473 29.3582 99.717 29.4956 99.7561 29.6428C99.7952 29.7901 99.8028 29.9438 99.7786 30.0942L97.7919 65.5788C97.7735 65.8528 97.652 66.1098 97.4516 66.2986C97.2512 66.4873 96.9867 66.5938 96.7109 66.5968Z" fill="#253C8C"/>
<path d="M68.6629 129.728C64.3535 129.728 42.85 129.48 42.85 124.812L37.6203 30.0797C37.6028 29.7904 37.7015 29.5061 37.8947 29.2892C38.0878 29.0724 38.3596 28.9409 38.6501 28.9235C38.9407 28.9061 39.2263 29.0044 39.4441 29.1967C39.6619 29.389 39.7941 29.6595 39.8115 29.9488L45.0413 124.652C46.1369 125.859 55.0041 127.561 68.6629 127.561C82.3217 127.561 91.2036 125.859 92.2992 124.652L93.76 99.4492C93.7542 99.297 93.7804 99.1453 93.837 99.0039C93.8936 98.8624 93.9793 98.7343 94.0887 98.6278C94.1981 98.5213 94.3286 98.4388 94.4719 98.3856C94.6153 98.3323 94.7682 98.3096 94.9209 98.3188C95.0736 98.3279 95.2227 98.3689 95.3585 98.4389C95.4944 98.5089 95.614 98.6064 95.7097 98.7253C95.8053 98.8441 95.875 98.9815 95.9141 99.1288C95.9532 99.276 95.9608 99.4297 95.9366 99.5801L94.4758 124.87C94.4758 129.48 72.987 129.728 68.6629 129.728Z" fill="#253C8C"/>
<path d="M68.7066 34.937C63.506 34.937 37.6201 34.6897 37.6201 30.0215C37.6201 28.6981 38.8034 27.331 47.3638 26.2403C54.4486 25.4345 61.5759 25.0557 68.7066 25.106C73.8925 25.106 99.7785 25.3387 99.7785 30.0215C99.7785 31.3449 98.5952 32.7119 90.0347 33.8026C82.9548 34.6081 75.8324 34.9869 68.7066 34.937ZM40.1181 30.0215C42.4262 31.2431 52.7543 32.7555 68.7066 32.7555C84.6589 32.7555 95.0016 31.3013 97.2805 30.0215C94.9723 28.7853 84.6443 27.2874 68.7066 27.2874C52.7689 27.2874 42.4262 28.7853 40.1181 30.0215Z" fill="#253C8C"/>
<path d="M68.7068 62.7721C61.7824 62.7721 39.2272 62.423 39.2272 58.0602C39.2272 55.5152 46.6336 53.9736 61.2419 53.4792C61.525 53.4789 61.7973 53.5878 62.0015 53.783C62.2058 53.9783 62.3262 54.2446 62.3375 54.5262C62.3455 54.8146 62.24 55.0946 62.0435 55.3065C61.847 55.5185 61.5751 55.6455 61.2857 55.6606C49.5991 56.0532 43.5074 57.2312 41.7544 58.0602C44.121 59.2091 53.8355 60.5906 68.6629 60.5906C83.4904 60.5906 93.1757 59.2091 95.5568 58.0602C93.8477 57.2603 88.0043 56.1114 76.8874 55.6897C76.5981 55.6746 76.3261 55.5475 76.1296 55.3356C75.9331 55.1237 75.8276 54.8436 75.8356 54.5553C75.8577 54.2699 75.9875 54.0033 76.1988 53.8091C76.4102 53.6149 76.6874 53.5074 76.9751 53.5082C98.1279 54.3226 98.1279 57.1294 98.1279 58.0602C98.1717 62.423 75.6019 62.7721 68.7068 62.7721Z" fill="#253C8C"/>
<path d="M96.5064 94.9118C93.9776 94.908 91.5535 93.9062 89.7654 92.1261C87.9773 90.346 86.971 87.9328 86.9671 85.4153C86.9671 80.5144 94.7972 71.4833 95.7321 70.4798C95.8374 70.3666 95.9651 70.2762 96.1071 70.2145C96.2492 70.1527 96.4025 70.1208 96.5575 70.1208C96.7125 70.1208 96.8658 70.1527 97.0079 70.2145C97.1499 70.2762 97.2776 70.3666 97.3829 70.4798C98.274 71.4833 106.148 80.5144 106.148 85.4153C106.146 86.6705 105.895 87.9129 105.408 89.0708C104.922 90.2288 104.21 91.2795 103.313 92.1623C102.417 93.0451 101.354 93.7425 100.186 94.2144C99.0177 94.6863 97.7671 94.9233 96.5064 94.9118ZM96.5064 72.8794C93.8915 76.0206 89.2022 82.3177 89.2022 85.4153C89.2022 87.3554 89.9764 89.216 91.3544 90.5879C92.7324 91.9597 94.6014 92.7304 96.5502 92.7304C98.499 92.7304 100.368 91.9597 101.746 90.5879C103.124 89.216 103.898 87.3554 103.898 85.4153C103.854 82.3613 99.1359 76.0061 96.5064 72.923V72.8794Z" fill="#253C8C"/>
<path d="M96.5064 100.729C92.9018 100.729 89.3782 99.6653 86.3807 97.6722C83.3833 95.6792 81.0465 92.8464 79.6658 89.5317C78.285 86.217 77.9223 82.5692 78.6234 79.0494C79.3245 75.5295 81.0579 72.2955 83.6047 69.7561C86.1514 67.2167 89.3972 65.4858 92.9318 64.7822C96.4663 64.0787 100.131 64.4339 103.463 65.8032C106.795 67.1724 109.644 69.4941 111.651 72.475C113.658 75.4558 114.732 78.962 114.738 82.5504C114.739 84.9357 114.269 87.2981 113.354 89.5026C112.439 91.7071 111.097 93.7105 109.404 95.3986C107.711 97.0866 105.701 98.4262 103.488 99.3408C101.275 100.255 98.9024 100.727 96.5064 100.729ZM96.5064 66.6259C93.3282 66.6259 90.2214 67.5641 87.5788 69.3219C84.9363 71.0797 82.8767 73.5781 81.6604 76.5012C80.4442 79.4243 80.126 82.6408 80.746 85.744C81.366 88.8471 82.8965 91.6976 85.1438 93.9348C87.3911 96.172 90.2543 97.6956 93.3714 98.3129C96.4885 98.9301 99.7195 98.6133 102.656 97.4026C105.592 96.1918 108.102 94.1414 109.867 91.5106C111.633 88.8799 112.576 85.787 112.576 82.6231C112.579 80.5199 112.167 78.4365 111.361 76.4923C110.555 74.5481 109.372 72.7811 107.879 71.2926C106.387 69.804 104.614 68.6231 102.663 67.8173C100.711 67.0116 98.6191 66.5968 96.5064 66.5968V66.6259Z" fill="#253C8C"/>
<path d="M68.6629 116.377C58.8607 116.377 50.1396 115.505 45.9324 114.123C45.6554 114.032 45.4259 113.836 45.2944 113.577C45.1629 113.318 45.1401 113.017 45.2312 112.741C45.3222 112.466 45.5196 112.237 45.7799 112.106C46.0401 111.975 46.342 111.953 46.619 112.043C50.5632 113.352 59.226 114.196 68.6629 114.196C78.5089 114.196 87.3031 113.309 91.0575 111.927C91.1963 111.871 91.3449 111.844 91.4945 111.847C91.6441 111.85 91.7915 111.883 91.928 111.944C92.0644 112.005 92.1871 112.093 92.2885 112.203C92.3899 112.312 92.4681 112.441 92.5183 112.581C92.5764 112.719 92.6054 112.868 92.6034 113.017C92.6015 113.167 92.5687 113.314 92.507 113.451C92.4454 113.587 92.3562 113.709 92.2451 113.81C92.1339 113.911 92.0032 113.988 91.8609 114.036C87.829 115.432 78.7427 116.377 68.6629 116.377Z" stroke="#253C8C" stroke-width="2.35115" mask="url(#path-2-outside-1_213_285)"/>
<path d="M96.7109 66.5968H96.6378C96.4945 66.5895 96.3541 66.5537 96.2248 66.4917C96.0954 66.4298 95.9798 66.3428 95.8846 66.2358C95.7894 66.1289 95.7166 66.0041 95.6703 65.8688C95.6241 65.7336 95.6054 65.5905 95.6153 65.4479L97.602 29.9633C97.5961 29.8111 97.6224 29.6594 97.679 29.5179C97.7356 29.3765 97.8213 29.2484 97.9307 29.1419C98.04 29.0354 98.1706 28.9529 98.3139 28.8996C98.4572 28.8464 98.6102 28.8237 98.7629 28.8329C98.9156 28.842 99.0646 28.883 99.2005 28.953C99.3363 29.023 99.456 29.1205 99.5516 29.2393C99.6473 29.3582 99.717 29.4956 99.7561 29.6428C99.7952 29.7901 99.8028 29.9438 99.7786 30.0942L97.7919 65.5788C97.7735 65.8528 97.652 66.1098 97.4516 66.2986C97.2512 66.4873 96.9867 66.5938 96.7109 66.5968Z" stroke="#253C8C" stroke-width="2.35115" mask="url(#path-2-outside-1_213_285)"/>
<path d="M68.6629 129.728C64.3535 129.728 42.85 129.48 42.85 124.812L37.6203 30.0797C37.6028 29.7904 37.7015 29.5061 37.8947 29.2892C38.0878 29.0724 38.3596 28.9409 38.6501 28.9235C38.9407 28.9061 39.2263 29.0044 39.4441 29.1967C39.6619 29.389 39.7941 29.6595 39.8115 29.9488L45.0413 124.652C46.1369 125.859 55.0041 127.561 68.6629 127.561C82.3217 127.561 91.2036 125.859 92.2992 124.652L93.76 99.4492C93.7542 99.297 93.7804 99.1453 93.837 99.0039C93.8936 98.8624 93.9793 98.7343 94.0887 98.6278C94.1981 98.5213 94.3286 98.4388 94.4719 98.3856C94.6153 98.3323 94.7682 98.3096 94.9209 98.3188C95.0736 98.3279 95.2227 98.3689 95.3585 98.4389C95.4944 98.5089 95.614 98.6064 95.7097 98.7253C95.8053 98.8441 95.875 98.9815 95.9141 99.1288C95.9532 99.276 95.9608 99.4297 95.9366 99.5801L94.4758 124.87C94.4758 129.48 72.987 129.728 68.6629 129.728Z" stroke="#253C8C" stroke-width="2.35115" mask="url(#path-2-outside-1_213_285)"/>
<path d="M68.7066 34.937C63.506 34.937 37.6201 34.6897 37.6201 30.0215C37.6201 28.6981 38.8034 27.331 47.3638 26.2403C54.4486 25.4345 61.5759 25.0557 68.7066 25.106C73.8925 25.106 99.7785 25.3387 99.7785 30.0215C99.7785 31.3449 98.5952 32.7119 90.0347 33.8026C82.9548 34.6081 75.8324 34.9869 68.7066 34.937ZM40.1181 30.0215C42.4262 31.2431 52.7543 32.7555 68.7066 32.7555C84.6589 32.7555 95.0016 31.3013 97.2805 30.0215C94.9723 28.7853 84.6443 27.2874 68.7066 27.2874C52.7689 27.2874 42.4262 28.7853 40.1181 30.0215Z" stroke="#253C8C" stroke-width="2.35115" mask="url(#path-2-outside-1_213_285)"/>
<path d="M68.7068 62.7721C61.7824 62.7721 39.2272 62.423 39.2272 58.0602C39.2272 55.5152 46.6336 53.9736 61.2419 53.4792C61.525 53.4789 61.7973 53.5878 62.0015 53.783C62.2058 53.9783 62.3262 54.2446 62.3375 54.5262C62.3455 54.8146 62.24 55.0946 62.0435 55.3065C61.847 55.5185 61.5751 55.6455 61.2857 55.6606C49.5991 56.0532 43.5074 57.2312 41.7544 58.0602C44.121 59.2091 53.8355 60.5906 68.6629 60.5906C83.4904 60.5906 93.1757 59.2091 95.5568 58.0602C93.8477 57.2603 88.0043 56.1114 76.8874 55.6897C76.5981 55.6746 76.3261 55.5475 76.1296 55.3356C75.9331 55.1237 75.8276 54.8436 75.8356 54.5553C75.8577 54.2699 75.9875 54.0033 76.1988 53.8091C76.4102 53.6149 76.6874 53.5074 76.9751 53.5082C98.1279 54.3226 98.1279 57.1294 98.1279 58.0602C98.1717 62.423 75.6019 62.7721 68.7068 62.7721Z" stroke="#253C8C" stroke-width="2.35115" mask="url(#path-2-outside-1_213_285)"/>
<path d="M96.5064 94.9118C93.9776 94.908 91.5535 93.9062 89.7654 92.1261C87.9773 90.346 86.971 87.9328 86.9671 85.4153C86.9671 80.5144 94.7972 71.4833 95.7321 70.4798C95.8374 70.3666 95.9651 70.2762 96.1071 70.2145C96.2492 70.1527 96.4025 70.1208 96.5575 70.1208C96.7125 70.1208 96.8658 70.1527 97.0079 70.2145C97.1499 70.2762 97.2776 70.3666 97.3829 70.4798C98.274 71.4833 106.148 80.5144 106.148 85.4153C106.146 86.6705 105.895 87.9129 105.408 89.0708C104.922 90.2288 104.21 91.2795 103.313 92.1623C102.417 93.0451 101.354 93.7425 100.186 94.2144C99.0177 94.6863 97.7671 94.9233 96.5064 94.9118ZM96.5064 72.8794C93.8915 76.0206 89.2022 82.3177 89.2022 85.4153C89.2022 87.3554 89.9764 89.216 91.3544 90.5879C92.7324 91.9597 94.6014 92.7304 96.5502 92.7304C98.499 92.7304 100.368 91.9597 101.746 90.5879C103.124 89.216 103.898 87.3554 103.898 85.4153C103.854 82.3613 99.1359 76.0061 96.5064 72.923V72.8794Z" stroke="#253C8C" stroke-width="2.35115" mask="url(#path-2-outside-1_213_285)"/>
<path d="M96.5064 100.729C92.9018 100.729 89.3782 99.6653 86.3807 97.6722C83.3833 95.6792 81.0465 92.8464 79.6658 89.5317C78.285 86.217 77.9223 82.5692 78.6234 79.0494C79.3245 75.5295 81.0579 72.2955 83.6047 69.7561C86.1514 67.2167 89.3972 65.4858 92.9318 64.7822C96.4663 64.0787 100.131 64.4339 103.463 65.8032C106.795 67.1724 109.644 69.4941 111.651 72.475C113.658 75.4558 114.732 78.962 114.738 82.5504C114.739 84.9357 114.269 87.2981 113.354 89.5026C112.439 91.7071 111.097 93.7105 109.404 95.3986C107.711 97.0866 105.701 98.4262 103.488 99.3408C101.275 100.255 98.9024 100.727 96.5064 100.729ZM96.5064 66.6259C93.3282 66.6259 90.2214 67.5641 87.5788 69.3219C84.9363 71.0797 82.8767 73.5781 81.6604 76.5012C80.4442 79.4243 80.126 82.6408 80.746 85.744C81.366 88.8471 82.8965 91.6976 85.1438 93.9348C87.3911 96.172 90.2543 97.6956 93.3714 98.3129C96.4885 98.9301 99.7195 98.6133 102.656 97.4026C105.592 96.1918 108.102 94.1414 109.867 91.5106C111.633 88.8799 112.576 85.787 112.576 82.6231C112.579 80.5199 112.167 78.4365 111.361 76.4923C110.555 74.5481 109.372 72.7811 107.879 71.2926C106.387 69.804 104.614 68.6231 102.663 67.8173C100.711 67.0116 98.6191 66.5968 96.5064 66.5968V66.6259Z" stroke="#253C8C" stroke-width="2.35115" mask="url(#path-2-outside-1_213_285)"/>
<path d="M237.65 59.1992C237.387 58.428 237.114 57.6663 236.832 56.9139C236.55 56.1615 236.277 55.3904 236.014 54.6004H227.775C227.512 55.3904 227.239 56.1709 226.957 56.9421C226.694 57.6945 226.43 58.4469 226.167 59.1992H222.471C223.205 57.1114 223.901 55.1835 224.559 53.4154C225.217 51.6473 225.857 49.9733 226.477 48.3934C227.117 46.8134 227.747 45.3087 228.368 43.8792C228.988 42.4497 229.628 41.039 230.286 39.6471H233.644C234.302 41.039 234.942 42.4497 235.562 43.8792C236.183 45.3087 236.804 46.8134 237.424 48.3934C238.064 49.9733 238.713 51.6473 239.371 53.4154C240.048 55.1835 240.754 57.1114 241.487 59.1992H237.65ZM231.894 43.4277C231.462 44.4246 230.963 45.6378 230.399 47.0673C229.854 48.4968 229.28 50.0486 228.678 51.7226H235.111C234.509 50.0486 233.926 48.4874 233.362 47.0391C232.797 45.5908 232.308 44.387 231.894 43.4277ZM236.465 33.8351L231.866 38.2928L230.173 36.7693L234.321 31.8319L236.465 33.8351ZM246.084 51.4404C246.084 52.8887 246.394 53.9515 247.015 54.6286C247.654 55.2869 248.473 55.6161 249.469 55.6161C250.015 55.6161 250.523 55.5408 250.993 55.3904C251.482 55.2399 251.877 55.0612 252.178 54.8543V47.2084C251.933 47.152 251.632 47.1049 251.275 47.0673C250.918 47.0109 250.466 46.9827 249.921 46.9827C248.679 46.9827 247.73 47.3965 247.071 48.2241C246.413 49.0329 246.084 50.105 246.084 51.4404ZM255.592 57.7039C255.592 60.055 254.99 61.7761 253.786 62.867C252.601 63.9579 250.777 64.5034 248.313 64.5034C247.41 64.5034 246.526 64.4282 245.661 64.2777C244.814 64.1272 244.043 63.9297 243.347 63.6852L243.968 60.7792C244.551 61.0237 245.209 61.2212 245.943 61.3717C246.695 61.5222 247.504 61.5974 248.369 61.5974C249.742 61.5974 250.72 61.3152 251.303 60.751C251.886 60.1867 252.178 59.3497 252.178 58.24V57.6757C251.839 57.845 251.388 58.0142 250.824 58.1835C250.278 58.3528 249.648 58.4374 248.933 58.4374C247.993 58.4374 247.128 58.287 246.338 57.986C245.567 57.6851 244.899 57.2431 244.335 56.66C243.789 56.0769 243.356 55.3527 243.037 54.4875C242.736 53.6035 242.585 52.5878 242.585 51.4404C242.585 50.3683 242.745 49.3808 243.065 48.478C243.403 47.5752 243.883 46.804 244.504 46.1645C245.143 45.525 245.914 45.0265 246.817 44.6691C247.72 44.3118 248.745 44.1331 249.893 44.1331C251.002 44.1331 252.056 44.2177 253.053 44.387C254.049 44.5563 254.896 44.735 255.592 44.9231V57.7039ZM272.039 58.7478C271.38 58.9171 270.525 59.0864 269.471 59.2556C268.418 59.4437 267.261 59.5378 266.001 59.5378C264.816 59.5378 263.819 59.3685 263.01 59.0299C262.22 58.6914 261.581 58.2211 261.092 57.6192C260.621 57.0174 260.283 56.3026 260.076 55.475C259.869 54.6286 259.766 53.7069 259.766 52.7101V44.4434H263.18V52.174C263.18 53.754 263.405 54.8825 263.857 55.5596C264.327 56.2368 265.136 56.5753 266.283 56.5753C266.697 56.5753 267.129 56.5565 267.581 56.5189C268.051 56.4813 268.399 56.4343 268.625 56.3778V44.4434H272.039V58.7478ZM281.575 56.8011C282.628 56.8011 283.428 56.7446 283.973 56.6318V52.8511C283.785 52.7947 283.512 52.7383 283.155 52.6818C282.798 52.6254 282.403 52.5972 281.97 52.5972C281.594 52.5972 281.208 52.6254 280.813 52.6818C280.437 52.7383 280.089 52.8417 279.769 52.9922C279.468 53.1427 279.224 53.359 279.036 53.6411C278.848 53.9044 278.754 54.243 278.754 54.6568C278.754 55.4656 279.008 56.0299 279.516 56.3496C280.023 56.6506 280.71 56.8011 281.575 56.8011ZM281.293 44.0767C282.422 44.0767 283.371 44.2177 284.143 44.4999C284.914 44.782 285.525 45.177 285.976 45.6848C286.447 46.1927 286.776 46.8134 286.964 47.5469C287.171 48.2617 287.274 49.0517 287.274 49.9169V58.8607C286.748 58.9735 285.948 59.1052 284.876 59.2556C283.823 59.4249 282.628 59.5096 281.293 59.5096C280.409 59.5096 279.6 59.4249 278.867 59.2556C278.133 59.0864 277.503 58.8136 276.976 58.4374C276.468 58.0613 276.064 57.5722 275.763 56.9703C275.481 56.3684 275.34 55.6255 275.34 54.7414C275.34 53.895 275.5 53.1803 275.82 52.5972C276.158 52.0141 276.61 51.5439 277.174 51.1865C277.738 50.8103 278.387 50.547 279.121 50.3965C279.873 50.2272 280.653 50.1426 281.462 50.1426C281.838 50.1426 282.233 50.1708 282.647 50.2272C283.061 50.2649 283.503 50.3401 283.973 50.453V49.8887C283.973 49.4937 283.926 49.1175 283.832 48.7601C283.738 48.4028 283.569 48.0924 283.324 47.8291C283.099 47.5469 282.788 47.3306 282.393 47.1802C282.017 47.0297 281.538 46.9545 280.954 46.9545C280.164 46.9545 279.44 47.0109 278.782 47.1237C278.124 47.2366 277.588 47.3683 277.174 47.5187L276.751 44.7538C277.183 44.6033 277.813 44.4528 278.641 44.3024C279.468 44.1519 280.353 44.0767 281.293 44.0767Z" fill="black"/>
<path d="M224.781 100.837C224.094 100.837 223.469 100.724 222.904 100.498C222.34 100.272 221.856 99.9432 221.451 99.5106C221.047 99.0779 220.732 98.5466 220.506 97.9165C220.29 97.277 220.182 96.5481 220.182 95.7299C220.182 94.9117 220.304 94.1876 220.549 93.5575C220.802 92.9179 221.141 92.3819 221.564 91.9493C221.987 91.5167 222.481 91.1875 223.045 90.9618C223.61 90.7361 224.212 90.6232 224.851 90.6232C225.255 90.6232 225.618 90.6514 225.937 90.7079C226.266 90.7643 226.549 90.8301 226.784 90.9054C227.028 90.9806 227.226 91.0558 227.376 91.1311C227.527 91.2063 227.63 91.2627 227.687 91.3004L227.292 92.4289C227.207 92.3725 227.085 92.3114 226.925 92.2455C226.765 92.1797 226.582 92.1139 226.375 92.048C226.177 91.9822 225.956 91.9305 225.712 91.8928C225.477 91.8458 225.237 91.8223 224.992 91.8223C224.475 91.8223 224.009 91.9117 223.596 92.0903C223.182 92.269 222.829 92.5277 222.538 92.8662C222.246 93.2048 222.02 93.6186 221.86 94.1076C221.71 94.5873 221.635 95.128 221.635 95.7299C221.635 96.313 221.701 96.8444 221.832 97.324C221.973 97.8036 222.18 98.2174 222.453 98.5654C222.726 98.904 223.064 99.1673 223.469 99.3554C223.882 99.5435 224.362 99.6375 224.908 99.6375C225.538 99.6375 226.06 99.5717 226.473 99.44C226.887 99.3084 227.198 99.1908 227.404 99.0874L227.757 100.216C227.691 100.263 227.574 100.324 227.404 100.399C227.235 100.465 227.024 100.531 226.77 100.597C226.516 100.663 226.219 100.719 225.881 100.766C225.542 100.813 225.176 100.837 224.781 100.837ZM235.508 96.9572C235.508 97.5403 235.424 98.067 235.254 98.5372C235.085 99.0074 234.845 99.4118 234.535 99.7504C234.234 100.089 233.872 100.352 233.449 100.54C233.026 100.719 232.565 100.808 232.066 100.808C231.568 100.808 231.107 100.719 230.684 100.54C230.261 100.352 229.894 100.089 229.584 99.7504C229.283 99.4118 229.047 99.0074 228.878 98.5372C228.709 98.067 228.624 97.5403 228.624 96.9572C228.624 96.3835 228.709 95.8616 228.878 95.3914C229.047 94.9117 229.283 94.5026 229.584 94.1641C229.894 93.8255 230.261 93.5669 230.684 93.3882C231.107 93.2001 231.568 93.106 232.066 93.106C232.565 93.106 233.026 93.2001 233.449 93.3882C233.872 93.5669 234.234 93.8255 234.535 94.1641C234.845 94.5026 235.085 94.9117 235.254 95.3914C235.424 95.8616 235.508 96.3835 235.508 96.9572ZM234.14 96.9572C234.14 96.1296 233.952 95.476 233.576 94.9964C233.209 94.5073 232.706 94.2628 232.066 94.2628C231.427 94.2628 230.919 94.5073 230.543 94.9964C230.176 95.476 229.993 96.1296 229.993 96.9572C229.993 97.7848 230.176 98.4431 230.543 98.9322C230.919 99.4118 231.427 99.6516 232.066 99.6516C232.706 99.6516 233.209 99.4118 233.576 98.9322C233.952 98.4431 234.14 97.7848 234.14 96.9572ZM237.354 93.501C237.655 93.4258 238.055 93.3459 238.553 93.2612C239.052 93.1766 239.625 93.1343 240.274 93.1343C240.857 93.1343 241.342 93.2189 241.727 93.3882C242.113 93.5481 242.419 93.7785 242.644 94.0794C242.879 94.371 243.044 94.7236 243.138 95.1374C243.232 95.5512 243.279 96.0074 243.279 96.5058V100.625H241.967V96.7879C241.967 96.3365 241.934 95.9509 241.868 95.6312C241.812 95.3114 241.713 95.0528 241.572 94.8553C241.431 94.6578 241.243 94.5167 241.008 94.4321C240.773 94.338 240.481 94.291 240.133 94.291C239.992 94.291 239.846 94.2957 239.696 94.3051C239.545 94.3145 239.4 94.3286 239.259 94.3474C239.127 94.3568 239.005 94.371 238.892 94.3898C238.788 94.4086 238.713 94.4227 238.666 94.4321V100.625H237.354V93.501ZM247.162 99.6798C247.698 99.6798 248.093 99.6093 248.347 99.4682C248.61 99.3272 248.742 99.1015 248.742 98.7911C248.742 98.4714 248.615 98.2174 248.361 98.0293C248.107 97.8412 247.688 97.6296 247.105 97.3945C246.823 97.2817 246.55 97.1688 246.287 97.056C246.033 96.9337 245.812 96.7926 245.624 96.6328C245.436 96.4729 245.285 96.2801 245.172 96.0544C245.06 95.8287 245.003 95.5512 245.003 95.2221C245.003 94.5732 245.243 94.0606 245.723 93.6844C246.202 93.2988 246.856 93.106 247.684 93.106C247.89 93.106 248.097 93.1201 248.304 93.1484C248.511 93.1672 248.704 93.1954 248.883 93.233C249.061 93.2612 249.216 93.2941 249.348 93.3317C249.489 93.3694 249.597 93.4023 249.673 93.4305L249.433 94.559C249.292 94.4838 249.071 94.4086 248.77 94.3333C248.469 94.2487 248.107 94.2064 247.684 94.2064C247.317 94.2064 246.997 94.2816 246.724 94.4321C246.452 94.5732 246.315 94.7989 246.315 95.1092C246.315 95.2691 246.343 95.4102 246.4 95.5324C246.466 95.6547 246.56 95.7675 246.682 95.871C246.814 95.965 246.973 96.0544 247.162 96.139C247.35 96.2237 247.575 96.313 247.839 96.407C248.187 96.5387 248.497 96.6704 248.77 96.802C249.042 96.9243 249.273 97.0701 249.461 97.2394C249.658 97.4086 249.809 97.6155 249.912 97.8601C250.016 98.0952 250.068 98.3867 250.068 98.7347C250.068 99.4118 249.814 99.9244 249.306 100.272C248.807 100.62 248.093 100.794 247.162 100.794C246.513 100.794 246.005 100.738 245.638 100.625C245.271 100.522 245.022 100.442 244.89 100.385L245.13 99.2566C245.281 99.3131 245.52 99.3977 245.85 99.5106C246.179 99.6234 246.616 99.6798 247.162 99.6798ZM257.591 100.413C257.29 100.489 256.89 100.569 256.392 100.653C255.902 100.738 255.334 100.78 254.685 100.78C254.12 100.78 253.645 100.7 253.26 100.54C252.874 100.371 252.564 100.136 252.329 99.835C252.094 99.5341 251.924 99.1814 251.821 98.777C251.717 98.3632 251.666 97.9071 251.666 97.4086V93.2894H252.978V97.1265C252.978 98.0199 253.119 98.6594 253.401 99.045C253.683 99.4306 254.158 99.6234 254.826 99.6234C254.967 99.6234 255.113 99.6187 255.263 99.6093C255.413 99.5999 255.555 99.5905 255.686 99.5811C255.818 99.5623 255.935 99.5482 256.039 99.5388C256.152 99.52 256.232 99.5012 256.279 99.4823V93.2894H257.591V100.413ZM262.051 100.766C261.243 100.747 260.669 100.573 260.33 100.244C259.992 99.915 259.823 99.4024 259.823 98.7065V89.9038L261.135 89.6781V98.4949C261.135 98.7112 261.153 98.8899 261.191 99.0309C261.229 99.172 261.29 99.2848 261.374 99.3695C261.459 99.4541 261.572 99.52 261.713 99.567C261.854 99.6046 262.028 99.6375 262.235 99.6657L262.051 100.766ZM264.935 93.2894H267.714V94.3898H264.935V97.7754C264.935 98.1422 264.964 98.4478 265.02 98.6924C265.077 98.9275 265.161 99.1156 265.274 99.2566C265.387 99.3883 265.528 99.4823 265.697 99.5388C265.866 99.5952 266.064 99.6234 266.29 99.6234C266.685 99.6234 267 99.5811 267.235 99.4965C267.479 99.4024 267.649 99.3366 267.743 99.299L267.997 100.385C267.865 100.451 267.635 100.531 267.305 100.625C266.976 100.728 266.6 100.78 266.177 100.78C265.678 100.78 265.265 100.719 264.935 100.597C264.616 100.465 264.357 100.272 264.16 100.018C263.962 99.7645 263.821 99.4541 263.736 99.0874C263.661 98.7112 263.624 98.2786 263.624 97.7895V91.2439L264.935 91.0182V93.2894ZM268.837 96.9713C268.837 96.3224 268.931 95.7581 269.119 95.2785C269.307 94.7895 269.557 94.3851 269.867 94.0653C270.177 93.7455 270.535 93.5057 270.939 93.3459C271.343 93.186 271.757 93.106 272.18 93.106C273.168 93.106 273.925 93.4164 274.452 94.0371C274.978 94.6484 275.242 95.5841 275.242 96.8444C275.242 96.9008 275.242 96.976 275.242 97.0701C275.242 97.1547 275.237 97.2346 275.228 97.3099H270.205C270.262 98.0717 270.483 98.65 270.868 99.045C271.254 99.44 271.856 99.6375 272.674 99.6375C273.135 99.6375 273.521 99.5999 273.831 99.5247C274.151 99.44 274.39 99.3601 274.55 99.2848L274.734 100.385C274.574 100.47 274.292 100.559 273.887 100.653C273.492 100.747 273.041 100.794 272.533 100.794C271.894 100.794 271.339 100.7 270.868 100.512C270.408 100.315 270.027 100.047 269.726 99.7081C269.425 99.3695 269.199 98.9698 269.049 98.509C268.908 98.0387 268.837 97.5262 268.837 96.9713ZM273.873 96.2519C273.883 95.6594 273.732 95.175 273.422 94.7989C273.121 94.4133 272.702 94.2205 272.166 94.2205C271.865 94.2205 271.597 94.2816 271.362 94.4039C271.137 94.5167 270.944 94.6672 270.784 94.8553C270.624 95.0434 270.497 95.2597 270.403 95.5042C270.318 95.7487 270.262 95.9979 270.234 96.2519H273.873ZM282.098 99.6798C282.634 99.6798 283.029 99.6093 283.283 99.4682C283.546 99.3272 283.678 99.1015 283.678 98.7911C283.678 98.4714 283.551 98.2174 283.297 98.0293C283.043 97.8412 282.625 97.6296 282.042 97.3945C281.76 97.2817 281.487 97.1688 281.223 97.056C280.97 96.9337 280.749 96.7926 280.56 96.6328C280.372 96.4729 280.222 96.2801 280.109 96.0544C279.996 95.8287 279.94 95.5512 279.94 95.2221C279.94 94.5732 280.18 94.0606 280.659 93.6844C281.139 93.2988 281.792 93.106 282.62 93.106C282.827 93.106 283.034 93.1201 283.241 93.1484C283.448 93.1672 283.64 93.1954 283.819 93.233C283.998 93.2612 284.153 93.2941 284.285 93.3317C284.426 93.3694 284.534 93.4023 284.609 93.4305L284.369 94.559C284.228 94.4838 284.007 94.4086 283.706 94.3333C283.405 94.2487 283.043 94.2064 282.62 94.2064C282.253 94.2064 281.934 94.2816 281.661 94.4321C281.388 94.5732 281.252 94.7989 281.252 95.1092C281.252 95.2691 281.28 95.4102 281.336 95.5324C281.402 95.6547 281.496 95.7675 281.618 95.871C281.75 95.965 281.91 96.0544 282.098 96.139C282.286 96.2237 282.512 96.313 282.775 96.407C283.123 96.5387 283.434 96.6704 283.706 96.802C283.979 96.9243 284.209 97.0701 284.398 97.2394C284.595 97.4086 284.745 97.6155 284.849 97.8601C284.952 98.0952 285.004 98.3867 285.004 98.7347C285.004 99.4118 284.75 99.9244 284.242 100.272C283.744 100.62 283.029 100.794 282.098 100.794C281.449 100.794 280.941 100.738 280.575 100.625C280.208 100.522 279.959 100.442 279.827 100.385L280.067 99.2566C280.217 99.3131 280.457 99.3977 280.786 99.5106C281.115 99.6234 281.553 99.6798 282.098 99.6798ZM292.527 100.413C292.226 100.489 291.827 100.569 291.328 100.653C290.839 100.738 290.27 100.78 289.621 100.78C289.057 100.78 288.582 100.7 288.196 100.54C287.811 100.371 287.5 100.136 287.265 99.835C287.03 99.5341 286.861 99.1814 286.757 98.777C286.654 98.3632 286.602 97.9071 286.602 97.4086V93.2894H287.914V97.1265C287.914 98.0199 288.055 98.6594 288.337 99.045C288.62 99.4306 289.094 99.6234 289.762 99.6234C289.903 99.6234 290.049 99.6187 290.2 99.6093C290.35 99.5999 290.491 99.5905 290.623 99.5811C290.754 99.5623 290.872 99.5482 290.975 99.5388C291.088 99.52 291.168 99.5012 291.215 99.4823V93.2894H292.527V100.413ZM297.27 99.6798C297.581 99.6798 297.853 99.6751 298.088 99.6657C298.333 99.6469 298.535 99.6187 298.695 99.5811V97.3945C298.601 97.3475 298.446 97.3099 298.229 97.2817C298.023 97.2441 297.769 97.2252 297.468 97.2252C297.27 97.2252 297.059 97.2394 296.833 97.2676C296.617 97.2958 296.414 97.3569 296.226 97.451C296.048 97.5356 295.897 97.6579 295.775 97.8177C295.653 97.9682 295.591 98.1704 295.591 98.4243C295.591 98.8946 295.742 99.2237 296.043 99.4118C296.344 99.5905 296.753 99.6798 297.27 99.6798ZM297.157 93.106C297.684 93.106 298.126 93.1766 298.483 93.3176C298.85 93.4493 299.142 93.6421 299.358 93.896C299.584 94.1405 299.744 94.4368 299.838 94.7848C299.932 95.1233 299.979 95.4995 299.979 95.9133V100.498C299.866 100.517 299.706 100.545 299.499 100.583C299.302 100.611 299.076 100.639 298.822 100.667C298.568 100.696 298.291 100.719 297.99 100.738C297.698 100.766 297.407 100.78 297.115 100.78C296.701 100.78 296.32 100.738 295.972 100.653C295.624 100.569 295.323 100.437 295.069 100.258C294.816 100.07 294.618 99.8256 294.477 99.5247C294.336 99.2237 294.265 98.8616 294.265 98.4384C294.265 98.034 294.345 97.6861 294.505 97.3945C294.674 97.103 294.9 96.8679 295.182 96.6892C295.464 96.5105 295.794 96.3788 296.17 96.2942C296.546 96.2095 296.941 96.1672 297.355 96.1672C297.486 96.1672 297.623 96.1766 297.764 96.1954C297.905 96.2048 298.037 96.2237 298.159 96.2519C298.291 96.2707 298.403 96.2895 298.497 96.3083C298.591 96.3271 298.657 96.3412 298.695 96.3506V95.9838C298.695 95.7675 298.671 95.5559 298.624 95.349C298.577 95.1327 298.493 94.9446 298.37 94.7848C298.248 94.6155 298.079 94.4838 297.863 94.3898C297.656 94.2863 297.383 94.2346 297.044 94.2346C296.612 94.2346 296.231 94.2675 295.902 94.3333C295.582 94.3898 295.342 94.4509 295.182 94.5167L295.027 93.4305C295.196 93.3553 295.479 93.2847 295.874 93.2189C296.269 93.1437 296.696 93.106 297.157 93.106ZM303.865 99.6798C304.401 99.6798 304.796 99.6093 305.05 99.4682C305.313 99.3272 305.445 99.1015 305.445 98.7911C305.445 98.4714 305.318 98.2174 305.064 98.0293C304.81 97.8412 304.391 97.6296 303.808 97.3945C303.526 97.2817 303.253 97.1688 302.99 97.056C302.736 96.9337 302.515 96.7926 302.327 96.6328C302.139 96.4729 301.988 96.2801 301.875 96.0544C301.763 95.8287 301.706 95.5512 301.706 95.2221C301.706 94.5732 301.946 94.0606 302.426 93.6844C302.905 93.2988 303.559 93.106 304.387 93.106C304.593 93.106 304.8 93.1201 305.007 93.1484C305.214 93.1672 305.407 93.1954 305.586 93.233C305.764 93.2612 305.919 93.2941 306.051 93.3317C306.192 93.3694 306.3 93.4023 306.376 93.4305L306.136 94.559C305.995 94.4838 305.774 94.4086 305.473 94.3333C305.172 94.2487 304.81 94.2064 304.387 94.2064C304.02 94.2064 303.7 94.2816 303.427 94.4321C303.155 94.5732 303.018 94.7989 303.018 95.1092C303.018 95.2691 303.046 95.4102 303.103 95.5324C303.169 95.6547 303.263 95.7675 303.385 95.871C303.517 95.965 303.676 96.0544 303.865 96.139C304.053 96.2237 304.278 96.313 304.542 96.407C304.89 96.5387 305.2 96.6704 305.473 96.802C305.745 96.9243 305.976 97.0701 306.164 97.2394C306.361 97.4086 306.512 97.6155 306.615 97.8601C306.719 98.0952 306.771 98.3867 306.771 98.7347C306.771 99.4118 306.517 99.9244 306.009 100.272C305.51 100.62 304.796 100.794 303.865 100.794C303.216 100.794 302.708 100.738 302.341 100.625C301.974 100.522 301.725 100.442 301.593 100.385L301.833 99.2566C301.984 99.3131 302.223 99.3977 302.553 99.5106C302.882 99.6234 303.319 99.6798 303.865 99.6798ZM314.906 100.794C314.314 100.794 313.792 100.7 313.341 100.512C312.899 100.324 312.522 100.061 312.212 99.7222C311.911 99.3836 311.685 98.9839 311.535 98.5231C311.384 98.0528 311.309 97.5356 311.309 96.9713C311.309 96.407 311.389 95.8898 311.549 95.4196C311.718 94.9493 311.953 94.5449 312.254 94.2064C312.555 93.8584 312.922 93.5904 313.355 93.4023C313.797 93.2048 314.286 93.106 314.822 93.106C315.151 93.106 315.48 93.1343 315.809 93.1907C316.138 93.2471 316.454 93.3364 316.754 93.4587L316.458 94.5732C316.261 94.4791 316.03 94.4039 315.767 94.3474C315.513 94.291 315.24 94.2628 314.949 94.2628C314.215 94.2628 313.651 94.4932 313.256 94.954C312.87 95.4149 312.678 96.0873 312.678 96.9713C312.678 97.3663 312.72 97.7284 312.805 98.0575C312.899 98.3867 313.04 98.6688 313.228 98.904C313.425 99.1391 313.674 99.3225 313.975 99.4541C314.276 99.5764 314.643 99.6375 315.076 99.6375C315.424 99.6375 315.739 99.6046 316.021 99.5388C316.303 99.4729 316.524 99.4024 316.684 99.3272L316.867 100.428C316.792 100.475 316.684 100.522 316.543 100.569C316.402 100.606 316.242 100.639 316.063 100.667C315.885 100.705 315.692 100.733 315.485 100.752C315.287 100.78 315.095 100.794 314.906 100.794ZM324.572 96.9572C324.572 97.5403 324.487 98.067 324.318 98.5372C324.149 99.0074 323.909 99.4118 323.598 99.7504C323.297 100.089 322.935 100.352 322.512 100.54C322.089 100.719 321.628 100.808 321.13 100.808C320.631 100.808 320.17 100.719 319.747 100.54C319.324 100.352 318.957 100.089 318.647 99.7504C318.346 99.4118 318.111 99.0074 317.942 98.5372C317.772 98.067 317.688 97.5403 317.688 96.9572C317.688 96.3835 317.772 95.8616 317.942 95.3914C318.111 94.9117 318.346 94.5026 318.647 94.1641C318.957 93.8255 319.324 93.5669 319.747 93.3882C320.17 93.2001 320.631 93.106 321.13 93.106C321.628 93.106 322.089 93.2001 322.512 93.3882C322.935 93.5669 323.297 93.8255 323.598 94.1641C323.909 94.5026 324.149 94.9117 324.318 95.3914C324.487 95.8616 324.572 96.3835 324.572 96.9572ZM323.203 96.9572C323.203 96.1296 323.015 95.476 322.639 94.9964C322.272 94.5073 321.769 94.2628 321.13 94.2628C320.49 94.2628 319.982 94.5073 319.606 94.9964C319.239 95.476 319.056 96.1296 319.056 96.9572C319.056 97.7848 319.239 98.4431 319.606 98.9322C319.982 99.4118 320.49 99.6516 321.13 99.6516C321.769 99.6516 322.272 99.4118 322.639 98.9322C323.015 98.4431 323.203 97.7848 323.203 96.9572ZM326.418 93.501C326.719 93.4258 327.118 93.3459 327.617 93.2612C328.115 93.1766 328.689 93.1343 329.338 93.1343C329.921 93.1343 330.405 93.2189 330.791 93.3882C331.176 93.5481 331.482 93.7785 331.708 94.0794C331.943 94.371 332.107 94.7236 332.201 95.1374C332.295 95.5512 332.342 96.0074 332.342 96.5058V100.625H331.031V96.7879C331.031 96.3365 330.998 95.9509 330.932 95.6312C330.875 95.3114 330.777 95.0528 330.636 94.8553C330.494 94.6578 330.306 94.5167 330.071 94.4321C329.836 94.338 329.545 94.291 329.197 94.291C329.056 94.291 328.91 94.2957 328.759 94.3051C328.609 94.3145 328.463 94.3286 328.322 94.3474C328.19 94.3568 328.068 94.371 327.955 94.3898C327.852 94.4086 327.777 94.4227 327.73 94.4321V100.625H326.418V93.501ZM335.745 93.2894H338.524V94.3898H335.745V97.7754C335.745 98.1422 335.774 98.4478 335.83 98.6924C335.886 98.9275 335.971 99.1156 336.084 99.2566C336.197 99.3883 336.338 99.4823 336.507 99.5388C336.676 99.5952 336.874 99.6234 337.1 99.6234C337.495 99.6234 337.81 99.5811 338.045 99.4965C338.289 99.4024 338.459 99.3366 338.553 99.299L338.807 100.385C338.675 100.451 338.444 100.531 338.115 100.625C337.786 100.728 337.41 100.78 336.987 100.78C336.488 100.78 336.074 100.719 335.745 100.597C335.426 100.465 335.167 100.272 334.969 100.018C334.772 99.7645 334.631 99.4541 334.546 99.0874C334.471 98.7112 334.433 98.2786 334.433 97.7895V91.2439L335.745 91.0182V93.2894ZM342.677 99.6798C342.987 99.6798 343.26 99.6751 343.495 99.6657C343.739 99.6469 343.942 99.6187 344.101 99.5811V97.3945C344.007 97.3475 343.852 97.3099 343.636 97.2817C343.429 97.2441 343.175 97.2252 342.874 97.2252C342.677 97.2252 342.465 97.2394 342.239 97.2676C342.023 97.2958 341.821 97.3569 341.633 97.451C341.454 97.5356 341.304 97.6579 341.181 97.8177C341.059 97.9682 340.998 98.1704 340.998 98.4243C340.998 98.8946 341.148 99.2237 341.449 99.4118C341.75 99.5905 342.159 99.6798 342.677 99.6798ZM342.564 93.106C343.09 93.106 343.532 93.1766 343.89 93.3176C344.257 93.4493 344.548 93.6421 344.764 93.896C344.99 94.1405 345.15 94.4368 345.244 94.7848C345.338 95.1233 345.385 95.4995 345.385 95.9133V100.498C345.272 100.517 345.112 100.545 344.906 100.583C344.708 100.611 344.482 100.639 344.228 100.667C343.974 100.696 343.697 100.719 343.396 100.738C343.105 100.766 342.813 100.78 342.521 100.78C342.108 100.78 341.727 100.738 341.379 100.653C341.031 100.569 340.73 100.437 340.476 100.258C340.222 100.07 340.025 99.8256 339.883 99.5247C339.742 99.2237 339.672 98.8616 339.672 98.4384C339.672 98.034 339.752 97.6861 339.912 97.3945C340.081 97.103 340.307 96.8679 340.589 96.6892C340.871 96.5105 341.2 96.3788 341.576 96.2942C341.952 96.2095 342.347 96.1672 342.761 96.1672C342.893 96.1672 343.029 96.1766 343.17 96.1954C343.311 96.2048 343.443 96.2237 343.565 96.2519C343.697 96.2707 343.81 96.2895 343.904 96.3083C343.998 96.3271 344.064 96.3412 344.101 96.3506V95.9838C344.101 95.7675 344.078 95.5559 344.031 95.349C343.984 95.1327 343.899 94.9446 343.777 94.7848C343.655 94.6155 343.485 94.4838 343.269 94.3898C343.062 94.2863 342.789 94.2346 342.451 94.2346C342.018 94.2346 341.637 94.2675 341.308 94.3333C340.989 94.3898 340.749 94.4509 340.589 94.5167L340.434 93.4305C340.603 93.3553 340.885 93.2847 341.28 93.2189C341.675 93.1437 342.103 93.106 342.564 93.106ZM349.271 99.6798C349.807 99.6798 350.202 99.6093 350.456 99.4682C350.719 99.3272 350.851 99.1015 350.851 98.7911C350.851 98.4714 350.724 98.2174 350.47 98.0293C350.216 97.8412 349.798 97.6296 349.215 97.3945C348.932 97.2817 348.66 97.1688 348.396 97.056C348.143 96.9337 347.921 96.7926 347.733 96.6328C347.545 96.4729 347.395 96.2801 347.282 96.0544C347.169 95.8287 347.113 95.5512 347.113 95.2221C347.113 94.5732 347.353 94.0606 347.832 93.6844C348.312 93.2988 348.965 93.106 349.793 93.106C350 93.106 350.207 93.1201 350.414 93.1484C350.621 93.1672 350.813 93.1954 350.992 93.233C351.171 93.2612 351.326 93.2941 351.458 93.3317C351.599 93.3694 351.707 93.4023 351.782 93.4305L351.542 94.559C351.401 94.4838 351.18 94.4086 350.879 94.3333C350.578 94.2487 350.216 94.2064 349.793 94.2064C349.426 94.2064 349.106 94.2816 348.834 94.4321C348.561 94.5732 348.425 94.7989 348.425 95.1092C348.425 95.2691 348.453 95.4102 348.509 95.5324C348.575 95.6547 348.669 95.7675 348.791 95.871C348.923 95.965 349.083 96.0544 349.271 96.139C349.459 96.2237 349.685 96.313 349.948 96.407C350.296 96.5387 350.607 96.6704 350.879 96.802C351.152 96.9243 351.382 97.0701 351.57 97.2394C351.768 97.4086 351.918 97.6155 352.022 97.8601C352.125 98.0952 352.177 98.3867 352.177 98.7347C352.177 99.4118 351.923 99.9244 351.415 100.272C350.917 100.62 350.202 100.794 349.271 100.794C348.622 100.794 348.114 100.738 347.748 100.625C347.381 100.522 347.132 100.442 347 100.385L347.24 99.2566C347.39 99.3131 347.63 99.3977 347.959 99.5106C348.288 99.6234 348.726 99.6798 349.271 99.6798ZM225.232 115.841C225.072 115.71 224.842 115.583 224.541 115.46C224.24 115.338 223.911 115.277 223.553 115.277C223.177 115.277 222.853 115.347 222.58 115.489C222.317 115.62 222.1 115.808 221.931 116.053C221.762 116.288 221.639 116.57 221.564 116.899C221.489 117.228 221.451 117.581 221.451 117.957C221.451 118.813 221.663 119.476 222.086 119.946C222.509 120.407 223.074 120.638 223.779 120.638C224.136 120.638 224.433 120.623 224.668 120.595C224.912 120.558 225.1 120.52 225.232 120.482V115.841ZM225.232 110.904L226.544 110.678V121.413C226.243 121.498 225.857 121.583 225.387 121.667C224.917 121.752 224.376 121.794 223.765 121.794C223.201 121.794 222.693 121.705 222.241 121.526C221.79 121.348 221.404 121.094 221.085 120.764C220.765 120.435 220.516 120.036 220.337 119.565C220.168 119.086 220.083 118.55 220.083 117.957C220.083 117.393 220.154 116.876 220.295 116.405C220.445 115.935 220.661 115.531 220.943 115.192C221.226 114.854 221.569 114.59 221.973 114.402C222.387 114.214 222.857 114.12 223.384 114.12C223.807 114.12 224.179 114.177 224.498 114.289C224.828 114.402 225.072 114.51 225.232 114.614V110.904ZM228.39 117.971C228.39 117.322 228.484 116.758 228.672 116.278C228.86 115.789 229.109 115.385 229.42 115.065C229.73 114.746 230.088 114.506 230.492 114.346C230.896 114.186 231.31 114.106 231.733 114.106C232.721 114.106 233.478 114.416 234.005 115.037C234.531 115.648 234.795 116.584 234.795 117.844C234.795 117.901 234.795 117.976 234.795 118.07C234.795 118.155 234.79 118.235 234.78 118.31H229.758C229.815 119.072 230.036 119.65 230.421 120.045C230.807 120.44 231.409 120.638 232.227 120.638C232.688 120.638 233.074 120.6 233.384 120.525C233.704 120.44 233.943 120.36 234.103 120.285L234.287 121.385C234.127 121.47 233.845 121.559 233.44 121.653C233.045 121.747 232.594 121.794 232.086 121.794C231.447 121.794 230.892 121.7 230.421 121.512C229.961 121.315 229.58 121.047 229.279 120.708C228.978 120.369 228.752 119.97 228.602 119.509C228.461 119.039 228.39 118.526 228.39 117.971ZM233.426 117.252C233.436 116.659 233.285 116.175 232.975 115.799C232.674 115.413 232.255 115.22 231.719 115.22C231.418 115.22 231.15 115.282 230.915 115.404C230.689 115.517 230.497 115.667 230.337 115.855C230.177 116.043 230.05 116.26 229.956 116.504C229.871 116.749 229.815 116.998 229.787 117.252H233.426ZM242.427 120.68C242.737 120.68 243.01 120.675 243.245 120.666C243.49 120.647 243.692 120.619 243.852 120.581V118.395C243.758 118.348 243.603 118.31 243.386 118.282C243.179 118.244 242.925 118.225 242.624 118.225C242.427 118.225 242.215 118.239 241.99 118.268C241.773 118.296 241.571 118.357 241.383 118.451C241.204 118.536 241.054 118.658 240.932 118.818C240.809 118.968 240.748 119.17 240.748 119.424C240.748 119.895 240.899 120.224 241.2 120.412C241.501 120.59 241.91 120.68 242.427 120.68ZM242.314 114.106C242.841 114.106 243.283 114.177 243.64 114.318C244.007 114.449 244.298 114.642 244.515 114.896C244.74 115.141 244.9 115.437 244.994 115.785C245.088 116.123 245.135 116.5 245.135 116.913V121.498C245.023 121.517 244.863 121.545 244.656 121.583C244.458 121.611 244.233 121.639 243.979 121.667C243.725 121.696 243.447 121.719 243.146 121.738C242.855 121.766 242.563 121.78 242.272 121.78C241.858 121.78 241.477 121.738 241.129 121.653C240.781 121.569 240.48 121.437 240.226 121.258C239.972 121.07 239.775 120.826 239.634 120.525C239.493 120.224 239.422 119.862 239.422 119.438C239.422 119.034 239.502 118.686 239.662 118.395C239.831 118.103 240.057 117.868 240.339 117.689C240.621 117.51 240.95 117.379 241.327 117.294C241.703 117.21 242.098 117.167 242.512 117.167C242.643 117.167 242.78 117.177 242.921 117.195C243.062 117.205 243.193 117.224 243.316 117.252C243.447 117.271 243.56 117.289 243.654 117.308C243.748 117.327 243.814 117.341 243.852 117.351V116.984C243.852 116.768 243.828 116.556 243.781 116.349C243.734 116.133 243.65 115.945 243.527 115.785C243.405 115.615 243.236 115.484 243.019 115.39C242.813 115.286 242.54 115.235 242.201 115.235C241.769 115.235 241.388 115.268 241.059 115.333C240.739 115.39 240.499 115.451 240.339 115.517L240.184 114.43C240.353 114.355 240.635 114.285 241.03 114.219C241.425 114.144 241.853 114.106 242.314 114.106ZM244.233 111.51L242.244 113.443L241.581 112.851L243.386 110.678L244.233 111.51ZM251.913 120.891C251.8 120.967 251.579 121.065 251.25 121.188C250.93 121.301 250.554 121.357 250.122 121.357C249.68 121.357 249.261 121.286 248.866 121.145C248.481 121.004 248.142 120.788 247.85 120.496C247.559 120.196 247.329 119.824 247.159 119.382C246.99 118.94 246.905 118.413 246.905 117.802C246.905 117.266 246.985 116.777 247.145 116.335C247.305 115.884 247.535 115.498 247.836 115.178C248.147 114.849 248.523 114.595 248.965 114.416C249.407 114.228 249.905 114.134 250.46 114.134C251.072 114.134 251.603 114.181 252.054 114.275C252.515 114.36 252.901 114.44 253.211 114.515V121.061C253.211 122.189 252.92 123.007 252.336 123.515C251.753 124.023 250.869 124.277 249.684 124.277C249.224 124.277 248.786 124.239 248.372 124.164C247.968 124.089 247.615 124 247.314 123.896L247.554 122.754C247.818 122.857 248.137 122.946 248.514 123.022C248.899 123.106 249.299 123.149 249.713 123.149C250.493 123.149 251.053 122.993 251.391 122.683C251.739 122.373 251.913 121.879 251.913 121.202V120.891ZM251.899 115.446C251.767 115.409 251.589 115.376 251.363 115.347C251.147 115.31 250.851 115.291 250.474 115.291C249.769 115.291 249.224 115.521 248.838 115.982C248.462 116.443 248.274 117.054 248.274 117.816C248.274 118.239 248.325 118.601 248.429 118.902C248.542 119.203 248.687 119.453 248.866 119.65C249.054 119.848 249.266 119.993 249.501 120.087C249.746 120.181 249.995 120.228 250.249 120.228C250.597 120.228 250.916 120.181 251.208 120.087C251.499 119.984 251.73 119.866 251.899 119.735V115.446ZM261.31 121.413C261.009 121.489 260.61 121.569 260.111 121.653C259.622 121.738 259.053 121.78 258.404 121.78C257.84 121.78 257.365 121.7 256.979 121.54C256.594 121.371 256.283 121.136 256.048 120.835C255.813 120.534 255.644 120.181 255.54 119.777C255.437 119.363 255.385 118.907 255.385 118.409V114.289H256.697V118.126C256.697 119.02 256.838 119.659 257.12 120.045C257.403 120.431 257.878 120.623 258.545 120.623C258.686 120.623 258.832 120.619 258.983 120.609C259.133 120.6 259.274 120.59 259.406 120.581C259.537 120.562 259.655 120.548 259.758 120.539C259.871 120.52 259.951 120.501 259.998 120.482V114.289H261.31V121.413ZM266.053 120.68C266.364 120.68 266.636 120.675 266.871 120.666C267.116 120.647 267.318 120.619 267.478 120.581V118.395C267.384 118.348 267.229 118.31 267.012 118.282C266.806 118.244 266.552 118.225 266.251 118.225C266.053 118.225 265.842 118.239 265.616 118.268C265.4 118.296 265.197 118.357 265.009 118.451C264.831 118.536 264.68 118.658 264.558 118.818C264.436 118.968 264.374 119.17 264.374 119.424C264.374 119.895 264.525 120.224 264.826 120.412C265.127 120.59 265.536 120.68 266.053 120.68ZM265.94 114.106C266.467 114.106 266.909 114.177 267.266 114.318C267.633 114.449 267.925 114.642 268.141 114.896C268.367 115.141 268.527 115.437 268.621 115.785C268.715 116.123 268.762 116.5 268.762 116.913V121.498C268.649 121.517 268.489 121.545 268.282 121.583C268.085 121.611 267.859 121.639 267.605 121.667C267.351 121.696 267.074 121.719 266.773 121.738C266.481 121.766 266.19 121.78 265.898 121.78C265.484 121.78 265.103 121.738 264.755 121.653C264.407 121.569 264.106 121.437 263.853 121.258C263.599 121.07 263.401 120.826 263.26 120.525C263.119 120.224 263.048 119.862 263.048 119.438C263.048 119.034 263.128 118.686 263.288 118.395C263.458 118.103 263.683 117.868 263.965 117.689C264.248 117.51 264.577 117.379 264.953 117.294C265.329 117.21 265.724 117.167 266.138 117.167C266.269 117.167 266.406 117.177 266.547 117.195C266.688 117.205 266.82 117.224 266.942 117.252C267.074 117.271 267.186 117.289 267.28 117.308C267.375 117.327 267.44 117.341 267.478 117.351V116.984C267.478 116.768 267.454 116.556 267.407 116.349C267.36 116.133 267.276 115.945 267.154 115.785C267.031 115.615 266.862 115.484 266.646 115.39C266.439 115.286 266.166 115.235 265.827 115.235C265.395 115.235 265.014 115.268 264.685 115.333C264.365 115.39 264.125 115.451 263.965 115.517L263.81 114.43C263.979 114.355 264.262 114.285 264.657 114.219C265.052 114.144 265.48 114.106 265.94 114.106Z" fill="black"/>
<rect x="1" y="1.41406" width="394.168" height="152" rx="8.40458" stroke="#D9D9D9" stroke-width="2"/>
</svg>
