<svg width="514" height="412" viewBox="0 0 514 412" fill="none" xmlns="http://www.w3.org/2000/svg">
<rect x="49" y="2.59375" width="416" height="409" rx="113" fill="#F5F7FE"/>
<path d="M51.2599 130.609L5.11321e-05 130.609L5.34058e-05 78.5937L106.473 78.5938L106.473 182.932L53.0958 182.932L53.0958 132.498L53.0958 130.611L51.2599 130.609Z" fill="#FFE000"/>
<path d="M457.322 335.804L457.322 387.062L509.338 387.062L509.338 280.591L405 280.591L405 333.967L455.434 333.967L457.321 333.969L457.322 335.804Z" fill="#6CB546"/>
<path d="M186.083 336.74L186.083 387.998L134.066 387.998L134.066 281.527L238.406 281.527L238.406 334.902L187.97 334.902L186.083 334.904L186.083 336.74Z" fill="#FC1515"/>
<path d="M80.2715 210.136C80.2715 210.136 64.3348 197.895 73.0054 165.02L78.7485 157.069L93.1952 140.609C93.1952 140.609 103.063 131.082 106.062 119.062C109.062 107.042 111.797 91.4648 118.382 87.1707C124.967 82.8766 133.726 77.8041 157.734 85.5682C157.734 85.5682 176.037 95.5474 167.089 111.005L163.585 114.238L160.053 116.557L161.104 108.432L159.993 102.376L158.591 98.8298L145.007 95.371L141.734 96.0126L139.452 97.781C139.452 97.781 130.21 112.435 118.681 112.308L116.288 110.282C116.288 110.282 111.634 107.607 110.234 112.591C108.833 117.574 111.555 123.473 111.555 123.473L113.891 125.357L114.41 127.297C114.41 127.297 115.27 144.244 111.006 147.21C106.742 150.176 91.2188 203.829 91.2188 203.829L80.2715 210.136Z" fill="#663431"/>
<path d="M151.71 263.933C151.71 263.933 157.417 309.25 212.58 285.41L219.626 280.777C219.626 280.777 233.156 273.386 280.327 216.41L288.266 207.4L294.912 219.346L319.928 252.175L343.803 245.778L340.581 236.327L350.901 240.091L363.351 245.344L382.995 255.552L399.227 229.888L353.061 192.764L323.186 167.806L316.487 162.051C316.487 162.051 307.929 148.186 291.67 151.857C275.41 155.527 268.751 164.175 268.751 164.175L177.404 238.831C177.404 238.831 184.888 197.195 151.71 263.933Z" fill="#253C8C"/>
<path d="M113.669 147.67L150.775 168.612C151.29 168.955 151.912 169.101 152.528 169.024C153.143 168.947 153.71 168.653 154.127 168.194C154.543 167.735 154.78 167.143 154.796 166.526C154.811 165.908 154.603 165.306 154.21 164.829L142.554 149.539L148.576 144.317C148.576 144.317 186.632 167.632 201.159 181.957L229.048 141.835C229.048 141.835 235.236 150.824 245.327 149.846L231.417 194.459L177.807 237.688C177.807 237.688 164.226 247.975 153.335 269.11L151.871 263.208C151.871 263.208 136.314 251.061 129.795 242.16L96.6955 252.99C96.6955 252.99 88.3656 252.83 86.8165 247.048C85.2673 241.267 71.904 197.785 87.7058 165.373C87.6813 165.281 89.6424 143.656 113.669 147.67Z" fill="#1D2B4E"/>
<path d="M410.134 325.172C395.365 329.561 375.157 319.523 365.509 313.853C361.588 311.547 357.388 309.747 353.011 308.496C353.738 306.908 354.576 305.372 355.52 303.901C359.658 297.156 366.185 292.202 373.807 290.02C374.743 289.769 375.276 289.627 375.276 289.627C375.276 289.627 409.572 318.597 410.834 321.69C412.096 324.784 410.134 325.172 410.134 325.172Z" fill="#A2F9E8"/>
<path d="M375.319 289.788C375.319 289.788 374.786 289.931 373.85 290.182L373.299 290.33L373.274 290.238C372.943 290.359 372.619 290.498 372.303 290.655C370.626 291.46 369.003 292.373 367.445 293.388C369.47 292.22 371.633 291.311 373.885 290.682L374.05 290.638L375.263 290.313L378.217 292.816L377.986 291.956L375.319 289.788ZM411.408 321.631C410.377 319.103 389.881 301.456 380.193 293.287L377.65 291.144L375.613 289.416L375.453 289.262L375.233 289.321C375.233 289.321 374.774 289.444 373.978 289.559L372.894 289.85C365.618 292.169 359.391 296.969 355.307 303.406L355.101 303.736L355.009 303.76L354.735 304.207C354.483 304.588 354.249 304.964 354.025 305.377L353.742 305.865C353.606 306.081 353.482 306.304 353.37 306.533C353.128 306.951 352.922 307.359 352.721 307.785L352.529 308.17L352.32 308.638L352.449 308.604L352.838 308.735L353.264 308.856C357.446 310.1 361.462 311.842 365.224 314.044C371.929 318.034 379.045 321.295 386.451 323.769C387.165 324.009 387.869 324.213 388.592 324.411C395.725 326.422 403.153 327.333 409.636 325.596L410.224 325.439C410.484 325.387 410.73 325.281 410.947 325.128C411.164 324.976 411.346 324.779 411.483 324.553C411.669 324.086 411.753 323.586 411.731 323.085C411.709 322.584 411.58 322.093 411.353 321.646L411.408 321.631ZM410.115 324.664C403.534 326.623 395.842 325.684 388.443 323.49L386.298 322.83C379.19 320.377 372.353 317.21 365.892 313.375C362.102 311.159 358.062 309.398 353.856 308.128L354.375 307.127L354.936 306.133L355.421 305.297L356.082 304.238L356.433 303.712C357.808 301.63 359.412 299.707 361.215 297.98L361.381 297.935C363.212 296.173 365.255 294.644 367.464 293.384C369.488 292.216 371.652 291.306 373.903 290.677L374.069 290.633L375.281 290.308L378.235 292.811L380.782 294.972C393.932 306.214 409.766 320.13 410.529 322.023C411.048 323.296 411.02 323.853 410.772 324.253C410.697 324.376 410.593 324.479 410.469 324.553C410.344 324.627 410.204 324.671 410.06 324.679L410.115 324.664Z" fill="black"/>
<path d="M88.1901 166.666L87.1934 166.62C87.1934 166.62 87.1444 166.437 87.2349 166.04C87.4596 163.646 88.7261 155.443 95.2547 150.498C99.9202 146.973 106.206 145.897 113.961 147.29L113.774 148.281C106.311 146.947 100.287 147.973 95.8806 151.291C89.6617 155.997 88.4588 163.849 88.2463 166.141C88.2403 166.317 88.2216 166.493 88.1901 166.666Z" fill="black"/>
<path d="M453.3 271.4C452.774 271.933 452.266 272.461 451.768 273.026C429.61 297.219 424.946 294.43 424.946 294.43L423.176 292.453C422.871 292.105 422.684 291.669 422.642 291.209C422.6 290.748 422.705 290.286 422.941 289.888L424.661 286.976C426.137 286.433 427.518 285.659 428.751 284.684C438.269 277.525 443.59 269.981 450.057 266.641C451.015 268.307 452.099 269.898 453.3 271.4Z" fill="#A2F9E8"/>
<path d="M453.653 271.1C453.653 271.1 453.441 270.823 453.324 270.678C452.574 269.699 451.874 268.682 451.228 267.631C451.071 267.397 450.927 267.154 450.797 266.904C450.752 266.739 450.593 266.586 450.512 266.431L450.309 266.113L449.813 266.246L449.388 266.497C445.665 268.802 442.253 271.575 439.237 274.747C435.821 278.136 432.204 281.318 428.406 284.277C427.202 285.202 425.871 285.948 424.453 286.493L424.288 286.537L423.583 287.726L422.504 289.505C422.208 289.998 422.077 290.572 422.131 291.143C422.185 291.714 422.421 292.253 422.804 292.68L424.555 294.662L424.676 294.747C424.821 294.846 425.401 295.102 426.742 294.743C429.827 293.916 436.928 289.856 452.124 273.254L453.239 272.054L453.638 271.633L453.947 271.315L453.653 271.1ZM425.214 294.035L423.524 292.134C423.301 291.871 423.167 291.545 423.138 291.201C423.109 290.858 423.188 290.514 423.364 290.216L424.989 287.467C426.441 286.894 427.804 286.12 429.038 285.166C431.444 283.345 433.586 281.497 435.453 279.722C437.039 278.297 438.489 276.947 439.855 275.581C442.793 272.449 446.118 269.7 449.749 267.4C449.762 267.482 449.783 267.561 449.812 267.638C449.891 267.931 450.134 268.179 450.305 268.447C450.387 268.592 450.477 268.731 450.574 268.865C450.725 269.125 450.89 269.375 451.07 269.615C451.325 269.978 451.585 270.36 451.858 270.718L452.419 271.489L451.195 272.798C431.269 294.667 425.694 294.063 425.214 294.035Z" fill="black"/>
<path d="M493.68 227.72C491.137 242.324 474.249 255.477 464.618 261.921C460.508 264.677 456.703 267.86 453.265 271.414C452.064 269.913 450.98 268.322 450.021 266.656C446.287 260.44 444.783 253.142 445.754 245.954C445.876 245.019 446.084 244.097 446.374 243.2C446.374 243.2 487.689 225.345 491.017 225.571C494.345 225.796 493.68 227.72 493.68 227.72Z" fill="#A2F9E8"/>
<path d="M445.852 245.365L445.896 245.529L446.377 245.636L446.466 245.161L445.852 245.365ZM493.899 226.333C493.537 225.931 493.088 225.616 492.587 225.411C492.086 225.206 491.544 225.116 491.003 225.148C487.656 224.927 450.365 240.978 446.129 242.8L445.909 242.859L445.848 243.071C445.57 243.893 445.375 244.74 445.265 245.6C445.238 245.701 445.22 245.805 445.21 245.909C445.159 246.191 445.124 246.475 445.104 246.761C444.369 253.622 445.842 260.535 449.31 266.498C449.371 266.649 449.449 266.793 449.543 266.926L449.733 267.267C449.757 267.359 449.777 267.432 449.801 267.524C449.826 267.615 450.118 268.046 450.307 268.31C450.389 268.454 450.479 268.593 450.577 268.728C450.727 268.987 450.893 269.237 451.073 269.477C451.327 269.84 451.587 270.222 451.86 270.58L452.421 271.351L452.689 271.691L452.991 272.081L453.39 271.66L453.698 271.342C457.043 267.947 460.724 264.898 464.684 262.242C474.521 255.684 491.371 242.463 493.963 227.747C494.147 227.288 494.144 226.775 493.954 226.318L493.899 226.333ZM493.153 227.592C490.671 241.983 474.016 254.976 464.317 261.458C460.331 264.123 456.627 267.185 453.262 270.597C452.512 269.617 451.813 268.6 451.166 267.55C451.007 267.317 450.863 267.074 450.735 266.822C450.691 266.658 450.532 266.504 450.451 266.349L450.248 266.031C446.7 259.984 445.28 252.925 446.212 245.974L446.271 245.605L446.36 245.13C446.527 244.36 446.675 243.81 446.74 243.538C463.327 236.388 488.621 225.884 490.953 226.064C492.333 226.145 492.869 226.531 493.123 226.816C493.194 226.927 493.239 227.054 493.254 227.186C493.269 227.318 493.253 227.452 493.209 227.577L493.153 227.592Z" fill="black"/>
<path d="M240.327 169.506L230.242 166.013C227.625 165.107 224.763 166.489 223.849 169.098L212.742 200.813C211.828 203.423 213.208 206.273 215.825 207.179L225.91 210.671C228.526 211.577 231.388 210.196 232.302 207.586L243.41 175.871C244.324 173.261 242.943 170.411 240.327 169.506Z" fill="#A2F9E8"/>
<path d="M242.72 169.796L240.184 168.927L239.725 168.756L239.447 168.673L239.229 168.594L238.858 168.458L228.167 164.774C227.775 164.637 227.36 164.579 226.945 164.603C226.53 164.627 226.124 164.732 225.75 164.912C225.376 165.093 225.041 165.345 224.765 165.654C224.489 165.964 224.276 166.324 224.14 166.715L216.418 188.806L216.325 189.046L216.017 189.952L215.302 191.987L211.472 202.818C211.335 203.209 211.276 203.623 211.299 204.036C211.322 204.449 211.426 204.853 211.607 205.226C211.787 205.598 212.039 205.932 212.349 206.207C212.659 206.481 213.021 206.692 213.413 206.828L215.212 207.444L215.583 207.58L221.573 209.661L222.741 210.054L227.953 211.873C228.549 212.072 229.191 212.091 229.798 211.928C230.298 211.8 230.759 211.55 231.139 211.202C231.52 210.854 231.809 210.417 231.98 209.932L232.403 208.72L232.369 208.592L232.686 207.644L233.039 206.687L233.683 204.828L233.925 204.116L234.027 203.834L235.5 199.635L235.637 199.265L235.844 198.641L239.271 188.879L239.601 187.908L239.694 187.667L239.87 187.149L239.846 187.058L240.159 186.17L240.618 184.87L244.49 173.832C244.785 173.061 244.765 172.207 244.434 171.452C244.103 170.697 243.487 170.102 242.72 169.796ZM243.701 173.455L243.735 173.583L240.176 183.734L239.813 184.733L239.073 186.892L238.645 188.086L238.679 188.214L238.401 189.014L235.221 198.082L235.04 198.581L234.886 199.035L233.259 203.687L233.127 204.075L232.897 204.686L232.101 206.86L231.802 207.724L231.285 209.177L231.233 209.348C231.14 209.613 230.995 209.858 230.807 210.068C230.62 210.279 230.392 210.45 230.138 210.573C229.884 210.695 229.608 210.767 229.326 210.784C229.045 210.8 228.763 210.761 228.496 210.669L228.368 210.703L224.57 209.387L222.206 208.57L216.518 206.957L216.17 206.834L213.99 206.045L213.819 205.993C213.284 205.803 212.846 205.411 212.599 204.901C212.352 204.392 212.316 203.805 212.498 203.269L212.464 203.14L216.614 191.302L217.161 189.744L217.461 188.879L217.563 188.597L225.025 167.302L224.991 167.174C225.182 166.633 225.579 166.188 226.096 165.936L226.482 165.833C226.902 165.721 227.346 165.739 227.755 165.884L227.866 165.854L238.326 169.483L239.021 169.728L239.193 169.781L242.081 170.791L242.228 170.752C242.771 170.941 243.216 171.336 243.468 171.851C243.759 172.346 243.846 172.934 243.71 173.492L243.701 173.455Z" fill="black"/>
<path d="M167.568 205.501L178.096 203.582L200.344 190.522C200.344 190.522 205.181 189.697 206.118 191.504L238.538 183.72C238.538 183.72 241.319 185.504 239.941 187.266C238.563 189.027 217.43 197.651 217.43 197.651L235.429 198.71C235.429 198.71 238.089 203.273 236.1 203.786C233.855 204.137 231.583 204.286 229.311 204.233L220.852 206.97L231.15 207.642C231.15 207.642 235.74 210.079 232.351 212.125C228.962 214.17 217.897 213.938 217.897 213.938L222.55 216.613L223.481 218.325L220.984 221.053L219.46 221.461L199.6 221.979L186.634 219.943L169.029 227.189C169.029 227.189 165.168 214.615 167.568 205.501Z" fill="white"/>
<path d="M220.484 221.684C220.111 221.78 219.728 221.83 219.343 221.833L200.421 222.177L187.291 220.558C184.529 221.71 138.049 241.008 104.777 250.903L98.5333 252.87C97.3113 253.255 96.0245 253.389 94.75 253.266C93.4755 253.142 92.2396 252.763 91.1167 252.152C89.9946 251.546 89.0087 250.719 88.2197 249.72C87.4307 248.721 86.8552 247.571 86.5286 246.341C81.3713 227.094 71.4465 180.064 92.8823 158.613L93.5853 159.327C72.5401 180.398 82.3252 227.054 87.5019 246.08C87.7915 247.179 88.3053 248.205 89.0113 249.096C89.7173 249.986 90.6003 250.722 91.6051 251.256C92.6079 251.806 93.7126 252.148 94.8524 252.26C95.9922 252.373 97.1435 252.254 98.2368 251.911L104.481 249.943C138.569 239.79 186.536 219.799 187.013 219.593L187.141 219.559L200.474 221.202L219.337 220.854C220.28 220.839 221.181 220.457 221.847 219.789L222.333 219.326C222.524 219.133 222.668 218.899 222.753 218.641C222.837 218.384 222.861 218.11 222.821 217.842C222.785 217.574 222.686 217.319 222.531 217.098C222.375 216.877 222.169 216.696 221.929 216.571L216.181 213.483L230.241 212.697C230.805 212.668 231.345 212.455 231.777 212.091C232.209 211.727 232.51 211.233 232.634 210.683L232.712 210.387C232.779 210.094 232.781 209.79 232.719 209.495C232.657 209.201 232.533 208.923 232.354 208.681C232.176 208.439 231.947 208.238 231.683 208.092C231.42 207.946 231.128 207.857 230.827 207.833L217.874 206.873L229.573 203.738L234.135 203.868C234.684 203.882 235.221 203.703 235.652 203.362C236.082 203.02 236.379 202.539 236.489 202.002C236.59 201.512 236.534 201.003 236.327 200.548C236.12 200.092 235.773 199.714 235.337 199.468C234.69 199.109 233.962 198.919 233.221 198.917L215.34 198.296L239.021 186.989C239.245 186.881 239.438 186.718 239.581 186.515C239.724 186.312 239.813 186.076 239.84 185.83C239.866 185.583 239.829 185.334 239.732 185.106C239.636 184.878 239.482 184.678 239.286 184.526C239.111 184.383 238.905 184.284 238.683 184.237C238.462 184.191 238.232 184.198 238.014 184.259L204.051 193.046L203.792 192.076L237.772 183.285C238.139 183.194 238.522 183.187 238.892 183.266C239.262 183.344 239.608 183.506 239.906 183.738C240.203 183.97 240.444 184.267 240.609 184.606C240.774 184.944 240.859 185.316 240.859 185.693C240.853 186.15 240.721 186.596 240.477 186.983C240.234 187.37 239.888 187.683 239.478 187.887L219.517 197.432L233.417 197.884C234.294 197.907 235.151 198.15 235.909 198.589C236.525 198.943 237.013 199.483 237.303 200.13C237.593 200.778 237.671 201.5 237.525 202.195C237.37 202.963 236.947 203.651 236.332 204.139C235.717 204.627 234.949 204.883 234.164 204.861L229.662 204.734L223.895 206.279L230.963 206.797C231.408 206.832 231.841 206.963 232.231 207.18C232.621 207.396 232.96 207.694 233.224 208.053C233.488 208.412 233.672 208.823 233.762 209.259C233.853 209.695 233.848 210.146 233.748 210.58L233.67 210.876C233.502 211.644 233.089 212.337 232.491 212.851C231.894 213.365 231.145 213.671 230.359 213.724L219.869 214.319L222.464 215.702C222.843 215.902 223.17 216.188 223.417 216.538C223.665 216.887 223.826 217.289 223.888 217.713C223.949 218.138 223.909 218.572 223.773 218.979C223.636 219.387 223.406 219.757 223.101 220.061L222.615 220.525C222.024 221.098 221.287 221.499 220.484 221.684Z" fill="black"/>
<path d="M178.816 203.918L177.617 204.141L168.335 205.864C139.786 211.199 121.419 215.16 111.031 217.531C104.319 219.075 101.303 219.864 101.266 219.874L101.006 218.904C101.006 218.904 104.073 218.082 110.808 216.552C121.196 214.18 139.586 210.233 168.153 204.893C171.145 204.307 174.226 203.756 177.522 203.127L178.538 202.953L199.092 190.7C200.062 190.119 201.15 189.761 202.276 189.651L203.251 189.546C203.783 189.499 204.317 189.564 204.821 189.736C205.325 189.909 205.787 190.185 206.177 190.547L207.104 191.436L206.415 192.17L205.469 191.286C205.183 191.018 204.841 190.815 204.468 190.691C204.096 190.568 203.7 190.527 203.309 190.57L202.31 190.662C201.339 190.764 200.402 191.076 199.563 191.574L178.816 203.918Z" fill="black"/>
<path d="M423.849 287.765C416.503 289.734 411.761 282.984 407.502 277.007C406.71 275.886 405.955 274.833 405.202 273.858C398.691 265.426 378.519 250.751 343.033 237.101C342.226 236.807 341.456 236.504 340.699 236.177C322.212 228.522 312.249 217.347 307.128 209.327C304.143 204.789 301.926 199.792 300.566 194.535L242.672 259.973C242.468 260.243 219.349 291.204 187.984 292.863C161.918 294.239 156.03 277.776 151.726 265.752C151.525 265.002 151.205 264.323 150.959 263.624L151.889 263.277C152.08 263.99 152.405 264.688 152.661 265.423C156.864 277.141 162.625 293.206 187.931 291.857C218.812 290.23 241.661 259.655 241.892 259.339L301.177 192.332L301.451 193.356C302.704 198.87 304.955 204.108 308.093 208.813C313.138 216.697 322.987 227.667 341.178 235.245C341.929 235.553 342.705 235.875 343.488 236.155C358.566 241.813 373.043 248.942 386.709 257.44C395.546 263.092 402.586 268.873 406.028 273.343C406.786 274.336 407.541 275.389 408.357 276.523C412.587 282.468 417.389 289.222 424.485 286.614L424.837 287.559L423.849 287.765Z" fill="black"/>
<path d="M198.195 221.071L176.66 238.559L177.295 239.337L198.83 221.849L198.195 221.071Z" fill="black"/>
<path d="M442.621 247.56C429.766 251.005 416.354 244.147 416.214 244.067C415.266 243.321 328.375 175.636 313.393 158.806C298.754 142.374 275.057 159.94 274.83 160.119L239.265 189.002L238.62 188.214L274.185 159.33C274.45 159.142 298.792 140.971 314.139 158.135C329.045 174.907 415.867 242.552 416.736 243.221C416.736 243.221 432.147 251.151 445.53 245.487L445.937 246.417C444.86 246.877 443.752 247.259 442.621 247.56Z" fill="black"/>
<path d="M355.542 303.987C354.599 305.458 353.76 306.993 353.033 308.581C352.894 308.522 352.75 308.475 352.602 308.441C329.778 302.086 322.825 297.438 320.695 295.146C320.362 294.787 320.14 294.34 320.056 293.858C319.973 293.376 320.03 292.88 320.223 292.429L320.662 291.351C320.872 290.841 321.24 290.411 321.711 290.123C322.182 289.834 322.733 289.703 323.283 289.746L329.894 290.25C329.54 292.306 329.773 294.204 331.008 295.069C335.168 298.717 340.329 301.042 345.828 301.746C349.124 302.221 352.373 302.97 355.542 303.987Z" fill="#A2F9E8"/>
<path d="M345.826 301.736C340.326 301.032 335.166 298.708 331.006 295.059C330.481 294.573 330.092 293.959 329.878 293.277C329.664 292.595 329.633 291.869 329.787 291.17L330.077 290.269L330.234 289.756L329.491 289.7L325.008 289.352L325.151 289.883L324.629 289.846L324.766 290.358L325.288 290.395L329.309 290.71C329.087 291.526 329.085 292.385 329.304 293.202C329.522 294.018 329.954 294.761 330.554 295.357C334.789 299.095 340.056 301.476 345.671 302.189C348.742 302.653 351.77 303.363 354.724 304.313L354.998 303.867C352.001 302.921 348.934 302.209 345.826 301.736ZM355.843 303.641L355.733 303.67L355.538 303.605L355.391 303.644C352.313 302.642 349.157 301.894 345.954 301.408C340.537 300.68 335.455 298.388 331.334 294.815C330.382 294.128 330.092 292.677 330.43 290.488L330.518 289.935L330.298 289.994L329.555 289.938L325.072 289.59L324.55 289.553L323.992 289.526L323.387 289.473C322.725 289.421 322.063 289.581 321.498 289.93C320.933 290.279 320.494 290.798 320.246 291.413L319.82 292.468C319.6 293.01 319.535 293.603 319.634 294.179C319.733 294.755 319.991 295.293 320.379 295.73C320.763 296.143 321.181 296.523 321.628 296.866L322.123 297.243L322.636 297.616C326.3 300.124 334.177 303.955 351.116 308.77L352.371 309.12L352.499 309.086L352.889 309.217L353.302 309.361L353.475 308.981L353.703 308.508L354.222 307.507C354.405 307.163 354.589 306.82 354.782 306.513L355.267 305.677L355.928 304.618L356.279 304.092L355.843 303.641ZM353.429 306.68C353.187 307.098 352.981 307.506 352.781 307.932L351.845 307.673C335.324 303.021 327.445 299.327 323.671 296.848C323.508 296.751 323.354 296.642 323.209 296.521C323.028 296.432 322.902 296.329 322.739 296.235C322.146 295.773 321.589 295.267 321.073 294.721C320.811 294.426 320.638 294.065 320.572 293.677C320.506 293.289 320.551 292.89 320.702 292.526L321.146 291.466C321.277 291.181 321.472 290.93 321.716 290.732C321.96 290.534 322.246 290.394 322.552 290.324C322.783 290.263 323.023 290.238 323.261 290.252L324.245 290.322L324.789 290.372L325.311 290.408L329.332 290.723C329.11 291.539 329.108 292.399 329.327 293.215C329.546 294.031 329.977 294.775 330.577 295.37C334.812 299.109 340.079 301.489 345.695 302.203C348.765 302.666 351.793 303.376 354.748 304.326C354.495 304.708 354.262 305.084 354.038 305.497L353.755 305.985C353.63 306.186 353.515 306.394 353.41 306.607L353.429 306.68Z" fill="black"/>
<path d="M330.387 290.176L329.397 290.01C330.503 285.321 332.302 280.821 334.736 276.657C327.345 263.207 318.714 250.474 308.955 238.621C292.219 218.182 288.012 207.916 287.987 207.825L288.913 207.459C288.913 207.459 293.115 217.706 309.728 237.982C319.62 249.944 328.343 262.82 335.779 276.436L335.848 276.692L335.713 276.925C335.713 276.925 331.201 284.84 330.387 290.176Z" fill="black"/>
<path d="M373.438 290.409C370.621 287.242 365.507 281.16 357.332 270.703C348.572 259.461 343.282 245.524 340.389 235.828L341.362 235.567C344.236 245.19 349.473 259.004 358.138 270.114C366.291 280.558 371.366 286.571 374.193 289.775L373.438 290.409Z" fill="black"/>
<path d="M121.045 214.131L120.042 214.282C114.354 175.352 95.8479 168.8 95.6532 168.735L95.9885 167.782C96.6754 168.069 115.182 174.62 121.045 214.131Z" fill="black"/>
<path d="M153.094 265.568C152.07 264.686 151.046 263.803 150.064 262.929C142.775 256.539 135.879 249.717 129.413 242.5L130.177 241.824C136.603 249.023 143.467 255.822 150.73 262.182C151.712 263.056 152.736 263.939 153.755 264.803L153.094 265.568Z" fill="black"/>
<path d="M153.353 169.641C153.013 169.733 152.658 169.758 152.308 169.714C151.958 169.67 151.621 169.557 151.315 169.383L118.392 151.34L118.867 150.467L151.79 168.51C152.138 168.709 152.544 168.781 152.94 168.714C153.336 168.648 153.696 168.446 153.959 168.143C154.222 167.841 154.372 167.457 154.383 167.058C154.394 166.658 154.265 166.267 154.018 165.952L142.109 149.789L142.916 149.2L154.843 165.359C155.114 165.721 155.292 166.144 155.36 166.591C155.429 167.038 155.386 167.495 155.237 167.922C155.087 168.349 154.834 168.734 154.501 169.041C154.168 169.349 153.765 169.571 153.326 169.687L153.353 169.641Z" fill="black"/>
<path d="M189.514 196.9C180.906 177.852 170.995 171.35 170.842 171.293L171.4 170.438C171.811 170.72 181.652 177.182 190.406 196.485L189.514 196.9Z" fill="black"/>
<path d="M223.961 177.505L223.006 177.173L225.722 169.385C225.81 169.116 225.952 168.868 226.14 168.655C226.327 168.442 226.556 168.269 226.813 168.147C227.069 168.025 227.348 167.956 227.631 167.945C227.915 167.934 228.198 167.981 228.463 168.082L232.382 169.483L232.028 170.441L228.123 169.017C227.836 168.926 227.526 168.939 227.247 169.055C227.111 169.12 226.99 169.212 226.892 169.327C226.794 169.441 226.721 169.574 226.677 169.718L223.961 177.505Z" fill="black"/>
<path d="M229.155 170.666C228.593 170.567 228.014 170.694 227.545 171.018C227.075 171.342 226.752 171.837 226.646 172.397C226.402 172.913 226.369 173.504 226.554 174.044C226.739 174.583 227.128 175.029 227.638 175.288C227.921 175.373 228.222 175.38 228.509 175.31C228.908 175.169 229.267 174.934 229.554 174.625C229.842 174.315 230.049 173.941 230.16 173.534C230.344 172.984 230.363 172.393 230.215 171.833C230.148 171.567 230.015 171.321 229.831 171.118C229.646 170.914 229.414 170.759 229.155 170.666ZM229.191 173.225C228.936 174.038 228.339 174.453 227.95 174.322C227.56 174.191 227.337 173.506 227.523 172.73C227.587 172.49 227.707 172.267 227.872 172.08C228.037 171.893 228.243 171.746 228.474 171.652C228.556 171.599 228.652 171.573 228.75 171.578C228.85 171.621 228.939 171.687 229.009 171.771C229.079 171.854 229.129 171.952 229.154 172.058C229.289 172.433 229.302 172.842 229.191 173.225Z" fill="black"/>
<path d="M201.937 183.101L201.502 182.727C201.502 182.727 197.752 179.457 185.584 169.599C173.416 159.741 151.237 146.976 151.022 146.838L151.52 145.979C151.748 146.094 173.983 158.922 186.217 168.802C196.24 176.823 200.453 180.498 201.729 181.588C204.26 177.811 221.425 152.25 232.848 135.305C232.358 133.476 229.013 121.43 232.705 118.166C233.991 117.017 235.887 115.352 237.997 113.748C240.919 111.357 243.95 108.858 245.512 107.342C245.729 107.155 245.985 107.02 246.262 106.946C246.539 106.871 246.828 106.86 247.11 106.914C247.392 106.949 247.662 107.047 247.9 107.2C248.139 107.353 248.34 107.558 248.489 107.799C249.014 108.631 249.249 109.613 249.155 110.592C249.061 111.572 248.645 112.493 247.971 113.213L240.671 122.699C242.605 124.8 244.284 127.121 245.673 129.614L244.777 130.089C243.343 127.561 241.623 125.206 239.648 123.071L239.348 122.759L247.104 112.622C247.633 112.053 247.961 111.327 248.035 110.556C248.11 109.785 247.927 109.011 247.515 108.354C247.448 108.24 247.355 108.142 247.243 108.07C247.132 107.998 247.005 107.953 246.872 107.938C246.74 107.911 246.603 107.916 246.472 107.951C246.342 107.986 246.221 108.05 246.119 108.14C244.562 109.675 241.471 112.17 238.536 114.584C236.488 116.27 234.549 117.849 233.257 118.979C230.411 121.506 232.707 131.618 233.702 135.332L233.766 135.569L233.864 135.641C221.474 153.903 202.473 182.31 202.275 182.598L201.937 183.101Z" fill="black"/>
<path d="M240.018 169.406L239.062 169.074L248.709 140.428L248.929 140.369C251.633 139.211 254.079 137.529 256.126 135.421L256.88 136.102C254.791 138.271 252.292 140.007 249.528 141.209L240.018 169.406Z" fill="black"/>
<path d="M226.716 97.0379L225.923 97.6582L238.657 113.852L239.45 113.232L226.716 97.0379Z" fill="black"/>
<path d="M265.317 147.758L242.703 118.971L243.482 118.351L265.488 146.339L297.054 121.703L262.027 76.9284C260.759 75.314 258.9 74.2677 256.858 74.019C255.845 73.8776 254.815 73.9411 253.827 74.2058C252.839 74.4704 251.915 74.9308 251.109 75.5593L225.168 95.8443C225.013 95.9503 224.883 96.0888 224.787 96.25C224.69 96.4113 224.631 96.5914 224.612 96.7779C224.437 97.668 224.626 99.6959 227.598 103.664L229.774 101.866L230.413 102.636L227.432 105.101L227.108 104.698C224.391 101.171 223.222 98.4248 223.634 96.5103C223.683 96.2019 223.796 95.9071 223.967 95.6451C224.137 95.3831 224.362 95.1599 224.625 94.99L250.443 74.8358C251.353 74.1266 252.393 73.6029 253.506 73.2945C254.618 72.9861 255.78 72.8991 256.925 73.0384C258.07 73.1778 259.176 73.5407 260.18 74.1066C261.183 74.6724 262.064 75.43 262.773 76.3361L298.477 121.871L265.317 147.758Z" fill="black"/>
<path d="M114.976 125.809C113.14 126.301 111.556 125.019 110.512 122.299C108.916 118.177 108.875 110.972 112.054 109.395C112.594 109.102 113.192 108.932 113.806 108.896C114.419 108.861 115.032 108.961 115.602 109.189C117.022 110.003 118.08 111.325 118.561 112.887L117.587 113.148C117.152 111.856 116.266 110.765 115.09 110.072C114.652 109.908 114.184 109.842 113.717 109.879C113.251 109.916 112.798 110.055 112.391 110.285C110.016 111.412 109.806 117.9 111.355 121.916C111.855 123.194 112.949 125.294 114.66 124.776L114.925 125.764L114.976 125.809Z" fill="black"/>
<path d="M159.497 122.049L158.511 121.823C158.947 119.921 159.299 118.297 159.562 116.854C159.608 116.587 159.673 116.315 159.706 116.071C160.419 112.193 160.742 109.577 160.737 109.559C160.776 105.77 159.777 102.044 157.849 98.7826L158.717 98.2755C160.778 101.703 161.833 105.639 161.762 109.637C161.762 109.637 161.44 112.331 160.714 116.232C160.778 116.47 160.621 116.767 160.575 117.034C160.372 118.481 159.951 120.143 159.497 122.049Z" fill="black"/>
<path d="M141.403 150.021C140.294 150.355 139.121 150.414 137.985 150.192C119.613 147.153 119.313 126.859 119.263 126.677L120.264 126.663C120.313 126.846 120.623 146.294 138.117 149.215C138.245 149.181 149.459 151.804 157.897 123.717C157.525 123.822 157.131 123.824 156.758 123.724C156.385 123.624 156.046 123.425 155.777 123.148C155.425 122.8 155.203 122.344 155.146 121.853C155.09 121.362 155.203 120.866 155.466 120.447L156.291 121.03C156.16 121.258 156.111 121.525 156.152 121.785C156.193 122.045 156.322 122.283 156.517 122.46C157.188 123.201 158.481 122.443 158.481 122.443L159.582 121.776L159.223 123.009C153.231 143.694 145.701 148.869 141.403 150.021Z" fill="black"/>
<path d="M111.822 147.316L111.015 146.728C111.015 146.728 115.142 140.681 113.713 125.357L114.731 125.261C116.181 141.03 112.007 147.051 111.822 147.316Z" fill="black"/>
<path d="M136.848 137.648C128.827 131.954 128.592 125.35 128.597 125.074L129.598 125.061C129.598 125.061 129.827 131.353 137.453 136.82L136.848 137.648Z" fill="black"/>
<path d="M146.911 109.677C140.408 105.536 133.836 110.023 133.772 110.079L133.196 109.253C133.196 109.253 140.385 104.346 147.451 108.826L146.911 109.677Z" fill="black"/>
<path d="M144.574 116.897C143.864 115.127 138.696 114.354 135.596 114.244L135.64 113.232C136.535 113.267 144.357 113.661 145.485 116.477L144.574 116.897Z" fill="black"/>
<path d="M142.536 117.222L142.205 117.31C141.833 117.385 141.45 117.375 141.083 117.279C140.716 117.184 140.376 117.006 140.089 116.76C139.777 116.409 139.538 116 139.385 115.556C139.233 115.112 139.17 114.643 139.2 114.174L140.201 114.239C140.165 114.892 140.373 115.535 140.783 116.044C140.963 116.187 141.173 116.286 141.398 116.335C141.623 116.383 141.856 116.38 142.079 116.325C142.345 116.306 142.597 116.199 142.795 116.022C142.993 115.844 143.127 115.606 143.175 115.345L144.163 115.433C144.108 115.861 143.923 116.262 143.632 116.582C143.341 116.902 142.958 117.126 142.536 117.222Z" fill="black"/>
<path d="M158.791 122.424C157.843 121.911 156.833 121.523 155.785 121.268C155.259 121.124 154.701 121.156 154.195 121.361L153.706 120.492C154.41 120.147 155.216 120.071 155.972 120.277C157.115 120.547 158.219 120.963 159.256 121.515L158.791 122.424Z" fill="black"/>
<path d="M159.804 116.361C159.35 115.569 158.712 114.898 157.942 114.405C157.173 113.911 156.295 113.61 155.383 113.526L155.469 112.523C156.553 112.64 157.592 113.017 158.497 113.621C159.403 114.225 160.148 115.038 160.67 115.992L159.804 116.361Z" fill="black"/>
<path d="M115.081 120.251L114.084 120.204C114.248 119.004 114.081 117.784 113.603 116.672C113.125 115.56 112.353 114.6 111.369 113.892L111.886 113.028C113.034 113.821 113.94 114.915 114.503 116.19C115.067 117.464 115.267 118.869 115.081 120.251Z" fill="black"/>
<path d="M147.772 131.252C147.295 131.393 146.793 131.427 146.302 131.352L146.513 130.374C147.042 130.397 147.571 130.309 148.065 130.115C148.559 129.922 149.008 129.628 149.381 129.252C150.833 128.059 148.579 124.643 148.551 124.612L149.386 124.055C149.435 124.238 152.196 128.224 150.021 130.022C149.368 130.588 148.601 131.008 147.772 131.252Z" fill="black"/>
<path d="M122.118 112.281C120.71 112.684 119.24 112.825 117.782 112.698L117.872 111.712C120.698 111.975 125.419 111.082 131.755 105.345C133.961 103.349 136.015 101.193 137.901 98.8943C142.117 93.8425 142.754 93.5739 156.394 97.3902L158.53 98.0141C159.591 98.3768 160.58 98.7591 161.462 99.1892L161.057 100.102C160.208 99.7216 159.243 99.3526 158.227 99.0168C157.583 98.8168 156.893 98.59 156.097 98.4111C142.772 94.6674 142.532 94.9473 138.69 99.5651C136.815 101.889 134.768 104.07 132.565 106.089C129.634 108.962 126.05 111.087 122.118 112.281Z" fill="black"/>
<path d="M140.835 163.548L140.83 163.529L141.804 163.268L140.835 163.548Z" fill="black"/>
<path d="M80.2781 210.895C74.2161 206.636 67.5526 196.46 70.4878 172.888C71.6463 163.694 78.9872 155.609 86.759 147.075C95.881 137.042 106.186 125.692 107.644 110.712C110.34 82.8701 130.511 81.3087 130.723 81.2912C134.698 80.9317 138.696 80.9301 142.67 81.2863C148.729 81.8591 157.304 83.5225 163.155 88.4648C165.265 90.265 166.967 92.4919 168.147 94.9982C169.328 97.5045 169.961 100.233 170.004 103.004C170.299 108.807 168.295 111.834 160.711 117.102L160.296 117.39L159.757 116.554L160.136 116.276C167.355 111.263 169.269 108.416 168.995 103.058C168.951 100.422 168.343 97.826 167.213 95.4441C166.083 93.0622 164.455 90.9488 162.439 89.245C151.619 80.0846 131.043 82.2644 130.763 82.3199C127.107 82.7731 123.628 84.151 120.655 86.3225C115.913 89.7108 109.975 96.714 108.6 110.829C107.133 126.144 96.6685 137.557 87.4706 147.747C79.8812 156.154 72.5709 164.133 71.4491 173.022C70.1672 183.445 69.6392 202.117 80.8277 210.081L80.2781 210.895Z" fill="black"/>
<path d="M355.193 69.9825L303.933 69.9825L303.933 122L410.406 122L410.406 17.6602L357.029 17.6602L357.029 68.0958L357.029 69.9825L355.193 69.9825Z" fill="#00B7FF"/>
</svg>
