<svg width="261" height="102" viewBox="0 0 261 102" fill="none" xmlns="http://www.w3.org/2000/svg">
<rect x="1.16797" y="1" width="258" height="99.0682" rx="5.17211" fill="white" stroke="#D9D9D9" stroke-width="2"/>
<path d="M27.808 72.2743H89.7979C90.7114 72.2743 91.5882 71.9145 92.2351 71.2732C92.8822 70.6317 93.2464 69.7609 93.2464 68.8523V32.3526C93.2464 31.444 92.8822 30.5732 92.2351 29.9317C91.5882 29.2904 90.7114 28.9306 89.7979 28.9306H27.808C26.8945 28.9306 26.0177 29.2904 25.3707 29.9317C24.7236 30.5732 24.3595 31.444 24.3595 32.3526V68.8523C24.3595 69.7609 24.7236 70.6317 25.3707 71.2732C26.0177 71.9145 26.8945 72.2743 27.808 72.2743ZM26.7802 31.3384C27.0522 31.0688 27.4218 30.9167 27.808 30.9167H89.7979C90.184 30.9167 90.5537 31.0688 90.8257 31.3384C91.0976 31.608 91.2498 31.9729 91.2498 32.3526V68.8523C91.2498 69.232 91.0976 69.5969 90.8257 69.8665C90.5537 70.1362 90.184 70.2883 89.7979 70.2883H27.808C27.4218 70.2883 27.0522 70.1362 26.7802 69.8665C26.5082 69.5969 26.3561 69.232 26.3561 68.8523V32.3526C26.3561 31.9729 26.5082 31.608 26.7802 31.3384Z" fill="#253C8C" stroke="#253C8C" stroke-width="0.771513"/>
<path d="M35.9753 65.1922H43.5954C44.509 65.1922 45.3857 64.8325 46.0327 64.1911C46.6798 63.5496 47.0439 62.6789 47.0439 61.7702V58.8878C47.0439 57.9791 46.6798 57.1084 46.0327 56.4669C45.3857 55.8255 44.509 55.4658 43.5954 55.4658H35.9753C35.0618 55.4658 34.185 55.8255 33.5381 56.4669C32.891 57.1084 32.5268 57.9791 32.5268 58.8878V61.7702C32.5268 62.6789 32.891 63.5496 33.5381 64.1911C34.185 64.8325 35.0618 65.1922 35.9753 65.1922ZM34.9475 57.8736C35.2195 57.6039 35.5892 57.4518 35.9753 57.4518H43.5954C43.9816 57.4518 44.3512 57.6039 44.6233 57.8736C44.8952 58.1431 45.0473 58.508 45.0473 58.8878V61.7702C45.0473 62.15 44.8952 62.5149 44.6233 62.7844C44.3512 63.0541 43.9816 63.2062 43.5954 63.2062H35.9753C35.5892 63.2062 35.2195 63.0541 34.9475 62.7844C34.6756 62.5149 34.5235 62.15 34.5235 61.7702V58.8878C34.5235 58.508 34.6756 58.1431 34.9475 57.8736Z" fill="#253C8C" stroke="#253C8C" stroke-width="0.771513"/>
<path d="M92.2481 40.4676H26.3561V35.1667H92.2481C92.5118 35.1667 92.7653 35.0628 92.9528 34.877C93.1404 34.691 93.2464 34.4381 93.2464 34.1737C93.2464 33.9092 93.1404 33.6563 92.9528 33.4703C92.7653 33.2845 92.5118 33.1806 92.2481 33.1806H25.3578V33.1806L25.3528 33.1807C25.0915 33.1841 24.8412 33.2885 24.6554 33.4726C24.4695 33.6569 24.363 33.9066 24.3595 34.1686L24.3595 34.1686V34.1737V41.4606H24.3593L24.3596 41.4708C24.3665 41.7305 24.4745 41.9768 24.66 42.1583C24.8455 42.3396 25.0938 42.4422 25.3529 42.4455L25.3529 42.4455H25.3578H91.8623V42.4536H92.2481C92.5118 42.4536 92.7653 42.3498 92.9528 42.164C93.1404 41.978 93.2464 41.7251 93.2464 41.4606C93.2464 41.1962 93.1404 40.9432 92.9528 40.7573C92.7653 40.5714 92.5118 40.4676 92.2481 40.4676Z" fill="#253C8C" stroke="#253C8C" stroke-width="0.771513"/>
<path d="M85.5205 59.6227C85.333 59.4368 85.0794 59.333 84.8157 59.333H57.0469C56.7832 59.333 56.5296 59.4368 56.3422 59.6227C56.1546 59.8086 56.0486 60.0616 56.0486 60.326C56.0486 60.5904 56.1546 60.8434 56.3422 61.0293C56.5296 61.2152 56.7832 61.319 57.0469 61.319H84.8157C85.0794 61.319 85.333 61.2152 85.5205 61.0293C85.708 60.8434 85.814 60.5905 85.814 60.326C85.814 60.0615 85.708 59.8086 85.5205 59.6227ZM85.5205 59.6227L85.2494 59.8961L85.5205 59.6227C85.5205 59.6227 85.5205 59.6227 85.5205 59.6227Z" fill="#253C8C" stroke="#253C8C" stroke-width="0.771513"/>
<path d="M85.5205 56.3883C85.333 56.2024 85.0794 56.0986 84.8157 56.0986H57.0469C56.7832 56.0986 56.5296 56.2024 56.3422 56.3883C56.1546 56.5742 56.0486 56.8272 56.0486 57.0916C56.0486 57.3561 56.1546 57.609 56.3422 57.795C56.5296 57.9808 56.7832 58.0846 57.0469 58.0846H84.8157C85.0794 58.0846 85.333 57.9808 85.5205 57.795C85.708 57.609 85.814 57.3561 85.814 57.0916C85.814 56.8272 85.708 56.5742 85.5205 56.3883ZM85.5205 56.3883L85.2494 56.6617L85.5205 56.3883C85.5205 56.3883 85.5205 56.3883 85.5205 56.3883Z" fill="#253C8C" stroke="#253C8C" stroke-width="0.771513"/>
<path d="M163.322 38.1059C162.359 38.1059 161.495 37.9577 160.729 37.6615C159.964 37.3652 159.316 36.9332 158.785 36.3653C158.254 35.7852 157.847 35.0815 157.563 34.2545C157.279 33.4274 157.137 32.4769 157.137 31.403C157.137 30.329 157.298 29.3785 157.619 28.5514C157.952 27.7244 158.403 27.0269 158.97 26.4591C159.538 25.8789 160.205 25.4407 160.97 25.1444C161.735 24.8482 162.556 24.7001 163.433 24.7001C163.964 24.7001 164.445 24.7433 164.877 24.8297C165.309 24.9037 165.686 24.9901 166.007 25.0889C166.327 25.1877 166.593 25.2926 166.803 25.4037C167.013 25.5148 167.161 25.595 167.247 25.6444L166.562 27.5516C166.266 27.3664 165.84 27.1936 165.284 27.0331C164.741 26.8603 164.149 26.7739 163.507 26.7739C162.951 26.7739 162.433 26.8726 161.951 27.0701C161.47 27.2553 161.05 27.5392 160.692 27.9219C160.347 28.3046 160.075 28.786 159.878 29.3662C159.68 29.9463 159.581 30.6191 159.581 31.3844C159.581 32.0634 159.655 32.6868 159.804 33.2546C159.964 33.8224 160.205 34.3162 160.526 34.7359C160.847 35.1433 161.254 35.4642 161.748 35.6987C162.242 35.9209 162.834 36.032 163.525 36.032C164.352 36.032 165.025 35.9518 165.544 35.7913C166.062 35.6185 166.463 35.458 166.747 35.3099L167.377 37.2171C167.229 37.3158 167.025 37.4146 166.766 37.5133C166.519 37.6121 166.223 37.7109 165.877 37.8096C165.531 37.896 165.142 37.9639 164.71 38.0133C164.278 38.075 163.815 38.1059 163.322 38.1059ZM172.722 36.2542C173.414 36.2542 173.938 36.2172 174.296 36.1431V33.662C174.173 33.6249 173.994 33.5879 173.759 33.5509C173.525 33.5138 173.265 33.4953 172.982 33.4953C172.735 33.4953 172.482 33.5138 172.222 33.5509C171.976 33.5879 171.747 33.6558 171.537 33.7545C171.34 33.8533 171.179 33.9952 171.056 34.1804C170.932 34.3532 170.871 34.5754 170.871 34.847C170.871 35.3778 171.037 35.7481 171.371 35.958C171.704 36.1555 172.154 36.2542 172.722 36.2542ZM172.537 27.9034C173.278 27.9034 173.901 27.996 174.407 28.1811C174.913 28.3663 175.315 28.6255 175.611 28.9588C175.919 29.2921 176.136 29.6995 176.259 30.1809C176.395 30.65 176.463 31.1684 176.463 31.7363V37.6059C176.117 37.68 175.592 37.7664 174.889 37.8652C174.197 37.9763 173.414 38.0318 172.537 38.0318C171.957 38.0318 171.426 37.9763 170.945 37.8652C170.463 37.7541 170.05 37.5751 169.704 37.3282C169.371 37.0813 169.105 36.7604 168.908 36.3653C168.723 35.9703 168.63 35.4827 168.63 34.9025C168.63 34.3471 168.735 33.878 168.945 33.4953C169.167 33.1126 169.463 32.804 169.834 32.5695C170.204 32.3226 170.63 32.1498 171.111 32.051C171.605 31.9399 172.117 31.8844 172.648 31.8844C172.895 31.8844 173.154 31.9029 173.426 31.9399C173.698 31.9646 173.988 32.014 174.296 32.0881V31.7177C174.296 31.4585 174.265 31.2116 174.204 30.9771C174.142 30.7425 174.031 30.5389 173.87 30.366C173.722 30.1809 173.519 30.0389 173.259 29.9402C173.012 29.8414 172.698 29.792 172.315 29.792C171.797 29.792 171.321 29.8291 170.889 29.9031C170.457 29.9772 170.105 30.0636 169.834 30.1624L169.556 28.3478C169.84 28.249 170.253 28.1503 170.797 28.0515C171.34 27.9528 171.92 27.9034 172.537 27.9034ZM184.724 30.1624C184.539 30.1006 184.28 30.0389 183.947 29.9772C183.626 29.9031 183.249 29.8661 182.817 29.8661C182.57 29.8661 182.305 29.8908 182.021 29.9402C181.749 29.9895 181.558 30.0328 181.447 30.0698V37.8281H179.206V28.607C179.638 28.4465 180.175 28.2984 180.817 28.1626C181.472 28.0145 182.194 27.9404 182.984 27.9404C183.132 27.9404 183.305 27.9528 183.502 27.9774C183.7 27.9898 183.897 28.0145 184.095 28.0515C184.292 28.0762 184.484 28.1132 184.669 28.1626C184.854 28.1996 185.002 28.2367 185.113 28.2737L184.724 30.1624ZM186.563 25.5888L188.804 25.2185V28.1441H192.248V30.0142H188.804V33.9582C188.804 34.7359 188.927 35.2914 189.174 35.6247C189.421 35.958 189.841 36.1246 190.433 36.1246C190.841 36.1246 191.199 36.0814 191.507 35.995C191.828 35.9086 192.081 35.8284 192.266 35.7543L192.637 37.5319C192.377 37.643 192.038 37.7541 191.618 37.8652C191.199 37.9886 190.705 38.0503 190.137 38.0503C189.446 38.0503 188.865 37.9577 188.396 37.7726C187.94 37.5874 187.576 37.322 187.304 36.9764C187.032 36.6184 186.841 36.1925 186.73 35.6987C186.619 35.1926 186.563 34.6186 186.563 33.9767V25.5888ZM197.821 36.2542C198.512 36.2542 199.037 36.2172 199.395 36.1431V33.662C199.271 33.6249 199.092 33.5879 198.858 33.5509C198.623 33.5138 198.364 33.4953 198.08 33.4953C197.833 33.4953 197.58 33.5138 197.321 33.5509C197.074 33.5879 196.845 33.6558 196.636 33.7545C196.438 33.8533 196.278 33.9952 196.154 34.1804C196.031 34.3532 195.969 34.5754 195.969 34.847C195.969 35.3778 196.136 35.7481 196.469 35.958C196.802 36.1555 197.253 36.2542 197.821 36.2542ZM197.635 27.9034C198.376 27.9034 198.999 27.996 199.506 28.1811C200.012 28.3663 200.413 28.6255 200.709 28.9588C201.018 29.2921 201.234 29.6995 201.357 30.1809C201.493 30.65 201.561 31.1684 201.561 31.7363V37.6059C201.215 37.68 200.691 37.7664 199.987 37.8652C199.296 37.9763 198.512 38.0318 197.635 38.0318C197.055 38.0318 196.524 37.9763 196.043 37.8652C195.562 37.7541 195.148 37.5751 194.802 37.3282C194.469 37.0813 194.204 36.7604 194.006 36.3653C193.821 35.9703 193.729 35.4827 193.729 34.9025C193.729 34.3471 193.833 33.878 194.043 33.4953C194.265 33.1126 194.562 32.804 194.932 32.5695C195.302 32.3226 195.728 32.1498 196.21 32.051C196.703 31.9399 197.216 31.8844 197.747 31.8844C197.993 31.8844 198.253 31.9029 198.524 31.9399C198.796 31.9646 199.086 32.014 199.395 32.0881V31.7177C199.395 31.4585 199.364 31.2116 199.302 30.9771C199.24 30.7425 199.129 30.5389 198.969 30.366C198.821 30.1809 198.617 30.0389 198.358 29.9402C198.111 29.8414 197.796 29.792 197.413 29.792C196.895 29.792 196.42 29.8291 195.988 29.9031C195.555 29.9772 195.204 30.0636 194.932 30.1624L194.654 28.3478C194.938 28.249 195.352 28.1503 195.895 28.0515C196.438 27.9528 197.018 27.9034 197.635 27.9034ZM201.209 24.6815C201.135 24.8544 201.036 25.0457 200.913 25.2555C200.802 25.4531 200.66 25.6444 200.487 25.8296C200.314 26.0024 200.117 26.1505 199.894 26.2739C199.672 26.3974 199.425 26.4591 199.154 26.4591C198.932 26.4591 198.722 26.4282 198.524 26.3665C198.327 26.2925 198.129 26.2122 197.932 26.1258C197.747 26.0394 197.561 25.9653 197.376 25.9036C197.203 25.8295 197.031 25.7925 196.858 25.7925C196.623 25.7925 196.42 25.8728 196.247 26.0332C196.086 26.1937 195.957 26.3789 195.858 26.5887L194.728 25.9221C194.79 25.7493 194.877 25.5641 194.988 25.3666C195.111 25.1568 195.259 24.9655 195.432 24.7926C195.617 24.6075 195.821 24.4532 196.043 24.3297C196.265 24.2063 196.512 24.1446 196.784 24.1446C197.006 24.1446 197.216 24.1816 197.413 24.2557C197.611 24.3297 197.802 24.41 197.987 24.4964C198.185 24.5704 198.37 24.6445 198.543 24.7186C198.728 24.7926 198.907 24.8297 199.08 24.8297C199.314 24.8297 199.512 24.7494 199.672 24.589C199.845 24.4161 199.981 24.2248 200.08 24.0149L201.209 24.6815ZM213.063 32.9768C213.063 33.7422 212.952 34.4396 212.73 35.0692C212.507 35.6987 212.193 36.2357 211.785 36.6801C211.378 37.1245 210.884 37.4701 210.304 37.717C209.736 37.9639 209.107 38.0874 208.415 38.0874C207.724 38.0874 207.094 37.9639 206.527 37.717C205.959 37.4701 205.471 37.1245 205.064 36.6801C204.656 36.2357 204.336 35.6987 204.101 35.0692C203.879 34.4396 203.768 33.7422 203.768 32.9768C203.768 32.2115 203.879 31.5202 204.101 30.903C204.336 30.2735 204.656 29.7365 205.064 29.2921C205.484 28.8477 205.977 28.5082 206.545 28.2737C207.113 28.0268 207.736 27.9034 208.415 27.9034C209.094 27.9034 209.718 28.0268 210.285 28.2737C210.866 28.5082 211.359 28.8477 211.767 29.2921C212.174 29.7365 212.489 30.2735 212.711 30.903C212.946 31.5202 213.063 32.2115 213.063 32.9768ZM210.767 32.9768C210.767 32.014 210.557 31.2548 210.137 30.6993C209.73 30.1315 209.156 29.8476 208.415 29.8476C207.675 29.8476 207.094 30.1315 206.675 30.6993C206.267 31.2548 206.064 32.014 206.064 32.9768C206.064 33.952 206.267 34.7236 206.675 35.2914C207.094 35.8592 207.675 36.1431 208.415 36.1431C209.156 36.1431 209.73 35.8592 210.137 35.2914C210.557 34.7236 210.767 33.952 210.767 32.9768Z" fill="black"/>
<path d="M159.569 69.4826C159.118 69.4826 158.708 69.4086 158.337 69.2604C157.967 69.1123 157.649 68.8963 157.384 68.6124C157.118 68.3284 156.912 67.9797 156.763 67.5662C156.622 67.1465 156.551 66.6681 156.551 66.1312C156.551 65.5942 156.631 65.1189 156.791 64.7054C156.958 64.2857 157.18 63.9339 157.458 63.65C157.736 63.3661 158.06 63.15 158.43 63.0019C158.8 62.8538 159.195 62.7797 159.615 62.7797C159.88 62.7797 160.118 62.7982 160.328 62.8353C160.544 62.8723 160.729 62.9155 160.883 62.9649C161.044 63.0143 161.173 63.0636 161.272 63.113C161.371 63.1624 161.439 63.1994 161.476 63.2241L161.217 63.9648C161.161 63.9277 161.081 63.8876 160.976 63.8444C160.871 63.8012 160.751 63.758 160.615 63.7148C160.485 63.6716 160.34 63.6376 160.18 63.6129C160.025 63.5821 159.868 63.5667 159.708 63.5667C159.368 63.5667 159.063 63.6253 158.791 63.7426C158.519 63.8598 158.288 64.0296 158.097 64.2518C157.905 64.474 157.757 64.7455 157.652 65.0665C157.553 65.3813 157.504 65.7362 157.504 66.1312C157.504 66.5138 157.547 66.8626 157.634 67.1773C157.726 67.4921 157.862 67.7637 158.041 67.9921C158.22 68.2143 158.442 68.3871 158.708 68.5105C158.979 68.634 159.294 68.6957 159.652 68.6957C160.066 68.6957 160.408 68.6525 160.68 68.5661C160.951 68.4797 161.155 68.4025 161.291 68.3346L161.522 69.0753C161.479 69.1061 161.402 69.1462 161.291 69.1956C161.18 69.2388 161.041 69.282 160.874 69.3252C160.707 69.3684 160.513 69.4055 160.291 69.4363C160.069 69.4672 159.828 69.4826 159.569 69.4826ZM166.609 66.9366C166.609 67.3193 166.554 67.6649 166.443 67.9735C166.331 68.2821 166.174 68.5475 165.97 68.7697C165.773 68.9919 165.535 69.1648 165.258 69.2882C164.98 69.4055 164.677 69.4641 164.35 69.4641C164.023 69.4641 163.721 69.4055 163.443 69.2882C163.165 69.1648 162.924 68.9919 162.721 68.7697C162.523 68.5475 162.369 68.2821 162.258 67.9735C162.147 67.6649 162.091 67.3193 162.091 66.9366C162.091 66.5601 162.147 66.2176 162.258 65.909C162.369 65.5942 162.523 65.3257 162.721 65.1035C162.924 64.8813 163.165 64.7116 163.443 64.5943C163.721 64.4709 164.023 64.4092 164.35 64.4092C164.677 64.4092 164.98 64.4709 165.258 64.5943C165.535 64.7116 165.773 64.8813 165.97 65.1035C166.174 65.3257 166.331 65.5942 166.443 65.909C166.554 66.2176 166.609 66.5601 166.609 66.9366ZM165.711 66.9366C165.711 66.3935 165.588 65.9645 165.341 65.6497C165.1 65.3288 164.77 65.1683 164.35 65.1683C163.931 65.1683 163.597 65.3288 163.35 65.6497C163.11 65.9645 162.989 66.3935 162.989 66.9366C162.989 67.4798 163.11 67.9118 163.35 68.2328C163.597 68.5475 163.931 68.7049 164.35 68.7049C164.77 68.7049 165.1 68.5475 165.341 68.2328C165.588 67.9118 165.711 67.4798 165.711 66.9366ZM167.821 64.6684C168.018 64.619 168.28 64.5665 168.608 64.511C168.935 64.4554 169.311 64.4277 169.737 64.4277C170.12 64.4277 170.438 64.4832 170.691 64.5943C170.944 64.6992 171.144 64.8505 171.292 65.048C171.447 65.2393 171.555 65.4708 171.616 65.7423C171.678 66.0139 171.709 66.3132 171.709 66.6404V69.3438H170.848V66.8255C170.848 66.5293 170.826 66.2762 170.783 66.0664C170.746 65.8565 170.681 65.6868 170.589 65.5572C170.496 65.4275 170.373 65.335 170.218 65.2794C170.064 65.2177 169.873 65.1868 169.644 65.1868C169.552 65.1868 169.456 65.1899 169.357 65.1961C169.259 65.2023 169.163 65.2115 169.07 65.2239C168.984 65.23 168.904 65.2393 168.83 65.2516C168.762 65.264 168.712 65.2732 168.682 65.2794V69.3438H167.821V64.6684ZM174.257 68.7235C174.609 68.7235 174.868 68.6772 175.035 68.5846C175.208 68.492 175.294 68.3439 175.294 68.1402C175.294 67.9303 175.211 67.7637 175.044 67.6402C174.877 67.5168 174.603 67.3779 174.22 67.2236C174.035 67.1496 173.856 67.0755 173.683 67.0014C173.516 66.9212 173.371 66.8286 173.248 66.7237C173.124 66.6188 173.026 66.4922 172.952 66.3441C172.878 66.196 172.841 66.0139 172.841 65.7979C172.841 65.372 172.998 65.0356 173.313 64.7887C173.627 64.5357 174.056 64.4092 174.6 64.4092C174.735 64.4092 174.871 64.4184 175.007 64.4369C175.143 64.4493 175.269 64.4678 175.387 64.4925C175.504 64.511 175.606 64.5326 175.692 64.5573C175.785 64.582 175.856 64.6036 175.905 64.6221L175.748 65.3627C175.655 65.3134 175.51 65.264 175.312 65.2146C175.115 65.1591 174.877 65.1313 174.6 65.1313C174.359 65.1313 174.149 65.1807 173.97 65.2794C173.791 65.372 173.702 65.5201 173.702 65.7238C173.702 65.8287 173.72 65.9213 173.757 66.0016C173.8 66.0818 173.862 66.1559 173.942 66.2238C174.029 66.2855 174.134 66.3441 174.257 66.3997C174.38 66.4552 174.529 66.5138 174.701 66.5756C174.93 66.662 175.133 66.7484 175.312 66.8348C175.491 66.915 175.643 67.0107 175.766 67.1218C175.896 67.2329 175.994 67.3687 176.062 67.5292C176.13 67.6835 176.164 67.8748 176.164 68.1032C176.164 68.5475 175.998 68.8839 175.664 69.1123C175.337 69.3407 174.868 69.4548 174.257 69.4548C173.831 69.4548 173.498 69.4178 173.257 69.3438C173.016 69.2759 172.853 69.2234 172.766 69.1864L172.924 68.4457C173.023 68.4827 173.18 68.5383 173.396 68.6124C173.612 68.6864 173.899 68.7235 174.257 68.7235ZM181.101 69.2049C180.904 69.2543 180.642 69.3067 180.315 69.3623C179.994 69.4178 179.62 69.4456 179.194 69.4456C178.824 69.4456 178.512 69.3931 178.259 69.2882C178.006 69.1771 177.803 69.0228 177.648 68.8253C177.494 68.6278 177.383 68.3963 177.315 68.1309C177.247 67.8594 177.213 67.56 177.213 67.2329V64.5295H178.074V67.0477C178.074 67.6341 178.167 68.0538 178.352 68.3068C178.537 68.5599 178.849 68.6864 179.287 68.6864C179.379 68.6864 179.475 68.6833 179.574 68.6772C179.673 68.671 179.765 68.6648 179.852 68.6586C179.938 68.6463 180.015 68.637 180.083 68.6309C180.157 68.6185 180.21 68.6062 180.24 68.5938V64.5295H181.101V69.2049ZM184.029 69.4363C183.498 69.424 183.122 69.3098 182.9 69.0938C182.677 68.8778 182.566 68.5414 182.566 68.0846V62.3075L183.427 62.1594V67.9458C183.427 68.0877 183.44 68.205 183.464 68.2976C183.489 68.3902 183.529 68.4642 183.585 68.5198C183.64 68.5753 183.714 68.6185 183.807 68.6494C183.899 68.6741 184.014 68.6957 184.149 68.7142L184.029 69.4363ZM185.922 64.5295H187.746V65.2516H185.922V67.4736C185.922 67.7143 185.94 67.9149 185.977 68.0754C186.014 68.2297 186.07 68.3531 186.144 68.4457C186.218 68.5321 186.311 68.5938 186.422 68.6309C186.533 68.6679 186.662 68.6864 186.811 68.6864C187.07 68.6864 187.277 68.6586 187.431 68.6031C187.591 68.5414 187.702 68.4982 187.764 68.4735L187.931 69.1864C187.844 69.2296 187.693 69.282 187.477 69.3438C187.261 69.4116 187.014 69.4456 186.737 69.4456C186.409 69.4456 186.138 69.4055 185.922 69.3252C185.712 69.2388 185.542 69.1123 185.413 68.9456C185.283 68.779 185.19 68.5753 185.135 68.3346C185.085 68.0877 185.061 67.8038 185.061 67.4829V63.1871L185.922 63.0389V64.5295ZM188.482 66.9459C188.482 66.52 188.544 66.1497 188.668 65.8349C188.791 65.514 188.955 65.2486 189.158 65.0387C189.362 64.8289 189.596 64.6715 189.862 64.5665C190.127 64.4616 190.399 64.4092 190.677 64.4092C191.325 64.4092 191.822 64.6128 192.167 65.0202C192.513 65.4214 192.686 66.0355 192.686 66.8626C192.686 66.8996 192.686 66.949 192.686 67.0107C192.686 67.0662 192.683 67.1187 192.676 67.1681H189.38C189.417 67.668 189.563 68.0476 189.816 68.3068C190.069 68.5661 190.464 68.6957 191.001 68.6957C191.303 68.6957 191.556 68.671 191.76 68.6216C191.97 68.5661 192.127 68.5136 192.232 68.4642L192.352 69.1864C192.247 69.2419 192.062 69.3005 191.797 69.3623C191.538 69.424 191.241 69.4548 190.908 69.4548C190.488 69.4548 190.124 69.3931 189.816 69.2697C189.513 69.1401 189.263 68.9642 189.066 68.742C188.868 68.5198 188.72 68.2575 188.621 67.955C188.529 67.6464 188.482 67.31 188.482 66.9459ZM191.788 66.4737C191.794 66.0849 191.695 65.767 191.491 65.5201C191.294 65.2671 191.019 65.1405 190.667 65.1405C190.47 65.1405 190.294 65.1807 190.14 65.2609C189.992 65.335 189.865 65.4337 189.76 65.5572C189.655 65.6806 189.572 65.8226 189.51 65.983C189.455 66.1435 189.417 66.3071 189.399 66.4737H191.788ZM197.695 68.7235C197.898 68.7235 198.077 68.7204 198.232 68.7142C198.392 68.7019 198.525 68.6833 198.63 68.6586V67.2236C198.568 67.1928 198.466 67.1681 198.324 67.1496C198.188 67.1249 198.022 67.1125 197.824 67.1125C197.695 67.1125 197.556 67.1218 197.408 67.1403C197.266 67.1588 197.133 67.1989 197.01 67.2607C196.892 67.3162 196.794 67.3965 196.713 67.5014C196.633 67.6001 196.593 67.7328 196.593 67.8995C196.593 68.2081 196.692 68.4241 196.889 68.5475C197.087 68.6648 197.355 68.7235 197.695 68.7235ZM197.621 64.4092C197.966 64.4092 198.256 64.4554 198.491 64.548C198.732 64.6344 198.923 64.761 199.065 64.9276C199.213 65.0881 199.318 65.2825 199.38 65.5109C199.441 65.7331 199.472 65.98 199.472 66.2515V69.2604C199.398 69.2728 199.293 69.2913 199.157 69.316C199.028 69.3345 198.88 69.353 198.713 69.3715C198.546 69.39 198.364 69.4055 198.167 69.4178C197.975 69.4363 197.784 69.4456 197.593 69.4456C197.321 69.4456 197.071 69.4178 196.843 69.3623C196.615 69.3067 196.417 69.2203 196.25 69.103C196.084 68.9796 195.954 68.8191 195.862 68.6216C195.769 68.4241 195.723 68.1865 195.723 67.9087C195.723 67.6433 195.775 67.415 195.88 67.2236C195.991 67.0323 196.139 66.878 196.324 66.7607C196.51 66.6435 196.726 66.557 196.973 66.5015C197.219 66.4459 197.479 66.4182 197.75 66.4182C197.837 66.4182 197.926 66.4243 198.019 66.4367C198.111 66.4429 198.198 66.4552 198.278 66.4737C198.364 66.4861 198.438 66.4984 198.5 66.5108C198.562 66.5231 198.605 66.5324 198.63 66.5385V66.2978C198.63 66.1559 198.614 66.017 198.583 65.8812C198.553 65.7392 198.497 65.6158 198.417 65.5109C198.337 65.3998 198.225 65.3134 198.083 65.2516C197.948 65.1838 197.769 65.1498 197.547 65.1498C197.263 65.1498 197.013 65.1714 196.797 65.2146C196.587 65.2516 196.429 65.2918 196.324 65.335L196.223 64.6221C196.334 64.5727 196.519 64.5264 196.778 64.4832C197.037 64.4338 197.318 64.4092 197.621 64.4092ZM204.924 62.1594C205.177 62.1594 205.393 62.1779 205.572 62.215C205.758 62.252 205.887 62.2859 205.961 62.3168L205.804 63.0575C205.73 63.0204 205.625 62.9865 205.489 62.9556C205.353 62.9186 205.187 62.9001 204.989 62.9001C204.588 62.9001 204.307 63.0112 204.147 63.2334C203.986 63.4494 203.906 63.7426 203.906 64.1129V64.5295H205.758V65.2516H203.906V69.3438H203.045V64.0944C203.045 63.4772 203.196 63.0019 203.499 62.6686C203.801 62.3292 204.276 62.1594 204.924 62.1594ZM208.246 68.7235C208.449 68.7235 208.628 68.7204 208.783 68.7142C208.943 68.7019 209.076 68.6833 209.181 68.6586V67.2236C209.119 67.1928 209.017 67.1681 208.875 67.1496C208.739 67.1249 208.573 67.1125 208.375 67.1125C208.246 67.1125 208.107 67.1218 207.959 67.1403C207.817 67.1588 207.684 67.1989 207.561 67.2607C207.443 67.3162 207.345 67.3965 207.264 67.5014C207.184 67.6001 207.144 67.7328 207.144 67.8995C207.144 68.2081 207.243 68.4241 207.44 68.5475C207.638 68.6648 207.906 68.7235 208.246 68.7235ZM208.172 64.4092C208.517 64.4092 208.807 64.4554 209.042 64.548C209.283 64.6344 209.474 64.761 209.616 64.9276C209.764 65.0881 209.869 65.2825 209.931 65.5109C209.992 65.7331 210.023 65.98 210.023 66.2515V69.2604C209.949 69.2728 209.844 69.2913 209.708 69.316C209.579 69.3345 209.431 69.353 209.264 69.3715C209.097 69.39 208.915 69.4055 208.718 69.4178C208.527 69.4363 208.335 69.4456 208.144 69.4456C207.872 69.4456 207.622 69.4178 207.394 69.3623C207.166 69.3067 206.968 69.2203 206.801 69.103C206.635 68.9796 206.505 68.8191 206.413 68.6216C206.32 68.4241 206.274 68.1865 206.274 67.9087C206.274 67.6433 206.326 67.415 206.431 67.2236C206.542 67.0323 206.69 66.878 206.875 66.7607C207.061 66.6435 207.277 66.557 207.524 66.5015C207.77 66.4459 208.03 66.4182 208.301 66.4182C208.388 66.4182 208.477 66.4243 208.57 66.4367C208.662 66.4429 208.749 66.4552 208.829 66.4737C208.915 66.4861 208.989 66.4984 209.051 66.5108C209.113 66.5231 209.156 66.5324 209.181 66.5385V66.2978C209.181 66.1559 209.165 66.017 209.134 65.8812C209.104 65.7392 209.048 65.6158 208.968 65.5109C208.888 65.3998 208.777 65.3134 208.635 65.2516C208.499 65.1838 208.32 65.1498 208.098 65.1498C207.814 65.1498 207.564 65.1714 207.348 65.2146C207.138 65.2516 206.98 65.2918 206.875 65.335L206.774 64.6221C206.885 64.5727 207.07 64.5264 207.329 64.4832C207.588 64.4338 207.869 64.4092 208.172 64.4092ZM212.259 64.5295H214.083V65.2516H212.259V67.4736C212.259 67.7143 212.277 67.9149 212.314 68.0754C212.351 68.2297 212.407 68.3531 212.481 68.4457C212.555 68.5321 212.648 68.5938 212.759 68.6309C212.87 68.6679 212.999 68.6864 213.148 68.6864C213.407 68.6864 213.614 68.6586 213.768 68.6031C213.928 68.5414 214.039 68.4982 214.101 68.4735L214.268 69.1864C214.181 69.2296 214.03 69.282 213.814 69.3438C213.598 69.4116 213.351 69.4456 213.073 69.4456C212.746 69.4456 212.475 69.4055 212.259 69.3252C212.049 69.2388 211.879 69.1123 211.75 68.9456C211.62 68.779 211.527 68.5753 211.472 68.3346C211.422 68.0877 211.398 67.8038 211.398 67.4829V63.1871L212.259 63.0389V64.5295ZM219.011 69.2049C218.814 69.2543 218.551 69.3067 218.224 69.3623C217.903 69.4178 217.53 69.4456 217.104 69.4456C216.734 69.4456 216.422 69.3931 216.169 69.2882C215.916 69.1771 215.712 69.0228 215.558 68.8253C215.404 68.6278 215.292 68.3963 215.225 68.1309C215.157 67.8594 215.123 67.56 215.123 67.2329V64.5295H215.984V67.0477C215.984 67.6341 216.076 68.0538 216.261 68.3068C216.447 68.5599 216.758 68.6864 217.197 68.6864C217.289 68.6864 217.385 68.6833 217.484 68.6772C217.582 68.671 217.675 68.6648 217.761 68.6586C217.848 68.6463 217.925 68.637 217.993 68.6309C218.067 68.6185 218.119 68.6062 218.15 68.5938V64.5295H219.011V69.2049ZM222.272 64.4277C222.346 64.4277 222.429 64.4338 222.522 64.4462C222.621 64.4524 222.716 64.4647 222.809 64.4832C222.902 64.4956 222.985 64.511 223.059 64.5295C223.139 64.5419 223.198 64.5542 223.235 64.5665L223.087 65.3165C223.019 65.2918 222.905 65.264 222.744 65.2331C222.59 65.1961 222.389 65.1776 222.142 65.1776C221.982 65.1776 221.821 65.1961 221.661 65.2331C221.507 65.264 221.405 65.2856 221.355 65.2979V69.3438H220.494V64.7332C220.698 64.6591 220.951 64.5912 221.254 64.5295C221.556 64.4616 221.896 64.4277 222.272 64.4277ZM225.695 68.7235C225.899 68.7235 226.078 68.7204 226.232 68.7142C226.393 68.7019 226.525 68.6833 226.63 68.6586V67.2236C226.569 67.1928 226.467 67.1681 226.325 67.1496C226.189 67.1249 226.022 67.1125 225.825 67.1125C225.695 67.1125 225.556 67.1218 225.408 67.1403C225.266 67.1588 225.134 67.1989 225.01 67.2607C224.893 67.3162 224.794 67.3965 224.714 67.5014C224.634 67.6001 224.593 67.7328 224.593 67.8995C224.593 68.2081 224.692 68.4241 224.89 68.5475C225.087 68.6648 225.356 68.7235 225.695 68.7235ZM225.621 64.4092C225.967 64.4092 226.257 64.4554 226.491 64.548C226.732 64.6344 226.923 64.761 227.065 64.9276C227.214 65.0881 227.318 65.2825 227.38 65.5109C227.442 65.7331 227.473 65.98 227.473 66.2515V69.2604C227.399 69.2728 227.294 69.2913 227.158 69.316C227.028 69.3345 226.88 69.353 226.714 69.3715C226.547 69.39 226.365 69.4055 226.167 69.4178C225.976 69.4363 225.785 69.4456 225.593 69.4456C225.322 69.4456 225.072 69.4178 224.843 69.3623C224.615 69.3067 224.418 69.2203 224.251 69.103C224.084 68.9796 223.955 68.8191 223.862 68.6216C223.769 68.4241 223.723 68.1865 223.723 67.9087C223.723 67.6433 223.776 67.415 223.881 67.2236C223.992 67.0323 224.14 66.878 224.325 66.7607C224.51 66.6435 224.726 66.557 224.973 66.5015C225.22 66.4459 225.479 66.4182 225.751 66.4182C225.837 66.4182 225.927 66.4243 226.019 66.4367C226.112 66.4429 226.198 66.4552 226.278 66.4737C226.365 66.4861 226.439 66.4984 226.501 66.5108C226.562 66.5231 226.606 66.5324 226.63 66.5385V66.2978C226.63 66.1559 226.615 66.017 226.584 65.8812C226.553 65.7392 226.498 65.6158 226.417 65.5109C226.337 65.3998 226.226 65.3134 226.084 65.2516C225.948 65.1838 225.769 65.1498 225.547 65.1498C225.263 65.1498 225.013 65.1714 224.797 65.2146C224.587 65.2516 224.43 65.2918 224.325 65.335L224.223 64.6221C224.334 64.5727 224.519 64.5264 224.779 64.4832C225.038 64.4338 225.319 64.4092 225.621 64.4092ZM159.865 76.5479C159.76 76.4615 159.609 76.3782 159.411 76.2979C159.214 76.2177 158.998 76.1776 158.763 76.1776C158.516 76.1776 158.303 76.2239 158.124 76.3165C157.952 76.4029 157.81 76.5263 157.699 76.6868C157.587 76.8411 157.507 77.0262 157.458 77.2423C157.408 77.4583 157.384 77.6897 157.384 77.9366C157.384 78.4983 157.523 78.9334 157.8 79.242C158.078 79.5445 158.448 79.6957 158.911 79.6957C159.146 79.6957 159.34 79.6864 159.495 79.6679C159.655 79.6432 159.779 79.6185 159.865 79.5938V76.5479ZM159.865 73.3075L160.726 73.1594V80.2049C160.528 80.2604 160.275 80.316 159.967 80.3715C159.658 80.4271 159.303 80.4548 158.902 80.4548C158.532 80.4548 158.198 80.3962 157.902 80.2789C157.606 80.1617 157.353 79.995 157.143 79.779C156.933 79.563 156.77 79.3007 156.652 78.9921C156.541 78.6773 156.486 78.3255 156.486 77.9366C156.486 77.5663 156.532 77.2268 156.625 76.9182C156.723 76.6096 156.865 76.3442 157.05 76.122C157.236 75.8998 157.461 75.727 157.726 75.6036C157.998 75.4801 158.306 75.4184 158.652 75.4184C158.93 75.4184 159.174 75.4554 159.384 75.5295C159.6 75.6036 159.76 75.6746 159.865 75.7424V73.3075ZM166.456 77.9366C166.456 78.3193 166.4 78.6649 166.289 78.9735C166.178 79.2821 166.02 79.5475 165.817 79.7697C165.619 79.9919 165.382 80.1648 165.104 80.2882C164.826 80.4055 164.524 80.4641 164.197 80.4641C163.869 80.4641 163.567 80.4055 163.289 80.2882C163.011 80.1648 162.771 79.9919 162.567 79.7697C162.37 79.5475 162.215 79.2821 162.104 78.9735C161.993 78.6649 161.938 78.3193 161.938 77.9366C161.938 77.5601 161.993 77.2176 162.104 76.909C162.215 76.5942 162.37 76.3257 162.567 76.1035C162.771 75.8813 163.011 75.7116 163.289 75.5943C163.567 75.4709 163.869 75.4092 164.197 75.4092C164.524 75.4092 164.826 75.4709 165.104 75.5943C165.382 75.7116 165.619 75.8813 165.817 76.1035C166.02 76.3257 166.178 76.5942 166.289 76.909C166.4 77.2176 166.456 77.5601 166.456 77.9366ZM165.557 77.9366C165.557 77.3935 165.434 76.9645 165.187 76.6497C164.946 76.3288 164.616 76.1683 164.197 76.1683C163.777 76.1683 163.444 76.3288 163.197 76.6497C162.956 76.9645 162.836 77.3935 162.836 77.9366C162.836 78.4798 162.956 78.9118 163.197 79.2328C163.444 79.5475 163.777 79.7049 164.197 79.7049C164.616 79.7049 164.946 79.5475 165.187 79.2328C165.434 78.9118 165.557 78.4798 165.557 77.9366ZM170.93 79.7235C171.282 79.7235 171.541 79.6772 171.708 79.5846C171.88 79.492 171.967 79.3439 171.967 79.1402C171.967 78.9303 171.883 78.7637 171.717 78.6402C171.55 78.5168 171.276 78.3779 170.893 78.2236C170.708 78.1496 170.529 78.0755 170.356 78.0014C170.189 77.9212 170.044 77.8286 169.921 77.7237C169.797 77.6188 169.699 77.4922 169.624 77.3441C169.55 77.196 169.513 77.0139 169.513 76.7979C169.513 76.372 169.671 76.0356 169.986 75.7887C170.3 75.5357 170.729 75.4092 171.272 75.4092C171.408 75.4092 171.544 75.4184 171.68 75.4369C171.816 75.4493 171.942 75.4678 172.059 75.4925C172.177 75.511 172.278 75.5326 172.365 75.5573C172.457 75.582 172.528 75.6036 172.578 75.6221L172.42 76.3627C172.328 76.3134 172.183 76.264 171.985 76.2146C171.788 76.1591 171.55 76.1313 171.272 76.1313C171.032 76.1313 170.822 76.1807 170.643 76.2794C170.464 76.372 170.374 76.5201 170.374 76.7238C170.374 76.8287 170.393 76.9213 170.43 77.0016C170.473 77.0818 170.535 77.1559 170.615 77.2238C170.702 77.2855 170.806 77.3441 170.93 77.3997C171.053 77.4552 171.201 77.5138 171.374 77.5756C171.603 77.662 171.806 77.7484 171.985 77.8348C172.164 77.915 172.316 78.0107 172.439 78.1218C172.569 78.2329 172.667 78.3687 172.735 78.5292C172.803 78.6835 172.837 78.8748 172.837 79.1032C172.837 79.5475 172.67 79.8839 172.337 80.1123C172.01 80.3407 171.541 80.4548 170.93 80.4548C170.504 80.4548 170.171 80.4178 169.93 80.3438C169.689 80.2759 169.526 80.2234 169.439 80.1864L169.597 79.4457C169.695 79.4827 169.853 79.5383 170.069 79.6124C170.285 79.6864 170.572 79.7235 170.93 79.7235ZM173.673 77.9459C173.673 77.52 173.735 77.1497 173.858 76.8349C173.982 76.514 174.145 76.2486 174.349 76.0387C174.553 75.8289 174.787 75.6715 175.052 75.5665C175.318 75.4616 175.589 75.4092 175.867 75.4092C176.515 75.4092 177.012 75.6128 177.358 76.0202C177.703 76.4214 177.876 77.0355 177.876 77.8626C177.876 77.8996 177.876 77.949 177.876 78.0107C177.876 78.0662 177.873 78.1187 177.867 78.1681H174.571C174.608 78.668 174.753 79.0476 175.006 79.3068C175.259 79.5661 175.654 79.6957 176.191 79.6957C176.494 79.6957 176.747 79.671 176.95 79.6216C177.16 79.5661 177.318 79.5136 177.423 79.4642L177.543 80.1864C177.438 80.2419 177.253 80.3005 176.987 80.3623C176.728 80.424 176.432 80.4548 176.099 80.4548C175.679 80.4548 175.315 80.3931 175.006 80.2697C174.704 80.1401 174.454 79.9642 174.256 79.742C174.059 79.5198 173.911 79.2575 173.812 78.955C173.719 78.6464 173.673 78.31 173.673 77.9459ZM176.978 77.4737C176.984 77.0849 176.886 76.767 176.682 76.5201C176.484 76.2671 176.21 76.1405 175.858 76.1405C175.66 76.1405 175.484 76.1807 175.33 76.2609C175.182 76.335 175.056 76.4337 174.951 76.5572C174.846 76.6806 174.762 76.8226 174.701 76.983C174.645 77.1435 174.608 77.3071 174.59 77.4737H176.978ZM182.946 80.2049C182.748 80.2543 182.486 80.3067 182.159 80.3623C181.838 80.4178 181.465 80.4456 181.039 80.4456C180.668 80.4456 180.357 80.3931 180.104 80.2882C179.851 80.1771 179.647 80.0228 179.493 79.8253C179.338 79.6278 179.227 79.3963 179.159 79.1309C179.091 78.8594 179.057 78.56 179.057 78.2329V75.5295H179.918V78.0477C179.918 78.6341 180.011 79.0538 180.196 79.3068C180.381 79.5599 180.693 79.6864 181.131 79.6864C181.224 79.6864 181.32 79.6833 181.418 79.6772C181.517 79.671 181.61 79.6648 181.696 79.6586C181.782 79.6463 181.86 79.637 181.928 79.6309C182.002 79.6185 182.054 79.6062 182.085 79.5938V75.5295H182.946V80.2049ZM188.664 80.4548C188.275 80.4548 187.933 80.3931 187.637 80.2697C187.347 80.1462 187.1 79.9734 186.896 79.7512C186.699 79.529 186.55 79.2667 186.452 78.9643C186.353 78.6557 186.303 78.3162 186.303 77.9459C186.303 77.5756 186.356 77.2361 186.461 76.9275C186.572 76.6189 186.726 76.3535 186.924 76.1313C187.121 75.9029 187.362 75.727 187.646 75.6036C187.936 75.474 188.257 75.4092 188.609 75.4092C188.825 75.4092 189.041 75.4277 189.257 75.4647C189.473 75.5017 189.68 75.5604 189.877 75.6406L189.683 76.372C189.553 76.3103 189.402 76.2609 189.229 76.2239C189.062 76.1868 188.883 76.1683 188.692 76.1683C188.211 76.1683 187.84 76.3195 187.581 76.622C187.328 76.9244 187.202 77.3657 187.202 77.9459C187.202 78.2051 187.229 78.4427 187.285 78.6588C187.347 78.8748 187.439 79.06 187.563 79.2143C187.692 79.3686 187.856 79.4889 188.053 79.5753C188.251 79.6556 188.492 79.6957 188.775 79.6957C189.004 79.6957 189.211 79.6741 189.396 79.6309C189.581 79.5877 189.726 79.5414 189.831 79.492L189.951 80.2141C189.902 80.245 189.831 80.2759 189.738 80.3067C189.646 80.3314 189.541 80.353 189.423 80.3715C189.306 80.3962 189.18 80.4147 189.044 80.4271C188.914 80.4456 188.788 80.4548 188.664 80.4548ZM192.505 79.7235C192.709 79.7235 192.888 79.7204 193.042 79.7142C193.202 79.7019 193.335 79.6833 193.44 79.6586V78.2236C193.378 78.1928 193.277 78.1681 193.135 78.1496C192.999 78.1249 192.832 78.1125 192.635 78.1125C192.505 78.1125 192.366 78.1218 192.218 78.1403C192.076 78.1588 191.943 78.1989 191.82 78.2607C191.703 78.3162 191.604 78.3965 191.524 78.5014C191.443 78.6001 191.403 78.7328 191.403 78.8995C191.403 79.2081 191.502 79.4241 191.7 79.5475C191.897 79.6648 192.166 79.7235 192.505 79.7235ZM192.431 75.4092C192.777 75.4092 193.067 75.4554 193.301 75.548C193.542 75.6344 193.733 75.761 193.875 75.9276C194.023 76.0881 194.128 76.2825 194.19 76.5109C194.252 76.7331 194.283 76.98 194.283 77.2515V80.2604C194.209 80.2728 194.104 80.2913 193.968 80.316C193.838 80.3345 193.69 80.353 193.523 80.3715C193.357 80.39 193.175 80.4055 192.977 80.4178C192.786 80.4363 192.595 80.4456 192.403 80.4456C192.132 80.4456 191.882 80.4178 191.653 80.3623C191.425 80.3067 191.227 80.2203 191.061 80.103C190.894 79.9796 190.764 79.8191 190.672 79.6216C190.579 79.4241 190.533 79.1865 190.533 78.9087C190.533 78.6433 190.585 78.415 190.69 78.2236C190.802 78.0323 190.95 77.878 191.135 77.7607C191.32 77.6435 191.536 77.557 191.783 77.5015C192.03 77.4459 192.289 77.4182 192.561 77.4182C192.647 77.4182 192.736 77.4243 192.829 77.4367C192.922 77.4429 193.008 77.4552 193.088 77.4737C193.175 77.4861 193.249 77.4984 193.31 77.5108C193.372 77.5231 193.415 77.5324 193.44 77.5385V77.2978C193.44 77.1559 193.425 77.017 193.394 76.8812C193.363 76.7392 193.307 76.6158 193.227 76.5109C193.147 76.3998 193.036 76.3134 192.894 76.2516C192.758 76.1838 192.579 76.1498 192.357 76.1498C192.073 76.1498 191.823 76.1714 191.607 76.2146C191.397 76.2516 191.24 76.2918 191.135 76.335L191.033 75.6221C191.144 75.5727 191.329 75.5264 191.588 75.4832C191.848 75.4338 192.129 75.4092 192.431 75.4092ZM197.49 75.4277C197.564 75.4277 197.648 75.4338 197.74 75.4462C197.839 75.4524 197.935 75.4647 198.027 75.4832C198.12 75.4956 198.203 75.511 198.277 75.5295C198.357 75.5419 198.416 75.5542 198.453 75.5665L198.305 76.3165C198.237 76.2918 198.123 76.264 197.962 76.2331C197.808 76.1961 197.607 76.1776 197.361 76.1776C197.2 76.1776 197.04 76.1961 196.879 76.2331C196.725 76.264 196.623 76.2856 196.574 76.2979V80.3438H195.713V75.7332C195.916 75.6591 196.169 75.5912 196.472 75.5295C196.774 75.4616 197.114 75.4277 197.49 75.4277ZM200.089 75.5295H201.913V76.2516H200.089V78.4736C200.089 78.7143 200.108 78.9149 200.145 79.0754C200.182 79.2297 200.237 79.3531 200.312 79.4457C200.386 79.5321 200.478 79.5938 200.589 79.6309C200.7 79.6679 200.83 79.6864 200.978 79.6864C201.237 79.6864 201.444 79.6586 201.598 79.6031C201.759 79.5414 201.87 79.4982 201.932 79.4735L202.098 80.1864C202.012 80.2296 201.861 80.282 201.645 80.3438C201.429 80.4116 201.182 80.4456 200.904 80.4456C200.577 80.4456 200.305 80.4055 200.089 80.3252C199.879 80.2388 199.71 80.1123 199.58 79.9456C199.451 79.779 199.358 79.5753 199.302 79.3346C199.253 79.0877 199.228 78.8038 199.228 78.4829V74.1871L200.089 74.0389V75.5295ZM204.638 79.7235C204.842 79.7235 205.021 79.7204 205.175 79.7142C205.336 79.7019 205.468 79.6833 205.573 79.6586V78.2236C205.512 78.1928 205.41 78.1681 205.268 78.1496C205.132 78.1249 204.965 78.1125 204.768 78.1125C204.638 78.1125 204.499 78.1218 204.351 78.1403C204.209 78.1588 204.077 78.1989 203.953 78.2607C203.836 78.3162 203.737 78.3965 203.657 78.5014C203.577 78.6001 203.537 78.7328 203.537 78.8995C203.537 79.2081 203.635 79.4241 203.833 79.5475C204.03 79.6648 204.299 79.7235 204.638 79.7235ZM204.564 75.4092C204.91 75.4092 205.2 75.4554 205.434 75.548C205.675 75.6344 205.867 75.761 206.008 75.9276C206.157 76.0881 206.262 76.2825 206.323 76.5109C206.385 76.7331 206.416 76.98 206.416 77.2515V80.2604C206.342 80.2728 206.237 80.2913 206.101 80.316C205.971 80.3345 205.823 80.353 205.657 80.3715C205.49 80.39 205.308 80.4055 205.11 80.4178C204.919 80.4363 204.728 80.4456 204.536 80.4456C204.265 80.4456 204.015 80.4178 203.787 80.3623C203.558 80.3067 203.361 80.2203 203.194 80.103C203.027 79.9796 202.898 79.8191 202.805 79.6216C202.713 79.4241 202.666 79.1865 202.666 78.9087C202.666 78.6433 202.719 78.415 202.824 78.2236C202.935 78.0323 203.083 77.878 203.268 77.7607C203.453 77.6435 203.669 77.557 203.916 77.5015C204.163 77.4459 204.422 77.4182 204.694 77.4182C204.78 77.4182 204.87 77.4243 204.962 77.4367C205.055 77.4429 205.141 77.4552 205.222 77.4737C205.308 77.4861 205.382 77.4984 205.444 77.5108C205.505 77.5231 205.549 77.5324 205.573 77.5385V77.2978C205.573 77.1559 205.558 77.017 205.527 76.8812C205.496 76.7392 205.441 76.6158 205.36 76.5109C205.28 76.3998 205.169 76.3134 205.027 76.2516C204.891 76.1838 204.712 76.1498 204.49 76.1498C204.206 76.1498 203.956 76.1714 203.74 76.2146C203.53 76.2516 203.373 76.2918 203.268 76.335L203.166 75.6221C203.277 75.5727 203.462 75.5264 203.722 75.4832C203.981 75.4338 204.262 75.4092 204.564 75.4092ZM206.231 73.7612C206.2 73.8353 206.157 73.9217 206.101 74.0204C206.052 74.1192 205.987 74.2118 205.907 74.2982C205.826 74.3784 205.731 74.4494 205.62 74.5111C205.515 74.5667 205.397 74.5944 205.268 74.5944C205.144 74.5944 205.027 74.5728 204.916 74.5296C204.811 74.4864 204.709 74.4401 204.61 74.3908C204.506 74.3414 204.416 74.3043 204.342 74.2797C204.268 74.255 204.197 74.2426 204.129 74.2426C204.024 74.2426 203.925 74.2858 203.833 74.3722C203.746 74.4586 203.679 74.5512 203.629 74.65L203.185 74.4278C203.209 74.3537 203.25 74.2673 203.305 74.1686C203.361 74.0698 203.429 73.9803 203.509 73.9001C203.589 73.8137 203.682 73.7427 203.787 73.6871C203.898 73.6254 204.018 73.5946 204.148 73.5946C204.271 73.5946 204.385 73.6162 204.49 73.6594C204.601 73.7026 204.706 73.7489 204.805 73.7982C204.91 73.8476 204.999 73.8846 205.073 73.9093C205.147 73.934 205.218 73.9464 205.286 73.9464C205.391 73.9464 205.487 73.9032 205.573 73.8167C205.666 73.7303 205.737 73.6378 205.786 73.539L206.231 73.7612ZM212.095 77.9366C212.095 78.3193 212.04 78.6649 211.929 78.9735C211.818 79.2821 211.66 79.5475 211.457 79.7697C211.259 79.9919 211.021 80.1648 210.744 80.2882C210.466 80.4055 210.163 80.4641 209.836 80.4641C209.509 80.4641 209.207 80.4055 208.929 80.2882C208.651 80.1648 208.411 79.9919 208.207 79.7697C208.009 79.5475 207.855 79.2821 207.744 78.9735C207.633 78.6649 207.577 78.3193 207.577 77.9366C207.577 77.5601 207.633 77.2176 207.744 76.909C207.855 76.5942 208.009 76.3257 208.207 76.1035C208.411 75.8813 208.651 75.7116 208.929 75.5943C209.207 75.4709 209.509 75.4092 209.836 75.4092C210.163 75.4092 210.466 75.4709 210.744 75.5943C211.021 75.7116 211.259 75.8813 211.457 76.1035C211.66 76.3257 211.818 76.5942 211.929 76.909C212.04 77.2176 212.095 77.5601 212.095 77.9366ZM211.197 77.9366C211.197 77.3935 211.074 76.9645 210.827 76.6497C210.586 76.3288 210.256 76.1683 209.836 76.1683C209.417 76.1683 209.083 76.3288 208.836 76.6497C208.596 76.9645 208.475 77.3935 208.475 77.9366C208.475 78.4798 208.596 78.9118 208.836 79.2328C209.083 79.5475 209.417 79.7049 209.836 79.7049C210.256 79.7049 210.586 79.5475 210.827 79.2328C211.074 78.9118 211.197 78.4798 211.197 77.9366ZM214.325 79.8438C214.325 80.0105 214.27 80.1555 214.158 80.2789C214.047 80.4024 213.896 80.4641 213.705 80.4641C213.513 80.4641 213.362 80.4024 213.251 80.2789C213.14 80.1555 213.085 80.0105 213.085 79.8438C213.085 79.6772 213.14 79.5321 213.251 79.4087C213.362 79.2852 213.513 79.2235 213.705 79.2235C213.896 79.2235 214.047 79.2852 214.158 79.4087C214.27 79.5321 214.325 79.6772 214.325 79.8438Z" fill="black"/>
</svg>
