<svg width="291" height="113" viewBox="0 0 291 113" fill="none" xmlns="http://www.w3.org/2000/svg">
<rect x="1.16797" y="1" width="288.695" height="111" rx="5.90076" fill="white" stroke="#D9D9D9" stroke-width="2"/>
<mask id="path-2-outside-1_213_286" maskUnits="userSpaceOnUse" x="29.7701" y="20.5625" width="74" height="71" fill="black">
<rect fill="white" x="29.7701" y="20.5625" width="74" height="71"/>
<path d="M87.725 72.5681C84.8215 72.5681 81.9832 71.7017 79.569 70.0786C77.1548 68.4554 75.2732 66.1483 74.1621 63.449C73.051 60.7497 72.7602 57.7795 73.3267 54.914C73.8931 52.0485 75.2913 49.4163 77.3444 47.3504C79.3975 45.2844 82.0133 43.8775 84.861 43.3075C87.7087 42.7375 90.6605 43.0301 93.343 44.1481C96.0255 45.2662 98.3182 47.1596 99.9313 49.5889C101.544 52.0182 102.405 54.8742 102.405 57.7959C102.4 61.7121 100.852 65.4664 98.0998 68.2356C95.3479 71.0048 91.6169 72.5628 87.725 72.5681ZM87.725 44.5219C85.116 44.5219 82.5655 45.3004 80.3962 46.7589C78.2269 48.2175 76.5361 50.2906 75.5376 52.7162C74.5392 55.1417 74.278 57.8106 74.787 60.3855C75.296 62.9604 76.5523 65.3256 78.3972 67.1821C80.2421 69.0385 82.5926 70.3027 85.1515 70.8149C87.7104 71.327 90.3628 71.0642 92.7732 70.0595C95.1836 69.0548 97.2439 67.3535 98.6934 65.1706C100.143 62.9877 100.917 60.4213 100.917 57.7959C100.903 54.2822 99.5085 50.9167 97.0366 48.4349C94.5647 45.9532 91.2169 44.5571 87.725 44.5518V44.5219Z"/>
<path d="M91.7748 66.6452C90.3211 67.3949 88.7027 67.7625 87.0699 67.7139C85.9921 67.7343 84.9216 67.5317 83.9248 67.1187C82.928 66.7057 82.0261 66.091 81.2751 65.3128C80.5241 64.5346 79.9399 63.6095 79.5588 62.5948C79.1777 61.5801 79.0079 60.4974 79.0597 59.4139C79.0597 53.9305 82.8316 49.1962 88.7077 49.1962C89.7267 49.1468 90.7447 49.3115 91.697 49.6798C92.6492 50.0481 93.5148 50.612 94.2385 51.3356C94.9622 52.0591 95.5282 52.9264 95.9004 53.8822C96.2726 54.838 96.4428 55.8613 96.4003 56.887C96.4003 60.8822 94.1769 63.2193 91.6954 63.2193C91.4027 63.2239 91.1126 63.1633 90.846 63.0418C90.5793 62.9203 90.3426 62.741 90.1529 62.5167C89.9632 62.2923 89.8251 62.0286 89.7486 61.7443C89.6721 61.46 89.6589 61.1622 89.7102 60.8722H89.6308C89.2899 61.574 88.7606 62.1658 88.1028 62.5806C87.445 62.9954 86.6849 63.2167 85.9086 63.2193C84.3701 63.2193 83.0499 61.9609 83.0499 59.8634C83.0446 59.0316 83.2036 58.2071 83.5175 57.4376C83.8313 56.6682 84.2939 55.9691 84.8784 55.3809C85.4629 54.7928 86.1577 54.3273 86.9224 54.0114C87.687 53.6956 88.5064 53.5357 89.333 53.541C90.3045 53.5264 91.2682 53.7169 92.1619 54.1003L91.2686 58.9145C90.8715 60.9121 91.1892 61.9109 92.0527 61.9109C93.4026 61.9109 94.9114 60.1331 94.9114 57.0368C94.9114 53.1814 92.6086 50.4147 88.5191 50.4147C84.2013 50.4147 80.5784 53.8506 80.5784 59.2541C80.5784 63.6988 83.4668 66.4355 87.3776 66.4355C88.7457 66.4657 90.0998 66.1534 91.3182 65.5266L91.7748 66.6452ZM90.3256 55.1491C89.8966 55.0246 89.4519 54.9641 89.0055 54.9693C86.6828 54.9693 84.8068 57.1766 84.8068 59.7535C84.8068 60.9321 85.3825 61.7511 86.5538 61.7511C88.0824 61.7511 89.5315 59.7535 89.7698 58.1255L90.3256 55.1491Z"/>
<path d="M65.0939 90.5466C58.8406 90.5466 53.1828 85.3828 49.5102 76.3736C47.0096 69.9206 45.7661 63.0437 45.8476 56.118C45.7661 49.1922 47.0096 42.3153 49.5102 35.8624C53.163 26.8732 58.8406 21.6894 65.0939 21.6894C71.3472 21.6894 77.005 26.8532 80.6776 35.8624C81.8194 38.694 82.6838 41.6311 83.2583 44.6318C83.2742 44.8175 83.2216 45.0025 83.1107 45.1517C82.9997 45.3009 82.8381 45.4038 82.6566 45.4408C82.4751 45.4778 82.2864 45.4464 82.1265 45.3524C81.9665 45.2585 81.8465 45.1087 81.7893 44.9314C81.2324 42.022 80.4015 39.1726 79.3078 36.4217C75.933 28.1317 70.6227 23.1876 65.0939 23.1876C59.5652 23.1876 54.2548 28.1317 50.88 36.4217C48.4648 42.7006 47.2621 49.3855 47.3365 56.118C47.2621 62.8504 48.4648 69.5353 50.88 75.8143C54.2548 84.1043 59.5652 89.0484 65.0939 89.0484C70.6227 89.0484 75.933 84.1043 79.3078 75.8143C80.0262 74.0225 80.6231 72.1839 81.0945 70.3109C81.148 70.1198 81.273 69.9569 81.4432 69.8563C81.6134 69.7558 81.8157 69.7254 82.0077 69.7715C82.199 69.8232 82.3625 69.9485 82.4628 70.1205C82.5631 70.2924 82.5921 70.4971 82.5437 70.6904C82.0474 72.6243 81.424 74.5229 80.6776 76.3736C77.0249 85.3828 71.3472 90.5466 65.0939 90.5466Z"/>
<path d="M65.0939 90.6564C64.8973 90.6538 64.7094 90.5741 64.5704 90.4341C64.4313 90.2942 64.3521 90.1052 64.3495 89.9073V22.3286C64.3495 22.1299 64.4279 21.9394 64.5675 21.7989C64.7071 21.6584 64.8965 21.5795 65.0939 21.5795C65.2914 21.5795 65.4807 21.6584 65.6203 21.7989C65.7599 21.9394 65.8384 22.1299 65.8384 22.3286V89.9073C65.8358 90.1052 65.7565 90.2942 65.6175 90.4341C65.4784 90.5741 65.2906 90.6538 65.0939 90.6564Z"/>
<path d="M73.8883 56.8671H31.5146C31.3171 56.8671 31.1278 56.7882 30.9882 56.6477C30.8486 56.5072 30.7701 56.3167 30.7701 56.118C30.7701 55.9193 30.8486 55.7288 30.9882 55.5883C31.1278 55.4478 31.3171 55.3689 31.5146 55.3689H73.8883C74.0857 55.3689 74.2751 55.4478 74.4147 55.5883C74.5543 55.7288 74.6327 55.9193 74.6327 56.118C74.6327 56.3167 74.5543 56.5072 74.4147 56.6477C74.2751 56.7882 74.0857 56.8671 73.8883 56.8671Z"/>
<path d="M92.1718 76.8429H38.0161C37.8186 76.8429 37.6293 76.764 37.4896 76.6235C37.35 76.483 37.2716 76.2925 37.2716 76.0938C37.2716 75.8951 37.35 75.7046 37.4896 75.5641C37.6293 75.4236 37.8186 75.3447 38.0161 75.3447H92.1718C92.3693 75.3447 92.5586 75.4236 92.6982 75.5641C92.8378 75.7046 92.9163 75.8951 92.9163 76.0938C92.9163 76.2925 92.8378 76.483 92.6982 76.6235C92.5586 76.764 92.3693 76.8429 92.1718 76.8429Z"/>
<path d="M92.1718 36.8911H38.0161C37.8186 36.8911 37.6293 36.8122 37.4896 36.6717C37.35 36.5312 37.2716 36.3407 37.2716 36.142C37.2716 35.9433 37.35 35.7528 37.4896 35.6123C37.6293 35.4718 37.8186 35.3929 38.0161 35.3929H92.1718C92.3693 35.3929 92.5586 35.4718 92.6982 35.6123C92.8378 35.7528 92.9163 35.9433 92.9163 36.142C92.9163 36.3407 92.8378 36.5312 92.6982 36.6717C92.5586 36.8122 92.3693 36.8911 92.1718 36.8911Z"/>
<path d="M65.0939 90.6564C59.7025 90.6458 54.3892 89.3603 49.5823 86.9036C44.7753 84.4469 40.6095 80.8878 37.4207 76.5134C33.1004 70.5943 30.7706 63.442 30.7706 56.0979C30.7706 48.7539 33.1004 41.6016 37.4207 35.6825C40.6064 31.3064 44.7722 27.7475 49.5802 25.2942C54.3883 22.841 59.7032 21.5625 65.0941 21.5625C70.485 21.5625 75.7999 22.841 80.608 25.2942C85.416 27.7475 89.5818 31.3064 92.7675 35.6825C95.4242 39.3039 97.3435 43.4178 98.4154 47.7879C98.4606 47.9812 98.4287 48.1846 98.3267 48.3545C98.2246 48.5244 98.0605 48.6473 97.8695 48.6968C97.6774 48.7423 97.4753 48.7103 97.3065 48.6076C97.1376 48.5049 97.0155 48.3397 96.9662 48.1475C95.4649 42.0501 92.2672 36.5097 87.7481 32.1758C83.229 27.8419 77.5758 24.8942 71.4511 23.6782C65.3265 22.4621 58.9842 23.0282 53.1679 25.31C47.3516 27.5918 42.3022 31.4948 38.6118 36.5614C34.4844 42.2286 32.2592 49.0719 32.2592 56.0979C32.2592 63.124 34.4844 69.9673 38.6118 75.6344C42.066 80.3622 46.7082 84.0799 52.0619 86.4062C57.4155 88.7324 63.2879 89.5833 69.0764 88.8717C74.8648 88.16 80.3608 85.9113 85.0004 82.3564C89.6399 78.8015 93.256 74.0684 95.4773 68.6428C95.5152 68.55 95.5712 68.4658 95.642 68.3952C95.7128 68.3245 95.797 68.2689 95.8896 68.2317C95.9821 68.1944 96.0812 68.1762 96.1809 68.1782C96.2806 68.1802 96.3789 68.2024 96.4699 68.2433C96.5631 68.2803 96.6477 68.336 96.7187 68.407C96.7897 68.4781 96.8455 68.563 96.8826 68.6565C96.9198 68.75 96.9376 68.8502 96.9349 68.9509C96.9322 69.0517 96.9091 69.1507 96.8669 69.2421C95.8023 71.826 94.4255 74.2682 92.7675 76.5134C89.5787 80.8878 85.4129 84.4469 80.6059 86.9036C75.799 89.3603 70.4853 90.6458 65.0939 90.6564Z"/>
</mask>
<path d="M87.725 72.5681C84.8215 72.5681 81.9832 71.7017 79.569 70.0786C77.1548 68.4554 75.2732 66.1483 74.1621 63.449C73.051 60.7497 72.7602 57.7795 73.3267 54.914C73.8931 52.0485 75.2913 49.4163 77.3444 47.3504C79.3975 45.2844 82.0133 43.8775 84.861 43.3075C87.7087 42.7375 90.6605 43.0301 93.343 44.1481C96.0255 45.2662 98.3182 47.1596 99.9313 49.5889C101.544 52.0182 102.405 54.8742 102.405 57.7959C102.4 61.7121 100.852 65.4664 98.0998 68.2356C95.3479 71.0048 91.6169 72.5628 87.725 72.5681ZM87.725 44.5219C85.116 44.5219 82.5655 45.3004 80.3962 46.7589C78.2269 48.2175 76.5361 50.2906 75.5376 52.7162C74.5392 55.1417 74.278 57.8106 74.787 60.3855C75.296 62.9604 76.5523 65.3256 78.3972 67.1821C80.2421 69.0385 82.5926 70.3027 85.1515 70.8149C87.7104 71.327 90.3628 71.0642 92.7732 70.0595C95.1836 69.0548 97.2439 67.3535 98.6934 65.1706C100.143 62.9877 100.917 60.4213 100.917 57.7959C100.903 54.2822 99.5085 50.9167 97.0366 48.4349C94.5647 45.9532 91.2169 44.5571 87.725 44.5518V44.5219Z" fill="#253C8C"/>
<path d="M91.7748 66.6452C90.3211 67.3949 88.7027 67.7625 87.0699 67.7139C85.9921 67.7343 84.9216 67.5317 83.9248 67.1187C82.928 66.7057 82.0261 66.091 81.2751 65.3128C80.5241 64.5346 79.9399 63.6095 79.5588 62.5948C79.1777 61.5801 79.0079 60.4974 79.0597 59.4139C79.0597 53.9305 82.8316 49.1962 88.7077 49.1962C89.7267 49.1468 90.7447 49.3115 91.697 49.6798C92.6492 50.0481 93.5148 50.612 94.2385 51.3356C94.9622 52.0591 95.5282 52.9264 95.9004 53.8822C96.2726 54.838 96.4428 55.8613 96.4003 56.887C96.4003 60.8822 94.1769 63.2193 91.6954 63.2193C91.4027 63.2239 91.1126 63.1633 90.846 63.0418C90.5793 62.9203 90.3426 62.741 90.1529 62.5167C89.9632 62.2923 89.8251 62.0286 89.7486 61.7443C89.6721 61.46 89.6589 61.1622 89.7102 60.8722H89.6308C89.2899 61.574 88.7606 62.1658 88.1028 62.5806C87.445 62.9954 86.6849 63.2167 85.9086 63.2193C84.3701 63.2193 83.0499 61.9609 83.0499 59.8634C83.0446 59.0316 83.2036 58.2071 83.5175 57.4376C83.8313 56.6682 84.2939 55.9691 84.8784 55.3809C85.4629 54.7928 86.1577 54.3273 86.9224 54.0114C87.687 53.6956 88.5064 53.5357 89.333 53.541C90.3045 53.5264 91.2682 53.7169 92.1619 54.1003L91.2686 58.9145C90.8715 60.9121 91.1892 61.9109 92.0527 61.9109C93.4026 61.9109 94.9114 60.1331 94.9114 57.0368C94.9114 53.1814 92.6086 50.4147 88.5191 50.4147C84.2013 50.4147 80.5784 53.8506 80.5784 59.2541C80.5784 63.6988 83.4668 66.4355 87.3776 66.4355C88.7457 66.4657 90.0998 66.1534 91.3182 65.5266L91.7748 66.6452ZM90.3256 55.1491C89.8966 55.0246 89.4519 54.9641 89.0055 54.9693C86.6828 54.9693 84.8068 57.1766 84.8068 59.7535C84.8068 60.9321 85.3825 61.7511 86.5538 61.7511C88.0824 61.7511 89.5315 59.7535 89.7698 58.1255L90.3256 55.1491Z" fill="#253C8C"/>
<path d="M65.0939 90.5466C58.8406 90.5466 53.1828 85.3828 49.5102 76.3736C47.0096 69.9206 45.7661 63.0437 45.8476 56.118C45.7661 49.1922 47.0096 42.3153 49.5102 35.8624C53.163 26.8732 58.8406 21.6894 65.0939 21.6894C71.3472 21.6894 77.005 26.8532 80.6776 35.8624C81.8194 38.694 82.6838 41.6311 83.2583 44.6318C83.2742 44.8175 83.2216 45.0025 83.1107 45.1517C82.9997 45.3009 82.8381 45.4038 82.6566 45.4408C82.4751 45.4778 82.2864 45.4464 82.1265 45.3524C81.9665 45.2585 81.8465 45.1087 81.7893 44.9314C81.2324 42.022 80.4015 39.1726 79.3078 36.4217C75.933 28.1317 70.6227 23.1876 65.0939 23.1876C59.5652 23.1876 54.2548 28.1317 50.88 36.4217C48.4648 42.7006 47.2621 49.3855 47.3365 56.118C47.2621 62.8504 48.4648 69.5353 50.88 75.8143C54.2548 84.1043 59.5652 89.0484 65.0939 89.0484C70.6227 89.0484 75.933 84.1043 79.3078 75.8143C80.0262 74.0225 80.6231 72.1839 81.0945 70.3109C81.148 70.1198 81.273 69.9569 81.4432 69.8563C81.6134 69.7558 81.8157 69.7254 82.0077 69.7715C82.199 69.8232 82.3625 69.9485 82.4628 70.1205C82.5631 70.2924 82.5921 70.4971 82.5437 70.6904C82.0474 72.6243 81.424 74.5229 80.6776 76.3736C77.0249 85.3828 71.3472 90.5466 65.0939 90.5466Z" fill="#253C8C"/>
<path d="M65.0939 90.6564C64.8973 90.6538 64.7094 90.5741 64.5704 90.4341C64.4313 90.2942 64.3521 90.1052 64.3495 89.9073V22.3286C64.3495 22.1299 64.4279 21.9394 64.5675 21.7989C64.7071 21.6584 64.8965 21.5795 65.0939 21.5795C65.2914 21.5795 65.4807 21.6584 65.6203 21.7989C65.7599 21.9394 65.8384 22.1299 65.8384 22.3286V89.9073C65.8358 90.1052 65.7565 90.2942 65.6175 90.4341C65.4784 90.5741 65.2906 90.6538 65.0939 90.6564Z" fill="#253C8C"/>
<path d="M73.8883 56.8671H31.5146C31.3171 56.8671 31.1278 56.7882 30.9882 56.6477C30.8486 56.5072 30.7701 56.3167 30.7701 56.118C30.7701 55.9193 30.8486 55.7288 30.9882 55.5883C31.1278 55.4478 31.3171 55.3689 31.5146 55.3689H73.8883C74.0857 55.3689 74.2751 55.4478 74.4147 55.5883C74.5543 55.7288 74.6327 55.9193 74.6327 56.118C74.6327 56.3167 74.5543 56.5072 74.4147 56.6477C74.2751 56.7882 74.0857 56.8671 73.8883 56.8671Z" fill="#253C8C"/>
<path d="M92.1718 76.8429H38.0161C37.8186 76.8429 37.6293 76.764 37.4896 76.6235C37.35 76.483 37.2716 76.2925 37.2716 76.0938C37.2716 75.8951 37.35 75.7046 37.4896 75.5641C37.6293 75.4236 37.8186 75.3447 38.0161 75.3447H92.1718C92.3693 75.3447 92.5586 75.4236 92.6982 75.5641C92.8378 75.7046 92.9163 75.8951 92.9163 76.0938C92.9163 76.2925 92.8378 76.483 92.6982 76.6235C92.5586 76.764 92.3693 76.8429 92.1718 76.8429Z" fill="#253C8C"/>
<path d="M92.1718 36.8911H38.0161C37.8186 36.8911 37.6293 36.8122 37.4896 36.6717C37.35 36.5312 37.2716 36.3407 37.2716 36.142C37.2716 35.9433 37.35 35.7528 37.4896 35.6123C37.6293 35.4718 37.8186 35.3929 38.0161 35.3929H92.1718C92.3693 35.3929 92.5586 35.4718 92.6982 35.6123C92.8378 35.7528 92.9163 35.9433 92.9163 36.142C92.9163 36.3407 92.8378 36.5312 92.6982 36.6717C92.5586 36.8122 92.3693 36.8911 92.1718 36.8911Z" fill="#253C8C"/>
<path d="M65.0939 90.6564C59.7025 90.6458 54.3892 89.3603 49.5823 86.9036C44.7753 84.4469 40.6095 80.8878 37.4207 76.5134C33.1004 70.5943 30.7706 63.442 30.7706 56.0979C30.7706 48.7539 33.1004 41.6016 37.4207 35.6825C40.6064 31.3064 44.7722 27.7475 49.5802 25.2942C54.3883 22.841 59.7032 21.5625 65.0941 21.5625C70.485 21.5625 75.7999 22.841 80.608 25.2942C85.416 27.7475 89.5818 31.3064 92.7675 35.6825C95.4242 39.3039 97.3435 43.4178 98.4154 47.7879C98.4606 47.9812 98.4287 48.1846 98.3267 48.3545C98.2246 48.5244 98.0605 48.6473 97.8695 48.6968C97.6774 48.7423 97.4753 48.7103 97.3065 48.6076C97.1376 48.5049 97.0155 48.3397 96.9662 48.1475C95.4649 42.0501 92.2672 36.5097 87.7481 32.1758C83.229 27.8419 77.5758 24.8942 71.4511 23.6782C65.3265 22.4621 58.9842 23.0282 53.1679 25.31C47.3516 27.5918 42.3022 31.4948 38.6118 36.5614C34.4844 42.2286 32.2592 49.0719 32.2592 56.0979C32.2592 63.124 34.4844 69.9673 38.6118 75.6344C42.066 80.3622 46.7082 84.0799 52.0619 86.4062C57.4155 88.7324 63.2879 89.5833 69.0764 88.8717C74.8648 88.16 80.3608 85.9113 85.0004 82.3564C89.6399 78.8015 93.256 74.0684 95.4773 68.6428C95.5152 68.55 95.5712 68.4658 95.642 68.3952C95.7128 68.3245 95.797 68.2689 95.8896 68.2317C95.9821 68.1944 96.0812 68.1762 96.1809 68.1782C96.2806 68.1802 96.3789 68.2024 96.4699 68.2433C96.5631 68.2803 96.6477 68.336 96.7187 68.407C96.7897 68.4781 96.8455 68.563 96.8826 68.6565C96.9198 68.75 96.9376 68.8502 96.9349 68.9509C96.9322 69.0517 96.9091 69.1507 96.8669 69.2421C95.8023 71.826 94.4255 74.2682 92.7675 76.5134C89.5787 80.8878 85.4129 84.4469 80.6059 86.9036C75.799 89.3603 70.4853 90.6458 65.0939 90.6564Z" fill="#253C8C"/>
<path d="M87.725 72.5681V73.4307L87.7262 73.4307L87.725 72.5681ZM102.405 57.7959L103.268 57.7971V57.7959H102.405ZM87.725 44.5219H88.5876V43.6593H87.725V44.5219ZM100.917 57.7959H101.779L101.779 57.7927L100.917 57.7959ZM87.725 44.5518H86.8624V45.4131L87.7237 45.4144L87.725 44.5518ZM91.7748 66.6452L92.1702 67.4119L92.8717 67.0501L92.5734 66.3192L91.7748 66.6452ZM87.0699 67.7139L87.0956 66.8517L87.0746 66.8511L87.0536 66.8515L87.0699 67.7139ZM79.0597 59.4139L79.9213 59.4552L79.9223 59.4345V59.4139H79.0597ZM88.7077 49.1962V50.0588H88.7286L88.7495 50.0578L88.7077 49.1962ZM96.4003 56.887L95.5384 56.8512L95.5377 56.8691V56.887H96.4003ZM91.6954 63.2193V62.3566L91.682 62.3568L91.6954 63.2193ZM89.7102 60.8722L90.5596 61.0223L90.7387 60.0096H89.7102V60.8722ZM89.6308 60.8722V60.0096H89.0908L88.8549 60.4953L89.6308 60.8722ZM85.9086 63.2193V64.0819L85.9116 64.0819L85.9086 63.2193ZM83.0499 59.8634H83.9125L83.9125 59.8579L83.0499 59.8634ZM89.333 53.541L89.3275 54.4036L89.3368 54.4036L89.346 54.4035L89.333 53.541ZM92.1619 54.1003L93.01 54.2577L93.1359 53.5795L92.502 53.3076L92.1619 54.1003ZM91.2686 58.9145L92.1147 59.0827L92.1167 59.0719L91.2686 58.9145ZM87.3776 66.4355L87.3967 65.5731L87.3871 65.5729H87.3776V66.4355ZM91.3182 65.5266L92.1168 65.2006L91.761 64.3287L90.9236 64.7595L91.3182 65.5266ZM90.3256 55.1491L91.1735 55.3074L91.3172 54.5385L90.5659 54.3206L90.3256 55.1491ZM89.0055 54.9693V55.8319L89.0155 55.8318L89.0055 54.9693ZM89.7698 58.1255L88.9218 57.9671L88.9187 57.9838L88.9163 58.0006L89.7698 58.1255ZM49.5102 76.3736L48.7059 76.6853L48.7086 76.6923L48.7115 76.6992L49.5102 76.3736ZM45.8476 56.118L46.7101 56.1281L46.7102 56.118L46.7101 56.1078L45.8476 56.118ZM49.5102 35.8624L48.711 35.5376L48.7059 35.5507L49.5102 35.8624ZM80.6776 35.8624L81.4776 35.5398L81.4764 35.5367L80.6776 35.8624ZM83.2583 44.6318L84.1178 44.5583L84.114 44.5136L84.1055 44.4696L83.2583 44.6318ZM81.7893 44.9314L80.9421 45.0936L80.9521 45.1459L80.9684 45.1965L81.7893 44.9314ZM79.3078 36.4217L80.1094 36.103L80.1067 36.0964L79.3078 36.4217ZM50.88 36.4217L50.0811 36.0964L50.0779 36.1042L50.0749 36.112L50.88 36.4217ZM47.3365 56.118L48.199 56.1275L48.1991 56.118L48.199 56.1085L47.3365 56.118ZM50.88 75.8143L50.0749 76.124L50.0779 76.1318L50.0811 76.1395L50.88 75.8143ZM79.3078 75.8143L80.1068 76.1395L80.1085 76.1353L79.3078 75.8143ZM81.0945 70.3109L80.2639 70.0782L80.2608 70.0892L80.258 70.1004L81.0945 70.3109ZM82.0077 69.7715L82.2324 68.9388L82.2209 68.9356L82.2092 68.9328L82.0077 69.7715ZM82.5437 70.6904L83.3792 70.9049L83.3803 70.9003L82.5437 70.6904ZM80.6776 76.3736L81.477 76.6977L81.4776 76.6962L80.6776 76.3736ZM65.0939 90.6564L65.0922 91.519L65.0956 91.519L65.0939 90.6564ZM64.3495 89.9073H63.4868L63.487 89.9185L64.3495 89.9073ZM65.0939 21.5795V20.7169V21.5795ZM65.8384 89.9073L66.701 89.9185V89.9073H65.8384ZM30.7701 56.118H29.9075H30.7701ZM37.2716 76.0938H36.409H37.2716ZM38.0161 36.8911V37.7537V36.8911ZM37.2716 36.142H36.409H37.2716ZM92.1718 35.3929V36.2555V35.3929ZM37.4207 76.5134L38.1177 76.0053L38.1174 76.0048L37.4207 76.5134ZM37.4207 35.6825L38.1174 36.191L38.118 36.1902L37.4207 35.6825ZM92.7675 35.6825L92.0702 36.1902L92.072 36.1927L92.7675 35.6825ZM98.4154 47.7879L99.2554 47.5915L99.2532 47.5825L98.4154 47.7879ZM97.8695 48.6968L98.0682 49.5362L98.0772 49.5341L98.0861 49.5318L97.8695 48.6968ZM96.9662 48.1475L96.1286 48.3537L96.1306 48.3617L96.9662 48.1475ZM38.6118 36.5614L37.9145 36.0536L37.9145 36.0536L38.6118 36.5614ZM32.2592 56.0979H31.3966H32.2592ZM38.6118 75.6344L37.9145 76.1423L37.9153 76.1433L38.6118 75.6344ZM95.4773 68.6428L96.2756 68.9697L96.2761 68.9685L95.4773 68.6428ZM96.4699 68.2433L96.116 69.03L96.1338 69.038L96.152 69.0452L96.4699 68.2433ZM96.8669 69.2421L96.0836 68.8809L96.0762 68.897L96.0694 68.9135L96.8669 69.2421ZM92.7675 76.5134L92.0736 76.001L92.0705 76.0053L92.7675 76.5134ZM87.725 71.7055C84.9933 71.7055 82.3225 70.8904 80.0503 69.3627L79.0877 70.7944C81.6439 72.5131 84.6497 73.4307 87.725 73.4307V71.7055ZM80.0503 69.3627C77.7781 67.8349 76.0062 65.6629 74.9597 63.1206L73.3644 63.7773C74.5402 66.6336 76.5316 69.0758 79.0877 70.7944L80.0503 69.3627ZM74.9597 63.1206C73.9132 60.5783 73.6393 57.7805 74.1729 55.0813L72.4805 54.7467C71.8811 57.7785 72.1887 60.9211 73.3644 63.7773L74.9597 63.1206ZM74.1729 55.0813C74.7065 52.382 76.0234 49.9034 77.9562 47.9584L76.7326 46.7423C74.5592 48.9292 73.0798 51.7149 72.4805 54.7467L74.1729 55.0813ZM77.9562 47.9584C79.889 46.0135 82.3509 44.6896 85.0303 44.1533L84.6917 42.4617C81.6756 43.0654 78.9059 44.5553 76.7326 46.7423L77.9562 47.9584ZM85.0303 44.1533C87.7096 43.6171 90.4869 43.8922 93.0111 44.9443L93.6748 43.3519C90.8341 42.1679 87.7078 41.858 84.6917 42.4617L85.0303 44.1533ZM93.0111 44.9443C95.5354 45.9965 97.6938 47.7785 99.2127 50.0661L100.65 49.1117C98.9427 46.5407 96.5156 44.536 93.6748 43.3519L93.0111 44.9443ZM99.2127 50.0661C100.732 52.3536 101.543 55.0436 101.543 57.7959H103.268C103.268 54.7048 102.357 51.6827 100.65 49.1117L99.2127 50.0661ZM101.543 57.7947C101.538 61.4843 100.079 65.0203 97.488 67.6276L98.7117 68.8436C101.625 65.9126 103.262 61.9399 103.268 57.7971L101.543 57.7947ZM97.488 67.6276C94.8971 70.2347 91.3856 71.7006 87.7239 71.7055L87.7262 73.4307C91.8482 73.4251 95.7987 71.7749 98.7117 68.8436L97.488 67.6276ZM87.725 43.6593C84.9442 43.6593 82.2262 44.4891 79.9149 46.0431L80.8775 47.4748C82.9048 46.1117 85.2878 45.3845 87.725 45.3845V43.6593ZM79.9149 46.0431C77.6036 47.5971 75.803 49.8053 74.74 52.3878L76.3353 53.0445C77.2691 50.776 78.8501 48.8379 80.8775 47.4748L79.9149 46.0431ZM74.74 52.3878C73.6769 54.9703 73.3989 57.8116 73.9407 60.5528L75.6332 60.2183C75.1571 57.8096 75.4015 55.3131 76.3353 53.0445L74.74 52.3878ZM73.9407 60.5528C74.4826 63.294 75.8203 65.8127 77.7854 67.7901L79.009 66.574C77.2844 64.8386 76.1093 62.6269 75.6332 60.2183L73.9407 60.5528ZM77.7854 67.7901C79.7505 69.7675 82.2549 71.1148 84.9822 71.6607L85.3208 69.9691C82.9302 69.4906 80.7336 68.3094 79.009 66.574L77.7854 67.7901ZM84.9822 71.6607C87.7095 72.2066 90.5363 71.9264 93.1051 70.8557L92.4413 69.2633C90.1892 70.202 87.7113 70.4475 85.3208 69.9691L84.9822 71.6607ZM93.1051 70.8557C95.6737 69.7851 97.8683 67.9724 99.412 65.6477L97.9748 64.6934C96.6194 66.7345 94.6936 68.3246 92.4413 69.2633L93.1051 70.8557ZM99.412 65.6477C100.956 63.3231 101.779 60.5907 101.779 57.7959H100.054C100.054 60.2518 99.3302 62.6522 97.9748 64.6934L99.412 65.6477ZM101.779 57.7927C101.765 54.0527 100.28 50.4694 97.6477 47.8262L96.4254 49.0437C98.7365 51.364 100.042 54.5117 100.054 57.7991L101.779 57.7927ZM97.6477 47.8262C95.0148 45.1828 91.4479 43.6948 87.7263 43.6892L87.7237 45.4144C90.9859 45.4193 94.1145 46.7235 96.4254 49.0437L97.6477 47.8262ZM88.5876 44.5518V44.5219H86.8624V44.5518H88.5876ZM91.3794 65.8786C90.0555 66.5613 88.582 66.896 87.0956 66.8517L87.0443 68.5761C88.8234 68.6291 90.5867 68.2285 92.1702 67.4119L91.3794 65.8786ZM87.0536 66.8515C86.0947 66.8696 85.1421 66.6894 84.255 66.3218L83.5946 67.9156C84.7011 68.3741 85.8895 68.599 87.0862 68.5764L87.0536 66.8515ZM84.255 66.3218C83.3678 65.9542 82.5648 65.407 81.8958 64.7138L80.6544 65.9118C81.4874 66.775 82.4881 67.4571 83.5946 67.9156L84.255 66.3218ZM81.8958 64.7138C81.2268 64.0206 80.7061 63.1962 80.3663 62.2915L78.7513 62.8981C79.1737 64.0228 79.8214 65.0487 80.6544 65.9118L81.8958 64.7138ZM80.3663 62.2915C80.0266 61.3868 79.8751 60.4214 79.9213 59.4552L78.1981 59.3727C78.1406 60.5734 78.3289 61.7733 78.7513 62.8981L80.3663 62.2915ZM79.9223 59.4139C79.9223 54.3168 83.3933 50.0588 88.7077 50.0588V48.3336C82.2698 48.3336 78.1971 53.5442 78.1971 59.4139H79.9223ZM88.7495 50.0578C89.648 50.0142 90.5458 50.1594 91.3858 50.4843L92.0082 48.8753C90.9436 48.4635 89.8053 48.2793 88.6659 48.3346L88.7495 50.0578ZM91.3858 50.4843C92.2257 50.8092 92.9896 51.3068 93.6286 51.9456L94.8484 50.7255C94.0399 49.9173 93.0727 49.287 92.0082 48.8753L91.3858 50.4843ZM93.6286 51.9456C94.2676 52.5844 94.7676 53.3505 95.0966 54.1952L96.7042 53.5692C96.2887 52.5023 95.6568 51.5338 94.8484 50.7255L93.6286 51.9456ZM95.0966 54.1952C95.4255 55.0399 95.576 55.9445 95.5384 56.8512L97.2621 56.9227C97.3096 55.7781 97.1196 54.636 96.7042 53.5692L95.0966 54.1952ZM95.5377 56.887C95.5377 60.5963 93.5301 62.3567 91.6954 62.3567V64.0819C94.8237 64.0819 97.2629 61.168 97.2629 56.887H95.5377ZM91.682 62.3568C91.5173 62.3594 91.354 62.3253 91.2036 62.2568L90.4884 63.8268C90.8713 64.0012 91.2881 64.0884 91.7088 64.0818L91.682 62.3568ZM91.2036 62.2568C91.0532 62.1883 90.9192 62.0869 90.8115 61.9596L89.4943 63.0737C89.7661 63.395 90.1054 63.6523 90.4884 63.8268L91.2036 62.2568ZM90.8115 61.9596C90.7039 61.8323 90.6252 61.6822 90.5815 61.5201L88.9156 61.9685C89.0251 62.375 89.2225 62.7524 89.4943 63.0737L90.8115 61.9596ZM90.5815 61.5201C90.5379 61.3579 90.5304 61.1879 90.5596 61.0223L88.8608 60.722C88.7875 61.1365 88.8062 61.5621 88.9156 61.9685L90.5815 61.5201ZM89.7102 60.0096H89.6308V61.7348H89.7102V60.0096ZM88.8549 60.4953C88.5841 61.0529 88.1639 61.5223 87.6427 61.8509L88.5629 63.3102C89.3573 62.8093 89.9957 62.0951 90.4067 61.2491L88.8549 60.4953ZM87.6427 61.8509C87.1215 62.1796 86.5198 62.3546 85.9056 62.3567L85.9116 64.0819C86.85 64.0787 87.7684 63.8112 88.5629 63.3102L87.6427 61.8509ZM85.9086 62.3567C84.925 62.3567 83.9125 61.5669 83.9125 59.8634H82.1873C82.1873 62.3548 83.8152 64.0819 85.9086 64.0819V62.3567ZM83.9125 59.8579C83.9079 59.1396 84.0452 58.4277 84.3162 57.7635L82.7188 57.1118C82.3619 57.9865 82.1814 58.9236 82.1873 59.8689L83.9125 59.8579ZM84.3162 57.7635C84.5871 57.0992 84.9863 56.4961 85.4903 55.989L84.2666 54.7729C83.6016 55.442 83.0756 56.2371 82.7188 57.1118L84.3162 57.7635ZM85.4903 55.989C85.9943 55.4818 86.593 55.0808 87.2517 54.8087L86.5931 53.2142C85.7223 53.5738 84.9316 54.1037 84.2666 54.7729L85.4903 55.989ZM87.2517 54.8087C87.9103 54.5367 88.6159 54.399 89.3275 54.4036L89.3386 52.6784C88.397 52.6724 87.4638 52.8545 86.5931 53.2142L87.2517 54.8087ZM89.346 54.4035C90.1961 54.3907 91.0395 54.5574 91.8218 54.893L92.502 53.3076C91.4969 52.8764 90.4129 52.662 89.32 52.6785L89.346 54.4035ZM91.3138 53.9429L90.4205 58.7571L92.1167 59.0719L93.01 54.2577L91.3138 53.9429ZM90.4225 58.7464C90.2163 59.784 90.1642 60.6943 90.3564 61.3911C90.456 61.7524 90.6361 62.1095 90.9473 62.3773C91.2699 62.6552 91.66 62.7735 92.0527 62.7735V61.0483C92.0137 61.0483 92.0402 61.0418 92.0729 61.0699C92.094 61.0881 92.0576 61.0706 92.0195 60.9325C91.9362 60.6305 91.9238 60.0427 92.1146 59.0827L90.4225 58.7464ZM92.0527 62.7735C93.1159 62.7735 94.0662 62.0879 94.7093 61.1084C95.3645 60.1105 95.774 58.7195 95.774 57.0368H94.0488C94.0488 58.4503 93.7039 59.4964 93.2672 60.1615C92.8185 60.845 92.3395 61.0483 92.0527 61.0483V62.7735ZM95.774 57.0368C95.774 54.9405 95.1463 53.0594 93.8817 51.6939C92.6085 50.3192 90.768 49.5522 88.5191 49.5522V51.2773C90.3596 51.2773 91.7153 51.8936 92.6159 52.8661C93.525 53.8477 94.0488 55.2776 94.0488 57.0368H95.774ZM88.5191 49.5522C83.6771 49.5522 79.7158 53.4235 79.7158 59.2541H81.441C81.441 54.2778 84.7255 51.2773 88.5191 51.2773V49.5522ZM79.7158 59.2541C79.7158 61.6674 80.5035 63.6904 81.8944 65.1143C83.2851 66.538 85.2161 67.2981 87.3776 67.2981V65.5729C85.6283 65.5729 84.1597 64.9646 83.1285 63.9088C82.0974 62.8532 81.441 61.2855 81.441 59.2541H79.7158ZM87.3586 67.2979C88.8705 67.3313 90.3668 66.9861 91.7128 66.2936L90.9236 64.7595C89.8328 65.3207 88.6209 65.6001 87.3967 65.5731L87.3586 67.2979ZM90.5196 65.8525L90.9762 66.9712L92.5734 66.3192L92.1168 65.2006L90.5196 65.8525ZM90.5659 54.3206C90.0556 54.1726 89.5265 54.1006 88.9954 54.1067L89.0155 55.8318C89.3772 55.8276 89.7376 55.8767 90.0854 55.9775L90.5659 54.3206ZM89.0055 54.1067C86.0965 54.1067 83.9442 56.8181 83.9442 59.7535H85.6694C85.6694 57.5352 87.2691 55.8319 89.0055 55.8319V54.1067ZM83.9442 59.7535C83.9442 60.4705 84.1182 61.1885 84.5756 61.7431C85.0533 62.3224 85.75 62.6137 86.5538 62.6137V60.8885C86.1863 60.8885 86.0095 60.7703 85.9066 60.6455C85.7832 60.4959 85.6694 60.2151 85.6694 59.7535H83.9442ZM86.5538 62.6137C87.6893 62.6137 88.6534 61.8905 89.3095 61.0996C89.9814 60.2897 90.4786 59.2391 90.6233 58.2504L88.9163 58.0006C88.8227 58.6398 88.4762 59.4021 87.9818 59.998C87.4716 60.6129 86.9468 60.8885 86.5538 60.8885V62.6137ZM90.6177 58.2838L91.1735 55.3074L89.4777 54.9907L88.9218 57.9671L90.6177 58.2838ZM65.0939 89.684C59.3716 89.684 53.934 84.9404 50.309 76.048L48.7115 76.6992C52.4316 85.8251 58.3096 91.4091 65.0939 91.4091V89.684ZM50.3146 76.0619C47.8537 69.7116 46.6299 62.944 46.7101 56.1281L44.985 56.1078C44.9023 63.1435 46.1655 70.1296 48.7059 76.6853L50.3146 76.0619ZM46.7101 56.1078C46.6299 49.292 47.8537 42.5244 50.3146 36.174L48.7059 35.5507C46.1655 42.1063 44.9023 49.0924 44.985 56.1281L46.7101 56.1078ZM50.3094 36.1871C53.9142 27.3157 59.3715 22.552 65.0939 22.552V20.8268C58.3097 20.8268 52.4117 26.4306 48.7111 35.5376L50.3094 36.1871ZM65.0939 22.552C70.8162 22.552 76.2538 27.2955 79.8788 36.188L81.4764 35.5367C77.7562 26.4109 71.8783 20.8268 65.0939 20.8268V22.552ZM79.8776 36.1849C80.9985 38.9648 81.8471 41.8481 82.4111 44.794L84.1055 44.4696C83.5205 41.4141 82.6404 38.4233 81.4776 35.5398L79.8776 36.1849ZM82.3989 44.7053C82.3968 44.6815 82.4035 44.6572 82.4185 44.6369L83.8028 45.6665C84.0398 45.3478 84.1516 44.9534 84.1178 44.5583L82.3989 44.7053ZM82.4185 44.6369C82.4338 44.6164 82.4568 44.6012 82.4842 44.5956L82.829 46.286C83.2193 46.2064 83.5657 45.9853 83.8028 45.6665L82.4185 44.6369ZM82.4842 44.5956C82.5117 44.59 82.5399 44.5949 82.5633 44.6086L81.6896 46.0962C82.0329 46.2978 82.4386 46.3656 82.829 46.286L82.4842 44.5956ZM82.5633 44.6086C82.5866 44.6223 82.6027 44.6432 82.6101 44.6664L80.9684 45.1965C81.0904 45.5741 81.3465 45.8947 81.6896 46.0962L82.5633 44.6086ZM82.6365 44.7693C82.0694 41.8064 81.2232 38.9046 80.1094 36.103L78.5062 36.7403C79.5798 39.4406 80.3954 42.2377 80.9421 45.0936L82.6365 44.7693ZM80.1067 36.0964C76.6913 27.7067 71.1655 22.325 65.0939 22.325V24.0502C70.0798 24.0502 75.1747 28.5566 78.5089 36.7469L80.1067 36.0964ZM65.0939 22.325C59.0224 22.325 53.4965 27.7067 50.0811 36.0964L51.6789 36.7469C55.0131 28.5566 60.108 24.0502 65.0939 24.0502V22.325ZM50.0749 36.112C47.6205 42.4928 46.3984 49.2861 46.4739 56.1275L48.199 56.1085C48.1259 49.485 49.3091 42.9084 51.6851 36.7314L50.0749 36.112ZM46.4739 56.1085C46.3984 62.9499 47.6205 69.7431 50.0749 76.124L51.6851 75.5046C49.3091 69.3276 48.1259 62.751 48.199 56.1275L46.4739 56.1085ZM50.0811 76.1395C53.4965 84.5293 59.0224 89.9109 65.0939 89.9109V88.1858C60.108 88.1858 55.0131 83.6793 51.6789 75.489L50.0811 76.1395ZM65.0939 89.9109C71.1655 89.9109 76.6913 84.5293 80.1067 76.1395L78.5089 75.489C75.1747 83.6793 70.0798 88.1858 65.0939 88.1858V89.9109ZM80.1085 76.1353C80.8413 74.3075 81.4502 72.432 81.931 70.5214L80.258 70.1004C79.7961 71.9358 79.2111 73.7375 78.5072 75.4933L80.1085 76.1353ZM81.9251 70.5436C81.9189 70.5656 81.9041 70.5859 81.8819 70.599L81.0045 69.1136C80.6419 69.3278 80.3771 69.6739 80.2639 70.0782L81.9251 70.5436ZM81.8819 70.599C81.8595 70.6123 81.8322 70.6165 81.8061 70.6103L82.2092 68.9328C81.7992 68.8343 81.3673 68.8993 81.0045 69.1136L81.8819 70.599ZM81.7829 70.6043C81.7542 70.5966 81.7312 70.5782 81.7177 70.5551L83.2079 69.6858C82.9938 69.3188 82.6439 69.0498 82.2324 68.9388L81.7829 70.6043ZM81.7177 70.5551C81.7043 70.5321 81.7007 70.5055 81.707 70.4806L83.3803 70.9003C83.4835 70.4887 83.4219 70.0527 83.2079 69.6858L81.7177 70.5551ZM81.7081 70.476C81.2213 72.3731 80.6098 74.2355 79.8776 76.051L81.4776 76.6962C82.2382 74.8102 82.8734 72.8755 83.3792 70.9049L81.7081 70.476ZM79.8782 76.0495C76.2739 84.9392 70.817 89.684 65.0939 89.684V91.4091C71.8775 91.4091 77.7758 85.8263 81.477 76.6977L79.8782 76.0495ZM65.1053 89.7939C65.1352 89.7943 65.1627 89.8064 65.1822 89.8261L63.9585 91.0422C64.2562 91.3417 64.6594 91.5133 65.0826 91.5189L65.1053 89.7939ZM65.1822 89.8261C65.2016 89.8456 65.2117 89.8708 65.212 89.8961L63.487 89.9185C63.4924 90.3395 63.661 90.7428 63.9585 91.0422L65.1822 89.8261ZM65.2121 89.9073V22.3286H63.4869V89.9073H65.2121ZM65.2121 22.3286C65.2121 22.357 65.2009 22.3853 65.1794 22.407L63.9557 21.1909C63.6549 21.4935 63.4869 21.9029 63.4869 22.3286H65.2121ZM65.1794 22.407C65.1576 22.4288 65.127 22.4421 65.0939 22.4421V20.7169C64.666 20.7169 64.2566 20.888 63.9557 21.1909L65.1794 22.407ZM65.0939 22.4421C65.0608 22.4421 65.0302 22.4288 65.0085 22.407L66.2322 21.1909C65.9312 20.888 65.5219 20.7169 65.0939 20.7169V22.4421ZM65.0085 22.407C64.9869 22.3853 64.9758 22.357 64.9758 22.3286H66.701C66.701 21.9029 66.5329 21.4935 66.2322 21.1909L65.0085 22.407ZM64.9758 22.3286V89.9073H66.701V22.3286H64.9758ZM64.9758 89.8961C64.9762 89.8708 64.9863 89.8456 65.0056 89.8261L66.2293 91.0422C66.5268 90.7428 66.6954 90.3395 66.7009 89.9185L64.9758 89.8961ZM65.0056 89.8261C65.0252 89.8064 65.0527 89.7943 65.0826 89.7939L65.1053 91.5189C65.5285 91.5133 65.9317 91.3417 66.2293 91.0422L65.0056 89.8261ZM73.8883 56.0045H31.5146V57.7297H73.8883V56.0045ZM31.5146 56.0045C31.5477 56.0045 31.5783 56.0178 31.6 56.0396L30.3763 57.2557C30.6773 57.5585 31.0866 57.7297 31.5146 57.7297V56.0045ZM31.6 56.0396C31.6216 56.0613 31.6327 56.0896 31.6327 56.118H29.9075C29.9075 56.5437 30.0756 56.9531 30.3763 57.2557L31.6 56.0396ZM31.6327 56.118C31.6327 56.1464 31.6216 56.1746 31.6 56.1963L30.3763 54.9802C30.0756 55.2829 29.9075 55.6923 29.9075 56.118H31.6327ZM31.6 56.1963C31.5783 56.2182 31.5477 56.2315 31.5146 56.2315V54.5063C31.0866 54.5063 30.6773 54.6774 30.3763 54.9802L31.6 56.1963ZM31.5146 56.2315H73.8883V54.5063H31.5146V56.2315ZM73.8883 56.2315C73.8552 56.2315 73.8246 56.2182 73.8028 56.1963L75.0265 54.9802C74.7256 54.6774 74.3162 54.5063 73.8883 54.5063V56.2315ZM73.8028 56.1963C73.7813 56.1746 73.7701 56.1463 73.7701 56.118H75.4953C75.4953 55.6923 75.3273 55.2829 75.0265 54.9802L73.8028 56.1963ZM73.7701 56.118C73.7701 56.0896 73.7813 56.0613 73.8028 56.0396L75.0265 57.2557C75.3273 56.9531 75.4953 56.5437 75.4953 56.118H73.7701ZM73.8028 56.0396C73.8246 56.0178 73.8552 56.0045 73.8883 56.0045V57.7297C74.3162 57.7297 74.7256 57.5586 75.0265 57.2557L73.8028 56.0396ZM92.1718 75.9803H38.0161V77.7055H92.1718V75.9803ZM38.0161 75.9803C38.0491 75.9803 38.0798 75.9936 38.1015 76.0155L36.8778 77.2315C37.1788 77.5344 37.5881 77.7055 38.0161 77.7055V75.9803ZM38.1015 76.0155C38.123 76.0372 38.1342 76.0654 38.1342 76.0938H36.409C36.409 76.5195 36.577 76.9289 36.8778 77.2315L38.1015 76.0155ZM38.1342 76.0938C38.1342 76.1222 38.1231 76.1505 38.1015 76.1722L36.8778 74.9561C36.577 75.2587 36.409 75.6681 36.409 76.0938H38.1342ZM38.1015 76.1722C38.0798 76.194 38.0491 76.2073 38.0161 76.2073V74.4821C37.5881 74.4821 37.1788 74.6532 36.8778 74.9561L38.1015 76.1722ZM38.0161 76.2073H92.1718V74.4821H38.0161V76.2073ZM92.1718 76.2073C92.1387 76.2073 92.1081 76.194 92.0864 76.1722L93.3101 74.9561C93.0091 74.6532 92.5998 74.4821 92.1718 74.4821V76.2073ZM92.0864 76.1722C92.0648 76.1505 92.0537 76.1222 92.0537 76.0938H93.7789C93.7789 75.6681 93.6109 75.2587 93.3101 74.9561L92.0864 76.1722ZM92.0537 76.0938C92.0537 76.0654 92.0648 76.0372 92.0864 76.0155L93.3101 77.2315C93.6108 76.9289 93.7789 76.5195 93.7789 76.0938H92.0537ZM92.0864 76.0155C92.1081 75.9936 92.1387 75.9803 92.1718 75.9803V77.7055C92.5998 77.7055 93.0091 77.5344 93.3101 77.2315L92.0864 76.0155ZM92.1718 36.0285H38.0161V37.7537H92.1718V36.0285ZM38.0161 36.0285C38.0491 36.0285 38.0798 36.0418 38.1015 36.0637L36.8778 37.2797C37.1788 37.5826 37.5881 37.7537 38.0161 37.7537V36.0285ZM38.1015 36.0637C38.1231 36.0854 38.1342 36.1136 38.1342 36.142H36.409C36.409 36.5677 36.577 36.9771 36.8778 37.2797L38.1015 36.0637ZM38.1342 36.142C38.1342 36.1704 38.1231 36.1987 38.1015 36.2204L36.8778 35.0043C36.577 35.3069 36.409 35.7163 36.409 36.142H38.1342ZM38.1015 36.2204C38.0798 36.2422 38.0491 36.2555 38.0161 36.2555V34.5303C37.5881 34.5303 37.1788 34.7014 36.8778 35.0043L38.1015 36.2204ZM38.0161 36.2555H92.1718V34.5303H38.0161V36.2555ZM92.1718 36.2555C92.1387 36.2555 92.1081 36.2422 92.0864 36.2204L93.3101 35.0043C93.0091 34.7014 92.5998 34.5303 92.1718 34.5303V36.2555ZM92.0864 36.2204C92.0648 36.1987 92.0537 36.1704 92.0537 36.142H93.7789C93.7789 35.7163 93.6109 35.3069 93.3101 35.0043L92.0864 36.2204ZM92.0537 36.142C92.0537 36.1137 92.0648 36.0854 92.0864 36.0637L93.3101 37.2797C93.6109 36.9771 93.7789 36.5677 93.7789 36.142H92.0537ZM92.0864 36.0637C92.1081 36.0418 92.1387 36.0285 92.1718 36.0285V37.7537C92.5998 37.7537 93.0091 37.5826 93.3101 37.2797L92.0864 36.0637ZM65.0956 89.7938C59.8403 89.7835 54.6609 88.5304 49.9748 86.1355L49.1897 87.6717C54.1175 90.1902 59.5647 91.5081 65.0922 91.519L65.0956 89.7938ZM49.9748 86.1355C45.2887 83.7406 41.227 80.2707 38.1177 76.0053L36.7236 77.0215C39.9919 81.505 44.262 85.1533 49.1897 87.6717L49.9748 86.1355ZM38.1174 76.0048C33.9052 70.2337 31.6332 63.2596 31.6332 56.0979H29.908C29.908 63.6244 32.2956 70.9548 36.7239 77.0219L38.1174 76.0048ZM31.6332 56.0979C31.6332 48.9363 33.9052 41.9622 38.1174 36.191L36.7239 35.174C32.2956 41.2411 29.908 48.5715 29.908 56.0979H31.6332ZM38.118 36.1902C41.2241 31.9235 45.2854 28.454 49.9723 26.0626L49.1882 24.5259C44.2589 27.041 39.9886 30.6894 36.7233 35.1748L38.118 36.1902ZM49.9723 26.0626C54.6591 23.6712 59.8397 22.4251 65.0941 22.4251V20.6999C59.5668 20.6999 54.1175 22.0107 49.1882 24.5259L49.9723 26.0626ZM65.0941 22.4251C70.3485 22.4251 75.5291 23.6712 80.2159 26.0626L81 24.5259C76.0707 22.0107 70.6214 20.6999 65.0941 20.6999V22.4251ZM80.2159 26.0626C84.9028 28.454 88.9641 31.9235 92.0702 36.1902L93.4649 35.1748C90.1996 30.6894 85.9293 27.041 81 24.5259L80.2159 26.0626ZM92.072 36.1927C94.6616 39.7227 96.5327 43.733 97.5776 47.9934L99.2532 47.5825C98.1544 43.1026 96.1868 38.8851 93.4631 35.1723L92.072 36.1927ZM97.5754 47.9844C97.5696 47.9595 97.5736 47.933 97.5872 47.9103L99.0661 48.7986C99.2839 48.4361 99.3515 48.0029 99.2553 47.5915L97.5754 47.9844ZM97.5872 47.9103C97.601 47.8874 97.6241 47.8694 97.6528 47.8619L98.0861 49.5318C98.4969 49.4252 98.8483 49.1613 99.0661 48.7986L97.5872 47.9103ZM97.6707 47.8575C97.6997 47.8506 97.73 47.8556 97.7547 47.8706L96.8582 49.3446C97.2206 49.565 97.6551 49.634 98.0682 49.5362L97.6707 47.8575ZM97.7547 47.8706C97.7792 47.8855 97.7954 47.9084 97.8018 47.9333L96.1306 48.3617C96.2355 48.771 96.4961 49.1243 96.8582 49.3446L97.7547 47.8706ZM97.8038 47.9413C96.2635 41.6856 92.9826 36.0006 88.3452 31.5532L87.1511 32.7984C91.5518 37.0187 94.6663 42.4146 96.1286 48.3537L97.8038 47.9413ZM88.3452 31.5532C83.7077 27.1058 77.9057 24.0803 71.6191 22.8321L71.2832 24.5243C77.2459 25.7081 82.7504 28.5781 87.1511 32.7984L88.3452 31.5532ZM71.6191 22.8321C65.3326 21.5839 58.8227 22.165 52.8529 24.507L53.4829 26.113C59.1458 23.8914 65.3204 23.3404 71.2832 24.5243L71.6191 22.8321ZM52.8529 24.507C46.8831 26.849 41.7014 30.8547 37.9145 36.0536L39.309 37.0693C42.9031 32.135 47.82 28.3347 53.4829 26.113L52.8529 24.507ZM37.9145 36.0536C33.6794 41.8686 31.3966 48.8898 31.3966 56.0979H33.1218C33.1218 49.2539 35.2893 42.5886 39.309 37.0693L37.9145 36.0536ZM31.3966 56.0979C31.3966 63.3061 33.6794 70.3272 37.9145 76.1423L39.309 75.1266C35.2893 69.6073 33.1218 62.9419 33.1218 56.0979H31.3966ZM37.9153 76.1433C41.4596 80.9944 46.2234 84.8098 51.7181 87.1973L52.4056 85.615C47.1929 83.3501 42.6724 79.7299 39.3083 75.1255L37.9153 76.1433ZM51.7181 87.1973C57.2128 89.5848 63.2402 90.4583 69.1816 89.7278L68.9711 88.0155C63.3356 88.7084 57.6182 87.88 52.4056 85.615L51.7181 87.1973ZM69.1816 89.7278C75.123 88.9973 80.7637 86.6893 85.525 83.0411L84.4757 81.6717C79.9579 85.1333 74.6066 87.3226 68.9711 88.0155L69.1816 89.7278ZM85.525 83.0411C90.2863 79.393 93.9965 74.5362 96.2756 68.9697L94.679 68.316C92.5154 73.6006 88.9936 78.21 84.4757 81.6717L85.525 83.0411ZM96.2761 68.9685C96.2705 68.9822 96.2621 68.9949 96.2511 69.0059L95.0328 67.7844C94.8802 67.9366 94.7598 68.1179 94.6786 68.3172L96.2761 68.9685ZM96.2511 69.0059C96.2401 69.0169 96.2268 69.0258 96.2117 69.0319L95.5675 67.4314C95.3672 67.5121 95.1854 67.6322 95.0328 67.7844L96.2511 69.0059ZM96.2117 69.0319C96.1965 69.038 96.1802 69.041 96.1636 69.0407L96.1982 67.3158C95.9823 67.3115 95.7678 67.3508 95.5675 67.4314L96.2117 69.0319ZM96.1636 69.0407C96.147 69.0403 96.1308 69.0366 96.116 69.03L96.8238 67.4567C96.627 67.3681 96.4142 67.3202 96.1982 67.3158L96.1636 69.0407ZM96.152 69.0452C96.1353 69.0386 96.1206 69.0288 96.1084 69.0166L97.329 67.7974C97.1749 67.6431 96.9908 67.5219 96.7878 67.4414L96.152 69.0452ZM96.1084 69.0166C96.0963 69.0045 96.0871 68.9903 96.0811 68.9751L97.6842 68.3379C97.6038 68.1356 97.483 67.9516 97.329 67.7974L96.1084 69.0166ZM96.0811 68.9751C96.075 68.96 96.0722 68.9439 96.0726 68.9278L97.7972 68.9741C97.803 68.7566 97.7646 68.5401 97.6842 68.3379L96.0811 68.9751ZM96.0726 68.9278C96.0731 68.9117 96.0768 68.8958 96.0836 68.8809L97.6502 69.6034C97.7414 69.4057 97.7914 69.1916 97.7972 68.9741L96.0726 68.9278ZM96.0694 68.9135C95.0316 71.4322 93.6896 73.8126 92.0736 76.001L93.4614 77.0258C95.1614 74.7237 96.573 72.2198 97.6645 69.5707L96.0694 68.9135ZM92.0705 76.0053C88.9612 80.2707 84.8995 83.7406 80.2134 86.1355L80.9985 87.6717C85.9263 85.1533 90.1963 81.505 93.4646 77.0215L92.0705 76.0053ZM80.2134 86.1355C75.5273 88.5304 70.3475 89.7835 65.0922 89.7938L65.0956 91.519C70.6231 91.5081 76.0707 90.1902 80.9985 87.6717L80.2134 86.1355Z" fill="#253C8C" mask="url(#path-2-outside-1_213_286)"/>
<path d="M176.648 28.1533H179.256V42.5H176.648V28.1533ZM182.568 32.0246C183.051 31.8866 183.679 31.7555 184.452 31.6313C185.225 31.5071 186.081 31.445 187.019 31.445C187.903 31.445 188.641 31.5692 189.234 31.8176C189.828 32.0522 190.297 32.3904 190.642 32.832C191.001 33.2599 191.249 33.7843 191.387 34.4054C191.539 35.0127 191.615 35.682 191.615 36.4135V42.5H189.11V36.8069C189.11 36.2272 189.069 35.7373 188.986 35.337C188.917 34.923 188.793 34.5917 188.613 34.3433C188.448 34.0811 188.213 33.8947 187.909 33.7843C187.62 33.6601 187.261 33.598 186.833 33.598C186.515 33.598 186.184 33.6187 185.839 33.6601C185.494 33.7015 185.239 33.736 185.073 33.7636V42.5H182.568V32.0246ZM194.554 28.8158L197.059 28.4017V31.6727H200.91V33.7636H197.059V38.1732C197.059 39.0427 197.197 39.6638 197.473 40.0364C197.749 40.4091 198.218 40.5954 198.881 40.5954C199.336 40.5954 199.737 40.5471 200.082 40.4505C200.44 40.3539 200.723 40.2642 200.93 40.1813L201.344 42.1688C201.055 42.293 200.675 42.4172 200.206 42.5414C199.737 42.6794 199.184 42.7484 198.55 42.7484C197.777 42.7484 197.128 42.6449 196.604 42.4379C196.093 42.2309 195.686 41.9341 195.382 41.5477C195.079 41.1475 194.865 40.6713 194.74 40.1192C194.616 39.5534 194.554 38.9116 194.554 38.1939V28.8158ZM202.549 37.1381C202.549 36.1858 202.687 35.3508 202.963 34.6331C203.253 33.9155 203.632 33.322 204.102 32.8527C204.571 32.3697 205.109 32.0108 205.716 31.7762C206.324 31.5278 206.945 31.4036 207.58 31.4036C209.07 31.4036 210.229 31.8659 211.057 32.7906C211.899 33.7153 212.32 35.0955 212.32 36.9311C212.32 37.0691 212.313 37.2278 212.3 37.4072C212.3 37.5729 212.293 37.7247 212.279 37.8627H205.137C205.206 38.7322 205.509 39.4085 206.048 39.8915C206.6 40.3608 207.393 40.5954 208.428 40.5954C209.036 40.5954 209.588 40.5402 210.084 40.4298C210.595 40.3194 210.995 40.202 211.285 40.0778L211.616 42.1274C211.478 42.1964 211.285 42.2723 211.037 42.3551C210.802 42.4241 210.526 42.4862 210.209 42.5414C209.905 42.6104 209.574 42.6656 209.215 42.707C208.856 42.7484 208.49 42.7691 208.118 42.7691C207.165 42.7691 206.337 42.6311 205.633 42.3551C204.93 42.0653 204.35 41.6719 203.895 41.1751C203.439 40.6644 203.101 40.0709 202.88 39.3947C202.659 38.7046 202.549 37.9524 202.549 37.1381ZM209.815 36.0202C209.815 35.6751 209.767 35.3508 209.67 35.0472C209.574 34.7297 209.429 34.4606 209.236 34.2398C209.056 34.0052 208.829 33.8257 208.553 33.7015C208.29 33.5635 207.973 33.4945 207.6 33.4945C207.214 33.4945 206.876 33.5704 206.586 33.7222C206.296 33.8602 206.048 34.0466 205.841 34.2812C205.647 34.5158 205.495 34.7849 205.385 35.0886C205.275 35.3922 205.199 35.7027 205.157 36.0202H209.815ZM221.146 33.9293C220.938 33.8602 220.649 33.7912 220.276 33.7222C219.917 33.6394 219.496 33.598 219.013 33.598C218.737 33.598 218.44 33.6256 218.123 33.6808C217.819 33.736 217.605 33.7843 217.481 33.8257V42.5H214.976V32.1903C215.459 32.0108 216.06 31.8452 216.777 31.6934C217.509 31.5278 218.316 31.445 219.199 31.445C219.365 31.445 219.558 31.4588 219.779 31.4864C220 31.5002 220.221 31.5278 220.442 31.5692C220.662 31.5968 220.876 31.6382 221.083 31.6934C221.29 31.7348 221.456 31.7762 221.58 31.8176L221.146 33.9293ZM223.326 32.0246C223.809 31.8866 224.437 31.7555 225.21 31.6313C225.983 31.5071 226.838 31.445 227.777 31.445C228.66 31.445 229.399 31.5692 229.992 31.8176C230.585 32.0522 231.055 32.3904 231.4 32.832C231.759 33.2599 232.007 33.7843 232.145 34.4054C232.297 35.0127 232.373 35.682 232.373 36.4135V42.5H229.868V36.8069C229.868 36.2272 229.826 35.7373 229.744 35.337C229.675 34.923 229.55 34.5917 229.371 34.3433C229.205 34.0811 228.971 33.8947 228.667 33.7843C228.377 33.6601 228.018 33.598 227.591 33.598C227.273 33.598 226.942 33.6187 226.597 33.6601C226.252 33.7015 225.996 33.736 225.831 33.7636V42.5H223.326V32.0246ZM234.836 37.1381C234.836 36.1858 234.974 35.3508 235.25 34.6331C235.539 33.9155 235.919 33.322 236.388 32.8527C236.857 32.3697 237.396 32.0108 238.003 31.7762C238.61 31.5278 239.231 31.4036 239.866 31.4036C241.357 31.4036 242.516 31.8659 243.344 32.7906C244.186 33.7153 244.607 35.0955 244.607 36.9311C244.607 37.0691 244.6 37.2278 244.586 37.4072C244.586 37.5729 244.579 37.7247 244.566 37.8627H237.423C237.492 38.7322 237.796 39.4085 238.334 39.8915C238.886 40.3608 239.68 40.5954 240.715 40.5954C241.322 40.5954 241.874 40.5402 242.371 40.4298C242.882 40.3194 243.282 40.202 243.572 40.0778L243.903 42.1274C243.765 42.1964 243.572 42.2723 243.323 42.3551C243.089 42.4241 242.813 42.4862 242.495 42.5414C242.192 42.6104 241.861 42.6656 241.502 42.707C241.143 42.7484 240.777 42.7691 240.404 42.7691C239.452 42.7691 238.624 42.6311 237.92 42.3551C237.216 42.0653 236.637 41.6719 236.181 41.1751C235.726 40.6644 235.388 40.0709 235.167 39.3947C234.946 38.7046 234.836 37.9524 234.836 37.1381ZM242.102 36.0202C242.102 35.6751 242.054 35.3508 241.957 35.0472C241.861 34.7297 241.716 34.4606 241.522 34.2398C241.343 34.0052 241.115 33.8257 240.839 33.7015C240.577 33.5635 240.26 33.4945 239.887 33.4945C239.5 33.4945 239.162 33.5704 238.872 33.7222C238.583 33.8602 238.334 34.0466 238.127 34.2812C237.934 34.5158 237.782 34.7849 237.672 35.0886C237.561 35.3922 237.485 35.7027 237.444 36.0202H242.102ZM247.139 28.8158L249.644 28.4017V31.6727H253.494V33.7636H249.644V38.1732C249.644 39.0427 249.782 39.6638 250.058 40.0364C250.334 40.4091 250.803 40.5954 251.465 40.5954C251.921 40.5954 252.321 40.5471 252.666 40.4505C253.025 40.3539 253.308 40.2642 253.515 40.1813L253.929 42.1688C253.639 42.293 253.26 42.4172 252.79 42.5414C252.321 42.6794 251.769 42.7484 251.134 42.7484C250.361 42.7484 249.713 42.6449 249.188 42.4379C248.678 42.2309 248.27 41.9341 247.967 41.5477C247.663 41.1475 247.449 40.6713 247.325 40.1192C247.201 39.5534 247.139 38.9116 247.139 38.1939V28.8158Z" fill="black"/>
<path d="M178.6 77.3584C178.097 77.3584 177.638 77.2756 177.224 77.11C176.81 76.9443 176.454 76.7028 176.157 76.3854C175.861 76.0679 175.63 75.6781 175.464 75.2157C175.305 74.7465 175.226 74.2116 175.226 73.6113C175.226 73.0109 175.316 72.4796 175.495 72.0172C175.681 71.5479 175.93 71.1546 176.24 70.8372C176.551 70.5197 176.913 70.2782 177.327 70.1126C177.741 69.947 178.183 69.8642 178.652 69.8642C178.949 69.8642 179.214 69.8849 179.449 69.9263C179.691 69.9677 179.898 70.016 180.07 70.0712C180.25 70.1264 180.395 70.1816 180.505 70.2368C180.615 70.292 180.691 70.3334 180.733 70.361L180.443 71.1891C180.381 71.1477 180.291 71.1029 180.174 71.0545C180.056 71.0062 179.922 70.9579 179.77 70.9096C179.625 70.8613 179.463 70.8234 179.284 70.7958C179.111 70.7613 178.935 70.744 178.756 70.744C178.376 70.744 178.034 70.8096 177.731 70.9407C177.427 71.0718 177.168 71.2616 176.954 71.51C176.741 71.7584 176.575 72.0621 176.458 72.4209C176.347 72.7728 176.292 73.1696 176.292 73.6113C176.292 74.0391 176.34 74.429 176.437 74.781C176.54 75.1329 176.692 75.4365 176.892 75.6919C177.093 75.9403 177.341 76.1335 177.638 76.2715C177.941 76.4095 178.293 76.4785 178.693 76.4785C179.156 76.4785 179.539 76.4302 179.842 76.3336C180.146 76.237 180.374 76.1508 180.526 76.0749L180.784 76.9029C180.736 76.9374 180.65 76.9823 180.526 77.0375C180.401 77.0858 180.246 77.1341 180.06 77.1824C179.874 77.2307 179.656 77.2721 179.408 77.3066C179.159 77.3411 178.89 77.3584 178.6 77.3584ZM186.472 74.5118C186.472 74.9397 186.41 75.3261 186.286 75.6712C186.162 76.0162 185.986 76.3129 185.758 76.5614C185.537 76.8098 185.271 77.003 184.961 77.141C184.65 77.2721 184.312 77.3377 183.946 77.3377C183.581 77.3377 183.242 77.2721 182.932 77.141C182.621 77.003 182.352 76.8098 182.125 76.5614C181.904 76.3129 181.731 76.0162 181.607 75.6712C181.483 75.3261 181.421 74.9397 181.421 74.5118C181.421 74.0909 181.483 73.7079 181.607 73.3629C181.731 73.0109 181.904 72.7107 182.125 72.4623C182.352 72.2139 182.621 72.0241 182.932 71.893C183.242 71.755 183.581 71.686 183.946 71.686C184.312 71.686 184.65 71.755 184.961 71.893C185.271 72.0241 185.537 72.2139 185.758 72.4623C185.986 72.7107 186.162 73.0109 186.286 73.3629C186.41 73.7079 186.472 74.0909 186.472 74.5118ZM185.468 74.5118C185.468 73.9046 185.33 73.425 185.054 73.073C184.785 72.7142 184.416 72.5348 183.946 72.5348C183.477 72.5348 183.104 72.7142 182.828 73.073C182.559 73.425 182.425 73.9046 182.425 74.5118C182.425 75.1191 182.559 75.6021 182.828 75.961C183.104 76.3129 183.477 76.4889 183.946 76.4889C184.416 76.4889 184.785 76.3129 185.054 75.961C185.33 75.6021 185.468 75.1191 185.468 74.5118ZM187.826 71.9758C188.047 71.9206 188.341 71.8619 188.706 71.7998C189.072 71.7377 189.493 71.7067 189.969 71.7067C190.397 71.7067 190.752 71.7688 191.035 71.893C191.318 72.0103 191.542 72.1794 191.708 72.4002C191.881 72.6141 192.001 72.8729 192.07 73.1765C192.139 73.4802 192.174 73.8148 192.174 74.1806V77.2031H191.211V74.3876C191.211 74.0564 191.187 73.7734 191.139 73.5388C191.097 73.3042 191.025 73.1144 190.921 72.9695C190.818 72.8246 190.68 72.7211 190.507 72.659C190.335 72.59 190.121 72.5555 189.866 72.5555C189.762 72.5555 189.655 72.5589 189.545 72.5658C189.434 72.5727 189.327 72.5831 189.224 72.5969C189.127 72.6038 189.038 72.6141 188.955 72.6279C188.879 72.6417 188.824 72.6521 188.789 72.659V77.2031H187.826V71.9758ZM195.023 76.5096C195.416 76.5096 195.706 76.4578 195.892 76.3543C196.085 76.2508 196.182 76.0852 196.182 75.8575C196.182 75.6229 196.089 75.4365 195.903 75.2985C195.716 75.1605 195.409 75.0052 194.981 74.8327C194.774 74.7499 194.574 74.6671 194.381 74.5843C194.195 74.4946 194.032 74.3911 193.894 74.2738C193.756 74.1564 193.646 74.015 193.563 73.8494C193.48 73.6837 193.439 73.4802 193.439 73.2386C193.439 72.7625 193.615 72.3864 193.967 72.1104C194.319 71.8274 194.798 71.686 195.406 71.686C195.558 71.686 195.709 71.6963 195.861 71.717C196.013 71.7308 196.154 71.7515 196.286 71.7791C196.417 71.7998 196.531 71.824 196.627 71.8516C196.731 71.8792 196.81 71.9033 196.865 71.924L196.689 72.7521C196.586 72.6969 196.424 72.6417 196.203 72.5865C195.982 72.5244 195.716 72.4934 195.406 72.4934C195.137 72.4934 194.902 72.5486 194.702 72.659C194.502 72.7625 194.402 72.9281 194.402 73.1558C194.402 73.2731 194.422 73.3767 194.464 73.4664C194.512 73.5561 194.581 73.6389 194.671 73.7148C194.767 73.7838 194.885 73.8494 195.023 73.9115C195.161 73.9736 195.326 74.0391 195.52 74.1081C195.775 74.2047 196.003 74.3014 196.203 74.398C196.403 74.4877 196.572 74.5946 196.71 74.7189C196.855 74.8431 196.965 74.9949 197.041 75.1743C197.117 75.3468 197.155 75.5607 197.155 75.8161C197.155 76.3129 196.969 76.689 196.596 76.9443C196.23 77.1997 195.706 77.3273 195.023 77.3273C194.547 77.3273 194.174 77.2859 193.905 77.2031C193.636 77.1272 193.453 77.0686 193.356 77.0272L193.532 76.1991C193.643 76.2405 193.819 76.3026 194.06 76.3854C194.302 76.4682 194.622 76.5096 195.023 76.5096ZM202.675 77.0479C202.454 77.1031 202.161 77.1617 201.795 77.2238C201.437 77.2859 201.019 77.317 200.543 77.317C200.129 77.317 199.78 77.2583 199.497 77.141C199.214 77.0168 198.987 76.8443 198.814 76.6235C198.642 76.4026 198.518 76.1439 198.442 75.8471C198.366 75.5435 198.328 75.2088 198.328 74.8431V71.8205H199.29V74.636C199.29 75.2916 199.394 75.7609 199.601 76.0438C199.808 76.3267 200.156 76.4682 200.646 76.4682C200.75 76.4682 200.857 76.4647 200.967 76.4578C201.078 76.4509 201.181 76.444 201.278 76.4371C201.374 76.4233 201.461 76.413 201.537 76.4061C201.619 76.3923 201.678 76.3785 201.713 76.3647V71.8205H202.675V77.0479ZM205.948 77.3066C205.355 77.2928 204.934 77.1652 204.686 76.9236C204.437 76.6821 204.313 76.306 204.313 75.7954V69.3363L205.276 69.1706V75.6401C205.276 75.7988 205.289 75.9299 205.317 76.0334C205.345 76.137 205.389 76.2198 205.452 76.2819C205.514 76.344 205.597 76.3923 205.7 76.4268C205.804 76.4544 205.931 76.4785 206.083 76.4992L205.948 77.3066ZM208.065 71.8205H210.104V72.6279H208.065V75.1122C208.065 75.3813 208.085 75.6056 208.127 75.785C208.168 75.9575 208.23 76.0956 208.313 76.1991C208.396 76.2957 208.499 76.3647 208.624 76.4061C208.748 76.4475 208.893 76.4682 209.058 76.4682C209.348 76.4682 209.579 76.4371 209.752 76.375C209.931 76.306 210.055 76.2577 210.124 76.2301L210.311 77.0272C210.214 77.0755 210.045 77.1341 209.804 77.2031C209.562 77.279 209.286 77.317 208.976 77.317C208.61 77.317 208.306 77.2721 208.065 77.1824C207.83 77.0858 207.64 76.9443 207.495 76.758C207.35 76.5717 207.247 76.344 207.185 76.0749C207.13 75.7988 207.102 75.4814 207.102 75.1225V70.3196L208.065 70.154V71.8205ZM210.928 74.5222C210.928 74.046 210.997 73.632 211.135 73.28C211.273 72.9212 211.455 72.6245 211.683 72.3898C211.911 72.1552 212.173 71.9792 212.47 71.8619C212.767 71.7446 213.07 71.686 213.381 71.686C214.105 71.686 214.661 71.9137 215.047 72.3691C215.434 72.8177 215.627 73.5043 215.627 74.429C215.627 74.4704 215.627 74.5256 215.627 74.5946C215.627 74.6567 215.623 74.7154 215.617 74.7706H211.932C211.973 75.3296 212.135 75.754 212.418 76.0438C212.701 76.3336 213.143 76.4785 213.743 76.4785C214.081 76.4785 214.364 76.4509 214.592 76.3957C214.826 76.3336 215.002 76.275 215.12 76.2198L215.254 77.0272C215.137 77.0893 214.93 77.1548 214.633 77.2238C214.343 77.2928 214.012 77.3273 213.64 77.3273C213.17 77.3273 212.763 77.2583 212.418 77.1203C212.08 76.9754 211.8 76.7787 211.58 76.5303C211.359 76.2819 211.193 75.9886 211.083 75.6505C210.979 75.3054 210.928 74.9293 210.928 74.5222ZM214.623 73.9943C214.63 73.5595 214.519 73.2041 214.292 72.9281C214.071 72.6452 213.764 72.5037 213.37 72.5037C213.15 72.5037 212.953 72.5486 212.78 72.6383C212.615 72.7211 212.473 72.8315 212.356 72.9695C212.239 73.1075 212.146 73.2662 212.076 73.4457C212.014 73.6251 211.973 73.8079 211.952 73.9943H214.623ZM220.658 76.5096C221.051 76.5096 221.341 76.4578 221.527 76.3543C221.721 76.2508 221.817 76.0852 221.817 75.8575C221.817 75.6229 221.724 75.4365 221.538 75.2985C221.352 75.1605 221.044 75.0052 220.617 74.8327C220.41 74.7499 220.209 74.6671 220.016 74.5843C219.83 74.4946 219.668 74.3911 219.53 74.2738C219.392 74.1564 219.281 74.015 219.198 73.8494C219.116 73.6837 219.074 73.4802 219.074 73.2386C219.074 72.7625 219.25 72.3864 219.602 72.1104C219.954 71.8274 220.434 71.686 221.041 71.686C221.193 71.686 221.345 71.6963 221.496 71.717C221.648 71.7308 221.79 71.7515 221.921 71.7791C222.052 71.7998 222.166 71.824 222.262 71.8516C222.366 71.8792 222.445 71.9033 222.501 71.924L222.325 72.7521C222.221 72.6969 222.059 72.6417 221.838 72.5865C221.617 72.5244 221.352 72.4934 221.041 72.4934C220.772 72.4934 220.537 72.5486 220.337 72.659C220.137 72.7625 220.037 72.9281 220.037 73.1558C220.037 73.2731 220.058 73.3767 220.099 73.4664C220.147 73.5561 220.216 73.6389 220.306 73.7148C220.403 73.7838 220.52 73.8494 220.658 73.9115C220.796 73.9736 220.962 74.0391 221.155 74.1081C221.41 74.2047 221.638 74.3014 221.838 74.398C222.038 74.4877 222.207 74.5946 222.345 74.7189C222.49 74.8431 222.601 74.9949 222.676 75.1743C222.752 75.3468 222.79 75.5607 222.79 75.8161C222.79 76.3129 222.604 76.689 222.231 76.9443C221.866 77.1997 221.341 77.3273 220.658 77.3273C220.182 77.3273 219.809 77.2859 219.54 77.2031C219.271 77.1272 219.088 77.0686 218.991 77.0272L219.167 76.1991C219.278 76.2405 219.454 76.3026 219.695 76.3854C219.937 76.4682 220.258 76.5096 220.658 76.5096ZM223.725 74.5222C223.725 74.046 223.794 73.632 223.932 73.28C224.07 72.9212 224.253 72.6245 224.481 72.3898C224.708 72.1552 224.971 71.9792 225.267 71.8619C225.564 71.7446 225.868 71.686 226.178 71.686C226.903 71.686 227.458 71.9137 227.845 72.3691C228.231 72.8177 228.424 73.5043 228.424 74.429C228.424 74.4704 228.424 74.5256 228.424 74.5946C228.424 74.6567 228.421 74.7154 228.414 74.7706H224.729C224.77 75.3296 224.933 75.754 225.215 76.0438C225.498 76.3336 225.94 76.4785 226.54 76.4785C226.879 76.4785 227.162 76.4509 227.389 76.3957C227.624 76.3336 227.8 76.275 227.917 76.2198L228.052 77.0272C227.934 77.0893 227.727 77.1548 227.431 77.2238C227.141 77.2928 226.81 77.3273 226.437 77.3273C225.968 77.3273 225.561 77.2583 225.215 77.1203C224.877 76.9754 224.598 76.7787 224.377 76.5303C224.156 76.2819 223.991 75.9886 223.88 75.6505C223.777 75.3054 223.725 74.9293 223.725 74.5222ZM227.42 73.9943C227.427 73.5595 227.317 73.2041 227.089 72.9281C226.868 72.6452 226.561 72.5037 226.168 72.5037C225.947 72.5037 225.75 72.5486 225.578 72.6383C225.412 72.7211 225.271 72.8315 225.153 72.9695C225.036 73.1075 224.943 73.2662 224.874 73.4457C224.812 73.6251 224.77 73.8079 224.75 73.9943H227.42ZM234.093 77.0479C233.872 77.1031 233.578 77.1617 233.213 77.2238C232.854 77.2859 232.436 77.317 231.96 77.317C231.546 77.317 231.198 77.2583 230.915 77.141C230.632 77.0168 230.404 76.8443 230.232 76.6235C230.059 76.4026 229.935 76.1439 229.859 75.8471C229.783 75.5435 229.745 75.2088 229.745 74.8431V71.8205H230.708V74.636C230.708 75.2916 230.811 75.7609 231.018 76.0438C231.225 76.3267 231.574 76.4682 232.064 76.4682C232.167 76.4682 232.274 76.4647 232.385 76.4578C232.495 76.4509 232.599 76.444 232.695 76.4371C232.792 76.4233 232.878 76.413 232.954 76.4061C233.037 76.3923 233.095 76.3785 233.13 76.3647V71.8205H234.093V77.0479ZM176.416 84.0586C176.534 83.9827 176.71 83.9033 176.944 83.8205C177.186 83.7377 177.462 83.6963 177.772 83.6963C178.159 83.6963 178.5 83.7653 178.797 83.9033C179.101 84.0414 179.356 84.2346 179.563 84.483C179.77 84.7314 179.925 85.0282 180.029 85.3732C180.139 85.7182 180.194 86.0978 180.194 86.5118C180.194 86.9466 180.129 87.3399 179.998 87.6919C179.874 88.0369 179.694 88.3302 179.459 88.5717C179.225 88.8132 178.942 88.9996 178.611 89.1307C178.279 89.2618 177.907 89.3273 177.493 89.3273C177.044 89.3273 176.647 89.2963 176.302 89.2342C175.957 89.1721 175.674 89.11 175.454 89.0479V81.3363L176.416 81.1706V84.0586ZM176.416 88.3647C176.513 88.3923 176.647 88.4199 176.82 88.4475C176.999 88.4682 177.22 88.4785 177.482 88.4785C178 88.4785 178.414 88.3095 178.725 87.9713C179.035 87.6263 179.19 87.1398 179.19 86.5118C179.19 86.2358 179.163 85.977 179.108 85.7355C179.052 85.494 178.963 85.2869 178.838 85.1144C178.714 84.935 178.552 84.797 178.352 84.7004C178.159 84.5969 177.924 84.5451 177.648 84.5451C177.386 84.5451 177.144 84.59 176.923 84.6797C176.703 84.7694 176.534 84.8625 176.416 84.9592V88.3647ZM186.3 86.5118C186.3 86.9397 186.238 87.3261 186.114 87.6712C185.99 88.0162 185.814 88.3129 185.586 88.5614C185.365 88.8098 185.099 89.003 184.789 89.141C184.478 89.2721 184.14 89.3377 183.775 89.3377C183.409 89.3377 183.071 89.2721 182.76 89.141C182.45 89.003 182.18 88.8098 181.953 88.5614C181.732 88.3129 181.559 88.0162 181.435 87.6712C181.311 87.3261 181.249 86.9397 181.249 86.5118C181.249 86.0909 181.311 85.7079 181.435 85.3629C181.559 85.0109 181.732 84.7107 181.953 84.4623C182.18 84.2139 182.45 84.0241 182.76 83.893C183.071 83.755 183.409 83.686 183.775 83.686C184.14 83.686 184.478 83.755 184.789 83.893C185.099 84.0241 185.365 84.2139 185.586 84.4623C185.814 84.7107 185.99 85.0109 186.114 85.3629C186.238 85.7079 186.3 86.0909 186.3 86.5118ZM185.296 86.5118C185.296 85.9046 185.158 85.425 184.882 85.073C184.613 84.7142 184.244 84.5348 183.775 84.5348C183.305 84.5348 182.933 84.7142 182.657 85.073C182.387 85.425 182.253 85.9046 182.253 86.5118C182.253 87.1191 182.387 87.6021 182.657 87.961C182.933 88.3129 183.305 88.4889 183.775 88.4889C184.244 88.4889 184.613 88.3129 184.882 87.961C185.158 87.6021 185.296 87.1191 185.296 86.5118ZM189.269 89.3066C188.676 89.2928 188.255 89.1652 188.007 88.9236C187.758 88.6821 187.634 88.306 187.634 87.7954V81.3363L188.597 81.1706V87.6401C188.597 87.7988 188.61 87.9299 188.638 88.0334C188.666 88.137 188.71 88.2198 188.773 88.2819C188.835 88.344 188.917 88.3923 189.021 88.4268C189.124 88.4544 189.252 88.4785 189.404 88.4992L189.269 89.3066ZM190.185 86.5222C190.185 86.046 190.254 85.632 190.392 85.28C190.53 84.9212 190.713 84.6245 190.94 84.3898C191.168 84.1552 191.43 83.9792 191.727 83.8619C192.024 83.7446 192.327 83.686 192.638 83.686C193.363 83.686 193.918 83.9137 194.305 84.3691C194.691 84.8177 194.884 85.5043 194.884 86.429C194.884 86.4704 194.884 86.5256 194.884 86.5946C194.884 86.6567 194.881 86.7154 194.874 86.7706H191.189C191.23 87.3296 191.392 87.754 191.675 88.0438C191.958 88.3336 192.4 88.4785 193 88.4785C193.338 88.4785 193.621 88.4509 193.849 88.3957C194.084 88.3336 194.26 88.275 194.377 88.2198L194.512 89.0272C194.394 89.0893 194.187 89.1548 193.891 89.2238C193.601 89.2928 193.269 89.3273 192.897 89.3273C192.428 89.3273 192.02 89.2583 191.675 89.1203C191.337 88.9754 191.058 88.7787 190.837 88.5303C190.616 88.2819 190.45 87.9886 190.34 87.6505C190.237 87.3054 190.185 86.9293 190.185 86.5222ZM193.88 85.9943C193.887 85.5595 193.777 85.2041 193.549 84.9281C193.328 84.6452 193.021 84.5037 192.628 84.5037C192.407 84.5037 192.21 84.5486 192.038 84.6383C191.872 84.7211 191.731 84.8315 191.613 84.9695C191.496 85.1075 191.403 85.2662 191.334 85.4457C191.272 85.6251 191.23 85.8079 191.21 85.9943H193.88ZM197.168 83.8205H199.207V84.6279H197.168V87.1122C197.168 87.3813 197.188 87.6056 197.23 87.785C197.271 87.9575 197.333 88.0956 197.416 88.1991C197.499 88.2957 197.602 88.3647 197.727 88.4061C197.851 88.4475 197.996 88.4682 198.161 88.4682C198.451 88.4682 198.682 88.4371 198.855 88.375C199.034 88.306 199.158 88.2577 199.227 88.2301L199.414 89.0272C199.317 89.0755 199.148 89.1341 198.907 89.2031C198.665 89.279 198.389 89.317 198.079 89.317C197.713 89.317 197.409 89.2721 197.168 89.1824C196.933 89.0858 196.743 88.9443 196.598 88.758C196.453 88.5717 196.35 88.344 196.288 88.0749C196.233 87.7988 196.205 87.4814 196.205 87.1225V82.3196L197.168 82.154V83.8205ZM205.041 86.5118C205.041 86.9397 204.979 87.3261 204.855 87.6712C204.731 88.0162 204.555 88.3129 204.327 88.5614C204.106 88.8098 203.841 89.003 203.53 89.141C203.22 89.2721 202.881 89.3377 202.516 89.3377C202.15 89.3377 201.812 89.2721 201.501 89.141C201.191 89.003 200.922 88.8098 200.694 88.5614C200.473 88.3129 200.301 88.0162 200.176 87.6712C200.052 87.3261 199.99 86.9397 199.99 86.5118C199.99 86.0909 200.052 85.7079 200.176 85.3629C200.301 85.0109 200.473 84.7107 200.694 84.4623C200.922 84.2139 201.191 84.0241 201.501 83.893C201.812 83.755 202.15 83.686 202.516 83.686C202.881 83.686 203.22 83.755 203.53 83.893C203.841 84.0241 204.106 84.2139 204.327 84.4623C204.555 84.7107 204.731 85.0109 204.855 85.3629C204.979 85.7079 205.041 86.0909 205.041 86.5118ZM204.037 86.5118C204.037 85.9046 203.899 85.425 203.623 85.073C203.354 84.7142 202.985 84.5348 202.516 84.5348C202.047 84.5348 201.674 84.7142 201.398 85.073C201.129 85.425 200.994 85.9046 200.994 86.5118C200.994 87.1191 201.129 87.6021 201.398 87.961C201.674 88.3129 202.047 88.4889 202.516 88.4889C202.985 88.4889 203.354 88.3129 203.623 87.961C203.899 87.6021 204.037 87.1191 204.037 86.5118ZM212.27 84.9592C212.152 84.8625 211.983 84.7694 211.762 84.6797C211.541 84.59 211.3 84.5451 211.038 84.5451C210.762 84.5451 210.524 84.5969 210.324 84.7004C210.13 84.797 209.972 84.935 209.847 85.1144C209.723 85.2869 209.633 85.494 209.578 85.7355C209.523 85.977 209.495 86.2358 209.495 86.5118C209.495 87.1398 209.651 87.6263 209.961 87.9713C210.272 88.3095 210.686 88.4785 211.203 88.4785C211.466 88.4785 211.683 88.4682 211.855 88.4475C212.035 88.4199 212.173 88.3923 212.27 88.3647V84.9592ZM212.27 81.3363L213.232 81.1706V89.0479C213.011 89.11 212.728 89.1721 212.383 89.2342C212.038 89.2963 211.642 89.3273 211.193 89.3273C210.779 89.3273 210.406 89.2618 210.075 89.1307C209.744 88.9996 209.461 88.8132 209.226 88.5717C208.992 88.3302 208.809 88.0369 208.678 87.6919C208.553 87.3399 208.491 86.9466 208.491 86.5118C208.491 86.0978 208.543 85.7182 208.647 85.3732C208.757 85.0282 208.916 84.7314 209.123 84.483C209.33 84.2346 209.582 84.0414 209.878 83.9033C210.182 83.7653 210.527 83.6963 210.914 83.6963C211.224 83.6963 211.497 83.7377 211.731 83.8205C211.973 83.9033 212.152 83.9827 212.27 84.0586V81.3363ZM214.587 86.5222C214.587 86.046 214.656 85.632 214.794 85.28C214.932 84.9212 215.115 84.6245 215.342 84.3898C215.57 84.1552 215.832 83.9792 216.129 83.8619C216.426 83.7446 216.729 83.686 217.04 83.686C217.765 83.686 218.32 83.9137 218.707 84.3691C219.093 84.8177 219.286 85.5043 219.286 86.429C219.286 86.4704 219.286 86.5256 219.286 86.5946C219.286 86.6567 219.283 86.7154 219.276 86.7706H215.591C215.632 87.3296 215.794 87.754 216.077 88.0438C216.36 88.3336 216.802 88.4785 217.402 88.4785C217.74 88.4785 218.023 88.4509 218.251 88.3957C218.486 88.3336 218.662 88.275 218.779 88.2198L218.914 89.0272C218.796 89.0893 218.589 89.1548 218.293 89.2238C218.003 89.2928 217.671 89.3273 217.299 89.3273C216.83 89.3273 216.422 89.2583 216.077 89.1203C215.739 88.9754 215.46 88.7787 215.239 88.5303C215.018 88.2819 214.852 87.9886 214.742 87.6505C214.639 87.3054 214.587 86.9293 214.587 86.5222ZM218.282 85.9943C218.289 85.5595 218.179 85.2041 217.951 84.9281C217.73 84.6452 217.423 84.5037 217.03 84.5037C216.809 84.5037 216.612 84.5486 216.44 84.6383C216.274 84.7211 216.133 84.8315 216.015 84.9695C215.898 85.1075 215.805 85.2662 215.736 85.4457C215.674 85.6251 215.632 85.8079 215.612 85.9943H218.282ZM224.027 89.2031H223.065V83.8205H224.027V89.2031ZM223.541 82.8475C223.368 82.8475 223.22 82.7923 223.096 82.6819C222.979 82.5646 222.92 82.4093 222.92 82.2161C222.92 82.0229 222.979 81.8711 223.096 81.7607C223.22 81.6433 223.368 81.5847 223.541 81.5847C223.713 81.5847 223.858 81.6433 223.976 81.7607C224.1 81.8711 224.162 82.0229 224.162 82.2161C224.162 82.4093 224.1 82.5646 223.976 82.6819C223.858 82.7923 223.713 82.8475 223.541 82.8475ZM225.683 83.9758C225.904 83.9206 226.197 83.8619 226.563 83.7998C226.929 83.7377 227.349 83.7067 227.826 83.7067C228.253 83.7067 228.609 83.7688 228.892 83.893C229.175 84.0103 229.399 84.1794 229.565 84.4002C229.737 84.6141 229.858 84.8729 229.927 85.1765C229.996 85.4802 230.03 85.8148 230.03 86.1806V89.2031H229.068V86.3876C229.068 86.0564 229.044 85.7734 228.995 85.5388C228.954 85.3042 228.881 85.1144 228.778 84.9695C228.674 84.8246 228.536 84.7211 228.364 84.659C228.191 84.59 227.977 84.5555 227.722 84.5555C227.619 84.5555 227.512 84.5589 227.401 84.5658C227.291 84.5727 227.184 84.5831 227.08 84.5969C226.984 84.6038 226.894 84.6141 226.811 84.6279C226.735 84.6417 226.68 84.6521 226.646 84.659V89.2031H225.683V83.9758ZM232.527 83.8205H234.566V84.6279H232.527V87.1122C232.527 87.3813 232.548 87.6056 232.589 87.785C232.631 87.9575 232.693 88.0956 232.776 88.1991C232.859 88.2957 232.962 88.3647 233.086 88.4061C233.21 88.4475 233.355 88.4682 233.521 88.4682C233.811 88.4682 234.042 88.4371 234.215 88.375C234.394 88.306 234.518 88.2577 234.587 88.2301L234.773 89.0272C234.677 89.0755 234.508 89.1341 234.266 89.2031C234.025 89.279 233.749 89.317 233.438 89.317C233.072 89.317 232.769 89.2721 232.527 89.1824C232.293 89.0858 232.103 88.9443 231.958 88.758C231.813 88.5717 231.71 88.344 231.647 88.0749C231.592 87.7988 231.565 87.4814 231.565 87.1225V82.3196L232.527 82.154V83.8205ZM235.39 86.5222C235.39 86.046 235.459 85.632 235.597 85.28C235.735 84.9212 235.918 84.6245 236.146 84.3898C236.374 84.1552 236.636 83.9792 236.933 83.8619C237.229 83.7446 237.533 83.686 237.843 83.686C238.568 83.686 239.123 83.9137 239.51 84.3691C239.896 84.8177 240.09 85.5043 240.09 86.429C240.09 86.4704 240.09 86.5256 240.09 86.5946C240.09 86.6567 240.086 86.7154 240.079 86.7706H236.394C236.436 87.3296 236.598 87.754 236.881 88.0438C237.164 88.3336 237.605 88.4785 238.206 88.4785C238.544 88.4785 238.827 88.4509 239.054 88.3957C239.289 88.3336 239.465 88.275 239.582 88.2198L239.717 89.0272C239.6 89.0893 239.393 89.1548 239.096 89.2238C238.806 89.2928 238.475 89.3273 238.102 89.3273C237.633 89.3273 237.226 89.2583 236.881 89.1203C236.543 88.9754 236.263 88.7787 236.042 88.5303C235.821 88.2819 235.656 87.9886 235.545 87.6505C235.442 87.3054 235.39 86.9293 235.39 86.5222ZM239.086 85.9943C239.092 85.5595 238.982 85.2041 238.754 84.9281C238.533 84.6452 238.226 84.5037 237.833 84.5037C237.612 84.5037 237.416 84.5486 237.243 84.6383C237.077 84.7211 236.936 84.8315 236.819 84.9695C236.701 85.1075 236.608 85.2662 236.539 85.4457C236.477 85.6251 236.436 85.8079 236.415 85.9943H239.086ZM243.46 83.7067C243.543 83.7067 243.636 83.7136 243.739 83.7274C243.85 83.7343 243.957 83.7481 244.06 83.7688C244.164 83.7826 244.257 83.7998 244.34 83.8205C244.429 83.8343 244.495 83.8481 244.536 83.8619L244.371 84.7004C244.295 84.6728 244.167 84.6417 243.988 84.6072C243.815 84.5658 243.591 84.5451 243.315 84.5451C243.136 84.5451 242.956 84.5658 242.777 84.6072C242.604 84.6417 242.49 84.6659 242.435 84.6797V89.2031H241.472V84.0483C241.7 83.9654 241.983 83.8895 242.321 83.8205C242.659 83.7446 243.039 83.7067 243.46 83.7067ZM245.465 83.9758C245.686 83.9206 245.979 83.8619 246.345 83.7998C246.711 83.7377 247.132 83.7067 247.608 83.7067C248.036 83.7067 248.391 83.7688 248.674 83.893C248.957 84.0103 249.181 84.1794 249.347 84.4002C249.52 84.6141 249.64 84.8729 249.709 85.1765C249.778 85.4802 249.813 85.8148 249.813 86.1806V89.2031H248.85V86.3876C248.85 86.0564 248.826 85.7734 248.778 85.5388C248.736 85.3042 248.664 85.1144 248.56 84.9695C248.457 84.8246 248.319 84.7211 248.146 84.659C247.974 84.59 247.76 84.5555 247.505 84.5555C247.401 84.5555 247.294 84.5589 247.184 84.5658C247.073 84.5727 246.966 84.5831 246.863 84.5969C246.766 84.6038 246.676 84.6141 246.594 84.6279C246.518 84.6417 246.462 84.6521 246.428 84.659V89.2031H245.465V83.9758ZM251.109 86.5222C251.109 86.046 251.178 85.632 251.316 85.28C251.454 84.9212 251.637 84.6245 251.865 84.3898C252.092 84.1552 252.355 83.9792 252.651 83.8619C252.948 83.7446 253.252 83.686 253.562 83.686C254.287 83.686 254.842 83.9137 255.229 84.3691C255.615 84.8177 255.808 85.5043 255.808 86.429C255.808 86.4704 255.808 86.5256 255.808 86.5946C255.808 86.6567 255.805 86.7154 255.798 86.7706H252.113C252.154 87.3296 252.317 87.754 252.6 88.0438C252.882 88.3336 253.324 88.4785 253.924 88.4785C254.263 88.4785 254.546 88.4509 254.773 88.3957C255.008 88.3336 255.184 88.275 255.301 88.2198L255.436 89.0272C255.318 89.0893 255.111 89.1548 254.815 89.2238C254.525 89.2928 254.194 89.3273 253.821 89.3273C253.352 89.3273 252.945 89.2583 252.6 89.1203C252.261 88.9754 251.982 88.7787 251.761 88.5303C251.54 88.2819 251.375 87.9886 251.264 87.6505C251.161 87.3054 251.109 86.9293 251.109 86.5222ZM254.804 85.9943C254.811 85.5595 254.701 85.2041 254.473 84.9281C254.252 84.6452 253.945 84.5037 253.552 84.5037C253.331 84.5037 253.134 84.5486 252.962 84.6383C252.796 84.7211 252.655 84.8315 252.537 84.9695C252.42 85.1075 252.327 85.2662 252.258 85.4457C252.196 85.6251 252.154 85.8079 252.134 85.9943H254.804ZM258.092 83.8205H260.131V84.6279H258.092V87.1122C258.092 87.3813 258.112 87.6056 258.154 87.785C258.195 87.9575 258.257 88.0956 258.34 88.1991C258.423 88.2957 258.527 88.3647 258.651 88.4061C258.775 88.4475 258.92 88.4682 259.085 88.4682C259.375 88.4682 259.607 88.4371 259.779 88.375C259.958 88.306 260.083 88.2577 260.152 88.2301L260.338 89.0272C260.241 89.0755 260.072 89.1341 259.831 89.2031C259.589 89.279 259.313 89.317 259.003 89.317C258.637 89.317 258.333 89.2721 258.092 89.1824C257.857 89.0858 257.667 88.9443 257.522 88.758C257.378 88.5717 257.274 88.344 257.212 88.0749C257.157 87.7988 257.129 87.4814 257.129 87.1225V82.3196L258.092 82.154V83.8205Z" fill="black"/>
</svg>
