<svg width="47" height="51" viewBox="0 0 47 51" fill="none" xmlns="http://www.w3.org/2000/svg">
<g clip-path="url(#clip0_372_511)">
<path d="M7.77994 42.1764V34.5098H0V50.4346H15.6057V42.4512H8.0624L7.78021 42.451L7.77994 42.1764Z" fill="#6CB546"/>
<path d="M7.77994 8.25817V15.9251H0V0H15.6057V7.98358H8.0624H7.78021L7.77994 8.25817Z" fill="#FFE000"/>
<path d="M39.0348 8.25817V15.9251H46.815V0H31.209V7.98358H38.7526H39.0348V8.25817Z" fill="#00B7FF"/>
<path d="M39.0348 42.1764V34.5098H46.815V50.4346H31.209V42.4512H38.7526L39.0348 42.451V42.1764Z" fill="#FC1515"/>
<path d="M23.3615 13.3468C21.5759 13.344 19.8091 13.7198 18.1734 14.4502V10.6406H10.418V26.6363C10.418 26.6194 10.4188 26.6028 10.4189 26.5859C10.4263 29.1952 11.1918 31.7437 12.6186 33.9095C14.0454 36.0754 16.0695 37.7614 18.4353 38.7547C20.8011 39.7479 23.4025 40.0038 25.9108 39.4901C28.4192 38.9763 30.722 37.716 32.5284 35.8682C34.3348 34.0204 35.5637 31.6681 36.06 29.1084C36.5563 26.5486 36.2977 23.8963 35.3168 21.4864C34.3359 19.0765 32.6767 17.0172 30.5489 15.5685C28.421 14.1197 25.9199 13.3466 23.3615 13.3468ZM28.5358 26.9286C28.5332 26.9707 28.5298 27.0129 28.5255 27.055C28.522 27.0971 28.5177 27.1393 28.5126 27.1814C28.5083 27.2235 28.5022 27.2657 28.4962 27.3078C28.4859 27.385 28.473 27.4623 28.4583 27.5395C28.4489 27.5869 28.4394 27.6352 28.4291 27.6835C28.4119 27.7669 28.3921 27.8494 28.3697 27.931C28.362 27.9644 28.3525 27.9977 28.343 28.0311C28.3379 28.046 28.3336 28.0609 28.3292 28.0767C28.3198 28.1101 28.3094 28.1434 28.2983 28.1768C28.2879 28.211 28.2767 28.2453 28.2656 28.2786C28.2483 28.3286 28.2303 28.3796 28.2113 28.4305C28.1976 28.4673 28.1838 28.5033 28.1692 28.5393C28.1545 28.5779 28.1382 28.6157 28.1218 28.6534C28.1106 28.6806 28.0994 28.707 28.0865 28.7342C28.0719 28.7684 28.0564 28.8026 28.0401 28.8369C28.0391 28.8407 28.0373 28.8443 28.0349 28.8474C28.0185 28.8825 28.0013 28.9176 27.9833 28.9527C27.9826 28.9552 27.9818 28.9575 27.9807 28.9598C27.9635 28.9931 27.9463 29.0265 27.9282 29.0598C27.9067 29.1028 27.8834 29.145 27.8585 29.1871C27.8395 29.2222 27.8189 29.2573 27.7982 29.2916C27.7784 29.324 27.7595 29.3565 27.7388 29.389C27.7113 29.4338 27.6829 29.4777 27.6528 29.5215C27.6356 29.5479 27.6183 29.5742 27.6003 29.5997C27.5942 29.6084 27.5882 29.6172 27.5813 29.626C27.5607 29.6558 27.54 29.6848 27.5185 29.7138C27.4936 29.748 27.4686 29.7814 27.4428 29.8147C27.4178 29.8481 27.3911 29.8814 27.3645 29.9139C27.3378 29.9464 27.3111 29.9789 27.2844 30.0105C27.2035 30.1061 27.1186 30.1992 27.0297 30.2896C26.941 30.38 26.8498 30.466 26.7568 30.5485C26.725 30.5766 26.6931 30.6038 26.6613 30.631C26.6294 30.6583 26.5968 30.6846 26.564 30.7109C26.5365 30.7329 26.509 30.7548 26.4806 30.7768C26.4728 30.7829 26.4642 30.789 26.4565 30.7952C26.4263 30.818 26.3954 30.8408 26.3644 30.8628C26.3342 30.8847 26.3033 30.9067 26.2714 30.9286C26.2344 30.9558 26.1965 30.9813 26.1578 31.005C26.0528 31.0743 25.9444 31.1393 25.8342 31.1998C25.798 31.22 25.7619 31.2402 25.7249 31.2595C25.7241 31.2604 25.7232 31.2611 25.7222 31.2615C25.7211 31.262 25.72 31.2622 25.7189 31.2622C25.6844 31.2797 25.6509 31.2973 25.6156 31.3148C25.6126 31.3167 25.6094 31.3181 25.6061 31.3192C25.57 31.3368 25.533 31.3543 25.4968 31.371C25.4581 31.3894 25.4194 31.4061 25.3806 31.4228C25.3445 31.4386 25.3075 31.4544 25.2705 31.4693C25.2662 31.4711 25.2619 31.4728 25.2567 31.4746C25.2197 31.4895 25.1827 31.5036 25.1448 31.5176C25.1052 31.5325 25.0656 31.5466 25.0252 31.5606C24.9839 31.5755 24.9426 31.5887 24.9013 31.6019C24.8617 31.6142 24.8221 31.6264 24.7816 31.6379C24.7429 31.6493 24.7042 31.6598 24.6646 31.6703C24.6353 31.6782 24.606 31.6852 24.5768 31.6923C24.551 31.6993 24.5251 31.7054 24.4985 31.7107C24.4683 31.7186 24.4382 31.7247 24.4072 31.7309C24.3694 31.7397 24.3306 31.7467 24.2928 31.7537C24.2385 31.7634 24.1843 31.773 24.1301 31.7818C24.1017 31.7853 24.0724 31.7897 24.044 31.7941C24.0346 31.795 24.0242 31.7958 24.0139 31.7976C23.9735 31.8029 23.9321 31.8073 23.8917 31.8116C23.8487 31.816 23.8048 31.8204 23.7609 31.8231C23.4951 31.8441 23.228 31.8441 22.9622 31.8231C22.9183 31.8204 22.8744 31.816 22.8314 31.8116C22.7909 31.8072 22.7496 31.8029 22.7091 31.7976C22.6988 31.7958 22.6885 31.795 22.679 31.7941C22.6506 31.7897 22.6214 31.7853 22.593 31.7818C22.5387 31.773 22.4845 31.7634 22.4303 31.7537C22.3924 31.7467 22.3537 31.7397 22.3158 31.7309C22.2849 31.7247 22.2547 31.7186 22.2246 31.7107C22.1979 31.7054 22.1721 31.6993 22.1463 31.6923C22.117 31.6852 22.0877 31.6782 22.0585 31.6703C22.0189 31.6598 21.9802 31.6493 21.9414 31.6379C21.901 31.6264 21.8614 31.6142 21.8218 31.6019C21.7805 31.5887 21.7392 31.5755 21.6979 31.5606C21.6574 31.5466 21.6178 31.5325 21.5782 31.5176C21.5404 31.5036 21.5034 31.4895 21.4664 31.4746C21.4612 31.4728 21.4569 31.4711 21.4526 31.4693C21.4156 31.4544 21.3786 31.4386 21.3424 31.4228C21.3037 31.4061 21.265 31.3894 21.2262 31.371C21.1901 31.3543 21.1531 31.3368 21.1169 31.3192C21.1136 31.3181 21.1105 31.3167 21.1075 31.3148C21.0722 31.2973 21.0386 31.2797 21.0042 31.2622C21.0031 31.2622 21.0019 31.262 21.0009 31.2615C20.9999 31.2611 20.9989 31.2604 20.9982 31.2595C20.9612 31.2402 20.925 31.22 20.8889 31.1998C20.7787 31.1393 20.6703 31.0743 20.5653 31.005C20.5265 30.9813 20.4887 30.9558 20.4517 30.9286C20.4198 30.9067 20.3888 30.8847 20.3587 30.8628C20.3277 30.8408 20.2967 30.818 20.2666 30.7952C20.2589 30.789 20.2503 30.7829 20.2425 30.7768C20.2141 30.7548 20.1866 30.7329 20.159 30.7109C20.1263 30.6846 20.0936 30.6583 20.0618 30.631C20.0299 30.6038 19.9981 30.5766 19.9662 30.5485C19.8733 30.466 19.7821 30.38 19.6934 30.2896C19.6048 30.1992 19.5196 30.1061 19.4386 30.0105C19.412 29.9789 19.3853 29.9464 19.3586 29.9139C19.3319 29.8814 19.3061 29.8481 19.2803 29.8147C19.2545 29.7813 19.2295 29.748 19.2045 29.7138C19.183 29.6848 19.1624 29.6558 19.1417 29.626C19.1348 29.6172 19.1288 29.6084 19.1228 29.5997C19.1047 29.5742 19.0875 29.5479 19.0703 29.5215C19.0402 29.4777 19.0118 29.4338 18.9842 29.389C18.9636 29.3565 18.9446 29.324 18.9248 29.2916C18.9042 29.2573 18.8835 29.2222 18.8646 29.1871C18.8396 29.145 18.8164 29.1028 18.7949 29.0598C18.7768 29.0265 18.7596 28.9931 18.7424 28.9598C18.7415 28.9571 18.7398 28.9554 18.7398 28.9527C18.7217 28.9176 18.7045 28.8825 18.6882 28.8474L18.683 28.8369C18.6666 28.8026 18.6511 28.7684 18.6365 28.7342C18.6236 28.7078 18.6124 28.6806 18.6012 28.6534C18.5849 28.6157 18.5685 28.5779 18.5539 28.5393C18.5393 28.5033 18.5255 28.4673 18.5117 28.4305C18.4928 28.3804 18.4756 28.3295 18.4575 28.2786C18.4463 28.2453 18.4351 28.211 18.4248 28.1768C18.4136 28.1434 18.4033 28.1101 18.3938 28.0767C18.38 28.0284 18.3663 27.9802 18.3534 27.9319C18.331 27.8503 18.3112 27.7669 18.294 27.6835C18.2836 27.6352 18.2742 27.5878 18.2647 27.5395C18.2501 27.4623 18.2372 27.385 18.2268 27.3078C18.2208 27.2657 18.2148 27.2235 18.2105 27.1814C18.2053 27.1393 18.201 27.098 18.1976 27.0559C18.1933 27.0137 18.1898 26.9707 18.1872 26.9286C18.1786 26.8022 18.1735 26.6749 18.1735 26.5485V21.2573H23.3615C23.5276 21.2573 23.6937 21.2652 23.859 21.2819C23.9003 21.2854 23.9416 21.2898 23.9829 21.295C24.0242 21.3003 24.0655 21.3056 24.1068 21.3117C24.1421 21.317 24.1783 21.3223 24.2136 21.3284C24.2471 21.3337 24.2798 21.3398 24.3134 21.3468C24.3392 21.3512 24.3642 21.3565 24.39 21.3618C24.4184 21.367 24.4468 21.3732 24.4752 21.3802C24.5114 21.3872 24.5466 21.396 24.5819 21.4048C24.6103 21.4118 24.6379 21.4188 24.6646 21.4259C24.7041 21.4364 24.7429 21.4469 24.7816 21.4583C24.8186 21.4689 24.8548 21.4794 24.8909 21.4917C24.8988 21.4936 24.9065 21.496 24.9141 21.4987C24.9511 21.5101 24.9864 21.5224 25.0226 21.5347C25.0244 21.5349 25.0262 21.5355 25.0278 21.5364C25.0648 21.5487 25.1018 21.5619 25.1379 21.5759C25.1818 21.5917 25.2257 21.6084 25.2696 21.6269C25.3066 21.6418 25.3436 21.6576 25.3806 21.6734C25.651 21.7896 25.911 21.9294 26.1578 22.0912C26.2227 22.1333 26.2865 22.1781 26.3499 22.2235C26.3821 22.2467 26.4139 22.2705 26.4456 22.2944C26.4774 22.3184 26.5089 22.3428 26.5403 22.3677C26.5743 22.3947 26.6084 22.4215 26.6418 22.4493C26.6842 22.4846 26.726 22.5212 26.7675 22.5582C26.8086 22.5946 26.8489 22.6317 26.8887 22.6695C26.9208 22.7 26.9528 22.7306 26.9844 22.762C27.0136 22.791 27.0424 22.8204 27.071 22.85C27.0989 22.8791 27.126 22.9087 27.1532 22.9383C27.2047 22.9946 27.2551 23.0521 27.3043 23.1107C27.3255 23.1359 27.3471 23.1609 27.3678 23.1864C27.3994 23.2255 27.4299 23.2655 27.4604 23.3055C27.4766 23.3267 27.4927 23.3479 27.5085 23.3693C27.5398 23.4116 27.5704 23.4544 27.6006 23.4976C27.6116 23.5136 27.6223 23.5298 27.6332 23.5459C27.7323 23.6923 27.8242 23.8438 27.9084 23.9998C27.9194 24.0203 27.9307 24.0408 27.9415 24.0614C27.9642 24.1049 27.9862 24.1487 28.0077 24.1928C28.0223 24.2229 28.0365 24.253 28.0505 24.2832C28.0682 24.3213 28.0859 24.3593 28.1027 24.3978C28.1331 24.4676 28.1626 24.5378 28.1898 24.6087V24.6095C28.2053 24.649 28.22 24.6894 28.2346 24.7298C28.2492 24.7701 28.263 24.8105 28.2768 24.8518C28.2905 24.8922 28.3034 24.9325 28.3155 24.9738C28.3164 24.9756 28.3172 24.9764 28.3172 24.9782C28.3293 25.0186 28.3413 25.059 28.3525 25.1002C28.3645 25.1423 28.3757 25.1845 28.3861 25.2266C28.3938 25.2556 28.4007 25.2845 28.4076 25.3135C28.4153 25.346 28.4222 25.3785 28.4291 25.4118C28.4351 25.4399 28.4412 25.468 28.4463 25.4961C28.4523 25.525 28.4584 25.5531 28.4627 25.5821C28.4696 25.6172 28.4756 25.6523 28.4807 25.6874C28.4868 25.7208 28.4919 25.755 28.4962 25.7884C28.5023 25.8305 28.5074 25.8717 28.5126 25.9139C28.5177 25.956 28.522 25.9982 28.5255 26.0403C28.5539 26.3355 28.5573 26.6327 28.5358 26.9286Z" fill="#171717"/>
</g>
<defs>
<clipPath id="clip0_372_511">
<rect width="46.8151" height="50.4347" fill="white"/>
</clipPath>
</defs>
</svg>
