<svg width="215" height="84" viewBox="0 0 215 84" fill="none" xmlns="http://www.w3.org/2000/svg">
<rect x="1.16797" y="1" width="212" height="81.1869" rx="4.08012" fill="white" stroke="#D9D9D9" stroke-width="2"/>
<path d="M61.4585 65.035H35.847V56.1855C35.847 55.9645 35.759 55.7528 35.6026 55.5968L35.3784 55.8216L35.6026 55.5968C35.4462 55.4408 35.2343 55.3533 35.0135 55.3533C34.7928 55.3533 34.5808 55.4408 34.4245 55.5968L34.6487 55.8216L34.4245 55.5968C34.2681 55.7528 34.1801 55.9645 34.1801 56.1855V65.8671C34.1801 66.0881 34.2681 66.2998 34.4245 66.4558C34.5808 66.6118 34.7928 66.6992 35.0135 66.6992H62.2852C62.5058 66.6993 62.7178 66.6126 62.8752 66.4577C63.0326 66.3028 63.1226 66.0922 63.1255 65.8713H63.1255V65.8671V54.6279C63.1255 54.4069 63.0375 54.1952 62.8811 54.0392C62.8811 54.0392 62.8811 54.0392 62.8811 54.0392L61.4585 65.035Z" fill="#253C8C" stroke="#253C8C" stroke-width="0.635015"/>
<path d="M62.281 43.9337V43.9338L62.2893 43.9337C62.5081 43.9309 62.7173 43.8429 62.8723 43.6884C63.0273 43.5338 63.1158 43.3248 63.1186 43.1058L63.1187 43.1058V43.1016L63.1187 16.3896L63.1186 16.3855C63.1158 16.1665 63.0273 15.9575 62.8723 15.8029L62.8723 15.8029C62.7173 15.6483 62.5081 15.5604 62.2893 15.5575V15.5575H62.2852H35.0135C34.7928 15.5575 34.5808 15.645 34.4245 15.8009C34.2681 15.9569 34.1801 16.1687 34.1801 16.3896V42.4223C34.1801 42.6433 34.2681 42.8551 34.4245 43.011C34.5809 43.167 34.7928 43.2545 35.0135 43.2545C35.2343 43.2545 35.4462 43.167 35.6026 43.011C35.759 42.8551 35.847 42.6433 35.847 42.4223V17.2217H61.4517L61.4516 43.1016L61.4517 43.1058C61.4546 43.3248 61.5431 43.5338 61.6981 43.6884C61.853 43.8429 62.0622 43.9309 62.281 43.9337Z" fill="#253C8C" stroke="#253C8C" stroke-width="0.635015"/>
<path d="M35.0262 52.7147C34.9169 52.7192 34.8079 52.7016 34.7056 52.663C34.6031 52.6243 34.5094 52.5654 34.4303 52.4896C34.3511 52.4138 34.2881 52.3228 34.2451 52.222C34.2021 52.1213 34.18 52.0129 34.1801 51.9034L35.0262 52.7147ZM35.0262 52.7147C35.026 52.7147 35.0259 52.7147 35.0257 52.7147L35.0135 52.3975L35.0262 52.7147ZM35.0262 52.7147C35.2466 52.7061 35.4552 52.6128 35.6083 52.454C35.7615 52.295 35.8472 52.0829 35.847 51.862M35.0262 52.7147L35.847 51.862M35.847 51.862C35.847 51.8621 35.847 51.8622 35.847 51.8623H35.5295L35.847 51.862ZM35.847 51.862C35.847 51.6412 35.759 51.4295 35.6026 51.2736C35.4462 51.1176 35.2343 51.0301 35.0135 51.0301C34.7928 51.0301 34.5809 51.1176 34.4245 51.2736C34.2681 51.4296 34.1801 51.6413 34.1801 51.8623V51.9033L35.847 51.862Z" fill="#253C8C" stroke="#253C8C" stroke-width="0.635015"/>
<path d="M39.3065 27.1686H51.0021C51.0021 27.1686 51.0022 27.1686 51.0022 27.1686C51.1134 27.1686 51.2235 27.1465 51.326 27.1033C51.4285 27.0602 51.5214 26.997 51.5992 26.9174C51.6769 26.8378 51.7379 26.7434 51.7785 26.6398C51.8186 26.5377 51.838 26.4287 51.8357 26.319V22.5146C51.8357 22.2937 51.7477 22.0819 51.5913 21.9259C51.4349 21.77 51.223 21.6825 51.0022 21.6825H39.3065C39.0857 21.6825 38.8738 21.77 38.7174 21.9259C38.561 22.0819 38.473 22.2937 38.473 22.5146V26.3365C38.473 26.5575 38.561 26.7692 38.7174 26.9252C38.8738 27.0812 39.0857 27.1686 39.3065 27.1686ZM50.1687 23.3467V25.5044H40.1194V23.3467H50.1687Z" fill="#253C8C" stroke="#253C8C" stroke-width="0.635015"/>
<path d="M53.8711 27.1686H57.8819C57.882 27.1686 57.882 27.1686 57.882 27.1686C57.9932 27.1686 58.1033 27.1465 58.2058 27.1033C58.3084 27.0602 58.4013 26.997 58.479 26.9174L58.2518 26.6956L58.479 26.9174C58.5567 26.8378 58.6177 26.7434 58.6584 26.6398C58.6984 26.5377 58.7178 26.4287 58.7155 26.319V22.5146C58.7155 22.2937 58.6275 22.0819 58.4711 21.9259C58.3147 21.77 58.1028 21.6825 57.882 21.6825H53.8711C53.6503 21.6825 53.4384 21.77 53.282 21.9259C53.1256 22.0819 53.0376 22.2936 53.0376 22.5146V26.3365C53.0376 26.5575 53.1256 26.7692 53.282 26.9252C53.4384 27.0812 53.6503 27.1686 53.8711 27.1686ZM57.0485 23.3467V25.5044H54.7046V23.3467H57.0485Z" fill="#253C8C" stroke="#253C8C" stroke-width="0.635015"/>
<path d="M51.0022 33.9704V33.9704L51.0064 33.9703C51.2251 33.9675 51.4343 33.8795 51.5893 33.725C51.7443 33.5704 51.8328 33.3614 51.8357 33.1424H51.8357V33.1382V29.3232H51.8357L51.8357 29.319C51.8328 29.1001 51.7443 28.8911 51.5893 28.7365C51.4343 28.5819 51.2251 28.494 51.0064 28.4911V28.4911H51.0022H39.3065V28.4911L39.3024 28.4911C39.0836 28.494 38.8744 28.5819 38.7194 28.7365C38.5644 28.8911 38.4759 29.1001 38.473 29.319L38.473 29.319V29.3232V33.1382H38.473L38.473 33.1424C38.4759 33.3614 38.5644 33.5704 38.7194 33.725C38.8744 33.8795 39.0836 33.9675 39.3024 33.9703L39.3024 33.9704H39.3065H51.0022ZM50.1687 30.1553V32.3061H40.1194V30.1553H50.1687Z" fill="#253C8C" stroke="#253C8C" stroke-width="0.635015"/>
<path d="M57.882 33.9704V33.9704L57.8862 33.9703C58.105 33.9675 58.3142 33.8795 58.4691 33.725C58.6241 33.5704 58.7126 33.3614 58.7155 33.1424L58.7155 33.1424V33.1382V29.3232H58.7155L58.7155 29.319C58.7126 29.1001 58.6241 28.8911 58.4691 28.7365C58.3142 28.5819 58.105 28.494 57.8862 28.4911L57.8862 28.4911H57.882H53.8711V28.4911L53.8669 28.4911C53.6482 28.494 53.439 28.5819 53.284 28.7365C53.129 28.8911 53.0405 29.1001 53.0376 29.319L53.0376 29.319V29.3232V33.1382H53.0376L53.0376 33.1424C53.0405 33.3614 53.129 33.5704 53.284 33.725C53.439 33.8795 53.6482 33.9675 53.8669 33.9703L53.8669 33.9704H53.8711H57.882ZM57.0485 30.1553V32.3061H54.7046V30.1553H57.0485Z" fill="#253C8C" stroke="#253C8C" stroke-width="0.635015"/>
<path d="M39.3065 40.776H51.0022C51.223 40.776 51.4349 40.6885 51.5913 40.5326C51.7477 40.3766 51.8357 40.1648 51.8357 39.9439V36.1357C51.8357 35.9147 51.7477 35.703 51.5913 35.547C51.4349 35.3911 51.223 35.3036 51.0022 35.3036H39.3065C39.0857 35.3036 38.8738 35.3911 38.7174 35.547C38.561 35.703 38.473 35.9147 38.473 36.1357V39.9439C38.473 40.1648 38.561 40.3766 38.7174 40.5326C38.8738 40.6885 39.0857 40.776 39.3065 40.776ZM50.1687 37.0021V39.1117H40.1194V37.0021H50.1687Z" fill="#253C8C" stroke="#253C8C" stroke-width="0.635015"/>
<path d="M58.4711 40.5326L58.2469 40.3078L58.4711 40.5326C58.6275 40.3766 58.7155 40.1648 58.7155 39.9439V36.1357C58.7155 35.9147 58.6275 35.703 58.4711 35.547C58.3147 35.3911 58.1028 35.3036 57.882 35.3036H53.8711C53.6503 35.3036 53.4384 35.3911 53.282 35.547C53.1256 35.703 53.0376 35.9147 53.0376 36.1357V39.9439C53.0376 40.1648 53.1256 40.3766 53.282 40.5326C53.4384 40.6885 53.6503 40.776 53.8711 40.776H57.882C58.1028 40.776 58.3147 40.6885 58.4711 40.5326ZM57.0485 37.0021V39.1117H54.7046V37.0021H57.0485Z" fill="#253C8C" stroke="#253C8C" stroke-width="0.635015"/>
<path d="M39.3065 47.6393H51.0022C51.223 47.6393 51.4349 47.5518 51.5913 47.3959C51.7477 47.2399 51.8357 47.0281 51.8357 46.8072V42.999C51.8357 42.778 51.7477 42.5663 51.5913 42.4103C51.4349 42.2543 51.223 42.1669 51.0022 42.1669H39.3065C39.0857 42.1669 38.8738 42.2543 38.7174 42.4103C38.561 42.5663 38.473 42.778 38.473 42.999V46.8072C38.473 47.0281 38.561 47.2399 38.7174 47.3959C38.8738 47.5518 39.0857 47.6393 39.3065 47.6393ZM50.1687 43.8654V45.975H40.1194V43.8654H50.1687Z" fill="#253C8C" stroke="#253C8C" stroke-width="0.635015"/>
<path d="M58.4711 47.3959L58.2469 47.171L58.4711 47.3959C58.6275 47.2399 58.7155 47.0281 58.7155 46.8072V42.999C58.7155 42.778 58.6275 42.5663 58.4711 42.4103C58.3147 42.2543 58.1028 42.1669 57.882 42.1669H53.8711C53.6503 42.1669 53.4384 42.2543 53.282 42.4103C53.1256 42.5663 53.0376 42.778 53.0376 42.999V46.8072C53.0376 47.0281 53.1256 47.2399 53.282 47.3959C53.4384 47.5518 53.6503 47.6393 53.8711 47.6393H57.882C58.1028 47.6393 58.3147 47.5518 58.4711 47.3959ZM57.0485 43.8654V45.975H54.7046V43.8654H57.0485Z" fill="#253C8C" stroke="#253C8C" stroke-width="0.635015"/>
<path d="M74.598 49.23C74.0959 49.1539 73.5861 49.1567 73.087 49.2371C73.2869 48.5637 73.3893 47.8643 73.3902 47.1601C73.4108 45.3641 72.7211 43.6324 71.4709 42.34L71.4709 42.34L71.4672 42.3363C70.4362 41.3053 69.0974 40.6363 67.6524 40.43C66.2074 40.2237 64.7343 40.4911 63.4548 41.1921C62.1753 41.8931 61.1585 42.9898 60.5579 44.3172C59.9572 45.6446 59.8052 47.1308 60.1247 48.5519L60.1247 48.552L60.1253 48.5547C60.1756 48.7692 60.3082 48.9551 60.4943 49.0726C60.6804 49.1901 60.9052 49.23 61.1203 49.1838L61.1203 49.1839L61.1257 49.1826C61.3401 49.1327 61.5264 49.0007 61.6444 48.8148C61.7625 48.629 61.8026 48.4041 61.7562 48.1889L61.7562 48.1889L61.7558 48.1871C61.5191 47.1203 61.6354 46.0056 62.0874 45.0102C62.5393 44.0148 63.3026 43.192 64.2631 42.6655C65.2235 42.1389 66.3293 41.9368 67.4146 42.0897C68.4988 42.2425 69.5041 42.7411 70.2803 43.5109C71.2218 44.4897 71.7399 45.7981 71.7233 47.1541L71.7232 47.1541L71.7232 47.1601C71.7304 48.2781 71.3923 49.3714 70.7547 50.2913L70.7402 50.3121L70.7293 50.335C70.6549 50.4904 70.6306 50.665 70.6598 50.8348C70.6774 50.9372 70.714 51.0348 70.767 51.1228C70.6517 51.0532 70.5205 51.0122 70.3845 51.0042C70.1919 50.9929 70.0012 51.0487 69.8451 51.1622L69.8442 51.1629C69.0833 51.7205 68.1842 52.0603 67.2438 52.1458C66.3034 52.2313 65.3575 52.0591 64.5081 51.6479L64.5081 51.6479L64.5046 51.6462C64.4055 51.5997 64.2982 51.5731 64.1889 51.568C64.0795 51.5628 63.9702 51.5792 63.8672 51.6162C63.7641 51.6532 63.6693 51.7101 63.5882 51.7837C63.5072 51.8573 63.4413 51.9461 63.3946 52.0452C63.3479 52.1442 63.3211 52.2515 63.316 52.3609C63.3108 52.4704 63.3273 52.5797 63.3645 52.6827C63.4016 52.7857 63.4588 52.8804 63.5326 52.9613L63.7672 52.7473L63.5326 52.9613C63.6064 53.0422 63.6954 53.1077 63.7945 53.1543L63.7947 53.1543C64.6626 53.5611 65.6052 53.7851 66.5637 53.8123C67.3372 53.8343 68.1077 53.7277 68.8438 53.4982C68.7729 54.1305 68.8265 54.7725 69.0038 55.3874C69.233 56.1821 69.661 56.9055 70.2476 57.4896C70.6995 57.9414 71.2368 58.2993 71.8282 58.5426C72.4195 58.7858 73.0533 58.9096 73.6928 58.9069C73.693 58.9069 73.6931 58.9069 73.6933 58.9069L73.75 58.9069C74.4516 58.9234 75.1485 58.7887 75.7932 58.512C76.439 58.2349 77.0173 57.8217 77.4882 57.3007C77.9592 56.7798 78.3117 56.1634 78.5216 55.4938C78.7314 54.8242 78.7937 54.1172 78.7041 53.4213C78.6144 52.7254 78.375 52.0572 78.0023 51.4623C77.6296 50.8674 77.1324 50.3599 76.5448 49.9746C75.9572 49.5894 75.2931 49.3354 74.598 49.23ZM71.1616 51.7224C71.1462 51.6096 71.1079 51.5021 71.05 51.406C71.1387 51.4596 71.2372 51.4964 71.3404 51.5141C71.5101 51.5431 71.6847 51.519 71.8402 51.445L71.864 51.4336L71.8857 51.4185C72.504 50.9857 73.2559 50.7847 74.0086 50.851C74.7613 50.9173 75.4662 51.2465 75.9989 51.7805L76 51.7816C76.2977 52.0772 76.5334 52.4291 76.6933 52.8165C76.8532 53.2039 76.9341 53.6191 76.9313 54.038L76.9313 54.0407C76.9321 54.5401 76.8157 55.0329 76.5914 55.4795C76.3671 55.9262 76.0411 56.3144 75.6394 56.613C75.2377 56.9117 74.7714 57.1125 74.2779 57.1994C73.7843 57.2863 73.2773 57.2568 72.7972 57.1134C72.3171 56.9699 71.8774 56.7164 71.5133 56.3732C71.1491 56.0301 70.8706 55.6068 70.6999 55.1372C70.5291 54.6676 70.4709 54.1647 70.5299 53.6687C70.5889 53.1728 70.7634 52.6974 71.0395 52.2806L71.0397 52.2806L71.0448 52.2723C71.1464 52.1081 71.1878 51.9138 71.1616 51.7224Z" fill="#253C8C" stroke="#253C8C" stroke-width="0.635015"/>
<path d="M65.9384 67.0574L65.9425 67.0574C66.1613 67.0545 66.3705 66.9666 66.5255 66.812C66.6805 66.6574 66.7689 66.4484 66.7718 66.2294H66.7718V66.2253V44.0693C66.7718 43.8483 66.6838 43.6366 66.5274 43.4806C66.371 43.3246 66.1591 43.2372 65.9384 43.2372C65.7176 43.2372 65.5057 43.3246 65.3493 43.4806C65.1929 43.6366 65.1049 43.8483 65.1049 44.0693V66.2253C65.1049 66.4462 65.1929 66.658 65.3493 66.814C65.5057 66.9699 65.7176 67.0574 65.9384 67.0574Z" fill="#253C8C" stroke="#253C8C" stroke-width="0.635015"/>
<path d="M65.9796 52.1217C66.0891 52.1221 66.1975 52.1007 66.2987 52.0588C66.3999 52.0169 66.4919 51.9553 66.5691 51.8775C66.5693 51.8772 66.5696 51.877 66.5699 51.8767L69.9121 48.5434L69.9122 48.5435L69.9199 48.5353C70.0672 48.3776 70.1475 48.1689 70.1437 47.953C70.1399 47.7372 70.0522 47.5314 69.8994 47.379C69.7467 47.2267 69.5407 47.1395 69.3251 47.1357C69.1094 47.132 68.9005 47.2118 68.7425 47.3587L68.7423 47.3585L68.7344 47.3664L65.3908 50.7011L65.3907 50.7013C65.2345 50.8572 65.1466 51.0688 65.1466 51.2896C65.1466 51.5101 65.2342 51.7214 65.39 51.8773C65.4673 51.9552 65.5593 52.0169 65.6606 52.0588C65.7618 52.1007 65.8702 52.1221 65.9796 52.1217ZM65.9796 52.1217C65.9791 52.1217 65.9786 52.1217 65.9782 52.1217L65.9796 51.8042L65.9811 52.1217C65.9806 52.1217 65.9801 52.1217 65.9796 52.1217Z" fill="#253C8C" stroke="#253C8C" stroke-width="0.635015"/>
<path d="M60.8749 47.491V47.4911C61.0956 47.4911 61.3075 47.5786 61.4639 47.7345C61.6203 47.8905 61.7083 48.1022 61.7083 48.3232C61.7083 48.5442 61.6203 48.7559 61.4639 48.9119C61.3085 49.067 61.0981 49.1543 60.8787 49.1553C60.7347 49.1586 60.5913 49.1765 60.451 49.2089L60.443 49.2108L60.443 49.2107C59.8027 49.3413 59.2409 49.7202 58.881 50.2637C58.5212 50.8072 58.3926 51.4709 58.5234 52.1088C58.6542 52.7467 59.0338 53.3069 59.579 53.6659C60.1241 54.0249 60.7899 54.1534 61.43 54.0229C61.888 53.9276 62.3097 53.7059 62.6473 53.3832C62.982 53.0633 63.2205 52.6569 63.3365 52.2097C63.3556 52.1015 63.396 51.9982 63.4554 51.9057C63.5178 51.8084 63.5998 51.7251 63.6962 51.6612C63.7925 51.5973 63.9011 51.5542 64.0151 51.5345C64.129 51.5148 64.2457 51.519 64.3579 51.5468L64.2816 51.855L64.3579 51.5468C64.4702 51.5746 64.5754 51.6254 64.6669 51.696L64.473 51.9474L64.6669 51.696C64.7585 51.7666 64.8343 51.8555 64.8896 51.9571C64.9449 52.0587 64.9784 52.1706 64.988 52.2859C64.9971 52.3959 64.9841 52.5066 64.95 52.6115C64.7601 53.3665 64.3613 54.0532 63.799 54.593C63.2337 55.1358 62.5261 55.5082 61.7579 55.6672L61.754 55.668L61.754 55.668C61.4879 55.7196 61.2176 55.7468 60.9466 55.7493M60.8749 47.491L60.9437 55.4318M60.8749 47.491L60.8684 47.4912C60.6189 47.4962 60.3704 47.5234 60.1257 47.5725M60.8749 47.491L60.1869 47.8841M60.9466 55.7493L60.9437 55.4318M60.9466 55.7493C60.9466 55.7493 60.9466 55.7493 60.9466 55.7493L60.9437 55.4318M60.9466 55.7493C59.9145 55.759 58.916 55.3834 58.1472 54.6961C57.3784 54.0088 56.895 53.0594 56.7923 52.0344C56.6895 51.0094 56.9748 49.9832 57.592 49.1576C58.2089 48.3323 59.1127 47.7671 60.1257 47.5725M60.9437 55.4318C59.9906 55.4408 59.0686 55.0939 58.3589 54.4594C57.6491 53.8249 57.203 52.9486 57.1082 52.0027C57.0134 51.0568 57.2766 50.1098 57.8463 49.3477C58.416 48.5856 59.2509 48.0635 60.1869 47.8841M60.1257 47.5725C60.1252 47.5726 60.1248 47.5727 60.1243 47.5728L60.1869 47.8841M60.1257 47.5725C60.1262 47.5724 60.1266 47.5723 60.1271 47.5722L60.1869 47.8841" fill="#253C8C" stroke="#253C8C" stroke-width="0.635015"/>
<path d="M65.6795 60.0116L65.6794 60.0118L65.687 60.0189C65.8415 60.1634 66.0455 60.243 66.2568 60.2418C66.3635 60.2456 66.47 60.2282 66.5701 60.1906L66.4582 59.8934L66.5701 60.1906C66.6735 60.1517 66.7678 60.0919 66.8472 60.0149L66.8473 60.015L66.8518 60.0104L70.2073 56.6227C70.2852 56.5463 70.3473 56.4553 70.3898 56.3547C70.4327 56.2532 70.4549 56.144 70.4549 56.0337C70.4549 55.9234 70.4327 55.8142 70.3898 55.7127C70.3471 55.6117 70.2847 55.5203 70.2062 55.4437C70.05 55.2888 69.8389 55.202 69.6189 55.202C69.3983 55.202 69.1866 55.2893 69.0302 55.4451L69.0302 55.4451L69.0285 55.4468L65.6787 58.8358C65.523 58.9917 65.4354 59.2029 65.4354 59.4233C65.4354 59.6441 65.5233 59.8557 65.6795 60.0116Z" fill="#253C8C" stroke="#253C8C" stroke-width="0.635015"/>
<path d="M35.8645 51.5275C35.9333 51.5543 36.0058 51.5721 36.0802 51.5799C36.2628 51.5991 36.4468 51.5575 36.6035 51.4616L36.6112 51.4568L36.6186 51.4517C37.0998 51.1178 37.6635 50.9215 38.2487 50.8842C38.8338 50.847 39.418 50.9701 39.9379 51.2403C40.4578 51.5105 40.8936 51.9174 41.198 52.4168C41.5024 52.9161 41.6639 53.489 41.6652 54.0732L35.8645 51.5275ZM35.8645 51.5275C35.8922 51.5968 35.9107 51.67 35.919 51.7453C35.9414 51.9481 35.8884 52.1518 35.7704 52.3178C35.496 52.7335 35.3226 53.2072 35.2639 53.7013C35.2049 54.1973 35.2631 54.7001 35.4338 55.1697C35.6045 55.6393 35.8831 56.0626 36.2472 56.4058C36.6114 56.7489 37.0511 57.0024 37.5311 57.1459C38.0112 57.2894 38.5183 57.3189 39.0119 57.232C39.5054 57.1451 39.9717 56.9442 40.3734 56.6456C40.7751 56.3469 41.1011 55.9587 41.3254 55.512C41.5496 55.0654 41.666 54.5728 41.6652 54.0734L35.8645 51.5275ZM38.4334 58.9051L38.7502 58.9044V58.8747C39.3424 58.8497 39.926 58.7172 40.4721 58.4828C41.118 58.2056 41.6962 57.7924 42.1672 57.2715C42.6381 56.7505 42.9906 56.1342 43.2005 55.4646C43.4104 54.7949 43.4726 54.088 43.383 53.3921C43.2934 52.6962 43.054 52.0279 42.6812 51.433C42.3085 50.8381 41.8113 50.3307 41.2237 49.9454C40.6361 49.5602 39.972 49.3062 39.2769 49.2008C38.7755 49.1248 38.2665 49.1274 37.7682 49.2075C37.9697 48.5345 38.0714 47.8346 38.0691 47.1301C38.0895 45.3343 37.3999 43.603 36.1498 42.3108L36.1498 42.3108L36.1465 42.3074C35.1167 41.274 33.7779 40.603 32.3322 40.3955C30.8865 40.188 29.4124 40.4552 28.1323 41.157C26.8523 41.8587 25.8358 42.9569 25.2365 44.2859C24.6372 45.6148 24.4877 47.1022 24.8107 48.5234L24.8107 48.5234L24.8113 48.5264C24.8617 48.7384 24.9926 48.9225 25.1762 49.0397C25.3598 49.157 25.5817 49.1984 25.7953 49.1554L25.7953 49.1555L25.8006 49.1543C25.908 49.1308 26.0097 49.0862 26.0998 49.0232L25.9259 48.7743L26.0998 49.0232C26.19 48.9602 26.2668 48.88 26.3257 48.7871L26.0577 48.6169L26.3257 48.7871C26.3847 48.6943 26.4247 48.5907 26.4433 48.4822C26.4617 48.3747 26.4589 48.2647 26.4348 48.1583C26.208 47.0917 26.3331 45.9806 26.7915 44.9906C27.2502 43.9999 28.0181 43.1838 28.9806 42.6642C29.9431 42.1446 31.0484 41.9496 32.1313 42.1084C33.2132 42.267 34.2146 42.7702 34.986 43.5427C35.9253 44.5226 36.4412 45.831 36.4228 47.1862L36.4228 47.1862L36.4228 47.1926C36.43 48.3107 36.0918 49.4039 35.4543 50.3238L35.4449 50.3373L35.4371 50.3516C35.3484 50.5126 35.3156 50.6984 35.3439 50.88C35.353 50.9386 35.3683 50.9957 35.3893 51.0504C35.3016 51.0144 35.2077 50.9931 35.1114 50.9883C34.9106 50.9783 34.7128 51.0406 34.554 51.1637C33.7975 51.7133 32.9059 52.0485 31.9737 52.1338C31.0397 52.2192 30.1 52.0504 29.2546 51.6455L29.2529 51.6447C29.1538 51.598 29.0464 51.5712 28.9369 51.5659C28.8274 51.5606 28.7179 51.577 28.6147 51.614L28.722 51.9129L28.6147 51.614C28.5115 51.6511 28.4167 51.7081 28.3355 51.7819L28.5492 52.0168L28.3355 51.7819C28.2544 51.8557 28.1886 51.9447 28.1421 52.044L28.142 52.044L28.1408 52.0466C28.0494 52.2462 28.0399 52.4736 28.1144 52.6801L28.4131 52.5723L28.1144 52.6801C28.1889 52.8866 28.3415 53.0555 28.5391 53.151L28.5391 53.151L28.5424 53.1525C29.4103 53.5594 30.3529 53.7834 31.3114 53.8106C32.0842 53.8325 32.8539 53.7262 33.5894 53.4971C33.5273 54.0355 33.5558 54.5818 33.6752 55.1133C33.8358 55.8281 34.1565 56.4974 34.6133 57.0709C35.0701 57.6445 35.6511 58.1074 36.3127 58.425C36.9743 58.7426 37.6993 58.9067 38.4334 58.9051Z" fill="#253C8C" stroke="#253C8C" stroke-width="0.635015"/>
<path d="M31.3946 67.0574L31.3988 67.0574C31.6176 67.0545 31.8268 66.9666 31.9817 66.812C32.1367 66.6574 32.2252 66.4484 32.2281 66.2294H32.2281V66.2253V44.0693C32.2281 43.8483 32.1401 43.6366 31.9837 43.4806C31.8273 43.3246 31.6154 43.2372 31.3946 43.2372C31.1739 43.2372 30.962 43.3246 30.8056 43.4806C30.6492 43.6366 30.5612 43.8483 30.5612 44.0693V66.2253C30.5612 66.4462 30.6492 66.658 30.8056 66.814C30.962 66.9699 31.1739 67.0574 31.3946 67.0574Z" fill="#253C8C" stroke="#253C8C" stroke-width="0.635015"/>
<path d="M28.5987 47.3671L28.5986 47.367C28.4423 47.2112 28.2305 47.1239 28.0099 47.1239C27.7899 47.1239 27.5788 47.2107 27.4226 47.3656C27.3442 47.4421 27.2818 47.5336 27.2391 47.6345C27.1961 47.7361 27.1739 47.8453 27.1739 47.9556C27.1739 48.0659 27.1961 48.175 27.2391 48.2766C27.2817 48.3775 27.344 48.4688 27.4223 48.5453L30.7623 51.8764C30.8391 51.956 30.9315 52.0188 31.0338 52.0612L31.1552 51.7678L31.0338 52.0612C31.136 52.1035 31.2457 52.1243 31.3563 52.1224C31.4648 52.1224 31.5722 52.101 31.6725 52.0595C31.7736 52.0176 31.8653 51.9562 31.9425 51.8786C32.0987 51.7227 32.1865 51.5111 32.1865 51.2903C32.1865 51.0695 32.0987 50.8579 31.9425 50.702L31.9423 50.7018L28.5987 47.3671Z" fill="#253C8C" stroke="#253C8C" stroke-width="0.635015"/>
<path d="M25.6226 47.491V47.4911C25.8434 47.4911 26.0553 47.5786 26.2116 47.7345C26.368 47.8905 26.4561 48.1022 26.4561 48.3232C26.4561 48.5442 26.368 48.7559 26.2116 48.9119C26.0561 49.067 25.8456 49.1544 25.6261 49.1553M25.6226 47.491V48.8378M25.6226 47.491L25.6172 47.4911C25.3683 47.4953 25.1203 47.5224 24.8764 47.5719C23.8474 47.7468 22.9228 48.304 22.2888 49.1317C21.6538 49.961 21.3579 50.9998 21.4611 52.0384C21.5642 53.077 22.0588 54.0377 22.8446 54.7264C23.6301 55.4148 24.6481 55.7803 25.693 55.7492M25.6226 47.491L25.6845 55.4318M25.6261 49.1553C25.6249 49.1553 25.6237 49.1553 25.6226 49.1553V48.8378M25.6261 49.1553C25.6269 49.1553 25.6278 49.1553 25.6286 49.1553L25.6226 48.8378M25.6261 49.1553C25.485 49.1582 25.3446 49.176 25.2073 49.2085L25.1949 49.2115L25.1948 49.2112C24.8776 49.273 24.5759 49.3972 24.3073 49.5764C24.0427 49.7531 23.8156 49.9796 23.6386 50.2433M25.6226 48.8378C25.458 48.841 25.2942 48.8617 25.1341 48.8996C24.7756 48.9694 24.4346 49.1097 24.1311 49.3124C23.8275 49.515 23.5674 49.7759 23.366 50.0798M23.6386 50.2433C23.6408 50.2391 23.643 50.2349 23.6453 50.2307L23.366 50.0798M23.6386 50.2433C23.6359 50.2473 23.6333 50.2512 23.6306 50.2552L23.366 50.0798M23.6386 50.2433C23.4828 50.5356 23.3886 50.8566 23.3619 51.1866C23.3347 51.5213 23.3775 51.858 23.4876 52.1753C23.5977 52.4927 23.7726 52.7839 24.0014 53.0305C24.2303 53.277 24.5079 53.4736 24.817 53.6077C25.126 53.7417 25.4596 53.8104 25.7966 53.8092C26.1337 53.8081 26.4668 53.7372 26.7749 53.601C27.083 53.4649 27.3593 53.2664 27.5865 53.0183C27.8113 52.7727 27.9831 52.4837 28.0912 52.1692M23.366 50.0798C23.1853 50.4141 23.0761 50.7823 23.0454 51.1609C23.0147 51.5395 23.0631 51.9204 23.1876 52.2794C23.3121 52.6384 23.51 52.9677 23.7687 53.2464C24.0274 53.5252 24.3413 53.7474 24.6906 53.8989C25.0398 54.0505 25.4168 54.128 25.7977 54.1268C26.1786 54.1255 26.555 54.0453 26.9032 53.8914C27.2515 53.7376 27.5638 53.5132 27.8206 53.2327C28.0775 52.9522 28.2731 52.6216 28.3951 52.2617M28.3951 52.2617L28.0877 52.1823C28.0889 52.1779 28.09 52.1735 28.0912 52.1692M28.3951 52.2617C28.4293 52.1297 28.5139 52.0162 28.631 51.9457C28.748 51.8751 28.8881 51.8531 29.0212 51.8844C29.1536 51.9184 29.2674 52.0029 29.3381 52.1196C29.4088 52.2363 29.4309 52.376 29.3996 52.5088C29.2254 53.2105 28.8559 53.8489 28.3337 54.3503C27.8115 54.8516 27.1579 55.1956 26.4481 55.3426M28.3951 52.2617L28.0945 52.1597C28.0934 52.1629 28.0923 52.1661 28.0912 52.1692M28.0912 52.1692C28.1483 51.9621 28.2829 51.7848 28.4671 51.6737L28.6229 51.9323L28.4671 51.6737C28.6551 51.5604 28.88 51.5251 29.0937 51.5752L29.1003 51.5768L29.1003 51.5769C29.3129 51.6315 29.4958 51.7672 29.6096 51.955C29.7235 52.1429 29.7591 52.3679 29.7086 52.5817L29.7078 52.5853L29.7077 52.5852C29.5191 53.3452 29.119 54.0365 28.5536 54.5793C27.9885 55.1219 27.2812 55.4942 26.5133 55.6533M26.5133 55.6533C26.5136 55.6533 26.5139 55.6532 26.5141 55.6532L26.4481 55.3426M26.5133 55.6533C26.5131 55.6534 26.5128 55.6534 26.5125 55.6535L26.4481 55.3426M26.5133 55.6533C26.2434 55.7106 25.9688 55.7427 25.693 55.7492M26.4481 55.3426C26.1969 55.3959 25.9413 55.4258 25.6845 55.4318M25.6845 55.4318L25.694 55.7491C25.6937 55.7492 25.6933 55.7492 25.693 55.7492M25.6845 55.4318L25.6919 55.7492C25.6922 55.7492 25.6926 55.7492 25.693 55.7492" fill="#253C8C" stroke="#253C8C" stroke-width="0.635015"/>
<path d="M31.0705 58.6592C31.1803 58.66 31.2892 58.6388 31.3907 58.5968C31.4917 58.555 31.5834 58.4934 31.6602 58.4157C31.7379 58.3394 31.7998 58.2485 31.8423 58.1481C31.8853 58.0465 31.9074 57.9374 31.9074 57.8271C31.9074 57.7168 31.8853 57.6076 31.8423 57.5061C31.7996 57.4052 31.7373 57.3139 31.659 57.2373L28.2204 53.8078L28.2205 53.8077L28.2123 53.8001C28.0543 53.6532 27.8454 53.5734 27.6297 53.5772C27.414 53.5809 27.2081 53.6681 27.0553 53.8205C26.9025 53.9728 26.8149 54.1786 26.811 54.3945C26.8072 54.6103 26.8876 54.819 27.0349 54.9767L27.0348 54.9769L27.0427 54.9848L30.4812 58.4142C30.4815 58.4144 30.4817 58.4147 30.482 58.4149C30.5592 58.4927 30.6511 58.5544 30.7524 58.5963C30.8533 58.638 30.9614 58.6594 31.0705 58.6592ZM31.0705 58.6592C31.0697 58.6592 31.0689 58.6592 31.0681 58.6592L31.0714 58.3417L31.0729 58.6592C31.0721 58.6592 31.0713 58.6592 31.0705 58.6592Z" fill="#253C8C" stroke="#253C8C" stroke-width="0.635015"/>
<path d="M132.358 20.9502C132.582 21.3362 132.831 21.8087 133.105 22.3675C133.38 22.9263 133.659 23.5156 133.943 24.1354C134.228 24.745 134.507 25.3699 134.782 26.0099C135.066 26.6399 135.325 27.2241 135.559 27.7626C135.793 27.2241 136.047 26.6399 136.321 26.0099C136.595 25.3699 136.875 24.745 137.159 24.1354C137.444 23.5156 137.723 22.9263 137.997 22.3675C138.272 21.8087 138.521 21.3362 138.744 20.9502H140.482C140.573 21.7223 140.659 22.5453 140.741 23.4191C140.822 24.2827 140.893 25.1717 140.954 26.0862C141.025 26.9904 141.086 27.9048 141.137 28.8294C141.198 29.7438 141.249 30.6379 141.289 31.5117H139.4C139.359 30.2823 139.308 29.0174 139.247 27.7169C139.196 26.4164 139.115 25.1565 139.003 23.9373C138.892 24.1709 138.759 24.4504 138.607 24.7755C138.455 25.1006 138.292 25.4562 138.119 25.8423C137.947 26.2182 137.769 26.6094 137.586 27.0158C137.413 27.4222 137.24 27.8185 137.068 28.2046C136.905 28.5805 136.753 28.9361 136.611 29.2714C136.468 29.5965 136.346 29.8759 136.245 30.1096H134.812C134.711 29.8759 134.589 29.5914 134.446 29.2561C134.304 28.9209 134.147 28.5652 133.974 28.1893C133.811 27.8032 133.639 27.407 133.456 27.0006C133.283 26.5942 133.11 26.203 132.938 25.8271C132.765 25.4511 132.602 25.1006 132.45 24.7755C132.298 24.4402 132.165 24.1608 132.054 23.9373C131.942 25.1565 131.856 26.4164 131.795 27.7169C131.744 29.0174 131.698 30.2823 131.657 31.5117H129.768C129.808 30.6379 129.854 29.7337 129.905 28.7989C129.966 27.8642 130.027 26.9396 130.088 26.0252C130.159 25.1006 130.235 24.2065 130.316 23.3429C130.398 22.4793 130.484 21.6817 130.575 20.9502H132.358ZM150.644 27.5187C150.644 28.1487 150.552 28.7227 150.369 29.2409C150.186 29.7591 149.927 30.201 149.592 30.5668C149.257 30.9326 148.85 31.2171 148.373 31.4203C147.906 31.6235 147.387 31.7251 146.818 31.7251C146.249 31.7251 145.731 31.6235 145.264 31.4203C144.796 31.2171 144.395 30.9326 144.06 30.5668C143.725 30.201 143.46 29.7591 143.267 29.2409C143.084 28.7227 142.993 28.1487 142.993 27.5187C142.993 26.8888 143.084 26.3198 143.267 25.8118C143.46 25.2937 143.725 24.8517 144.06 24.4859C144.405 24.1201 144.812 23.8407 145.279 23.6477C145.746 23.4445 146.26 23.3429 146.818 23.3429C147.377 23.3429 147.89 23.4445 148.358 23.6477C148.835 23.8407 149.242 24.1201 149.577 24.4859C149.912 24.8517 150.171 25.2937 150.354 25.8118C150.547 26.3198 150.644 26.8888 150.644 27.5187ZM148.754 27.5187C148.754 26.7262 148.581 26.1014 148.236 25.6442C147.9 25.1768 147.428 24.9431 146.818 24.9431C146.209 24.9431 145.731 25.1768 145.386 25.6442C145.05 26.1014 144.883 26.7262 144.883 27.5187C144.883 28.3214 145.05 28.9564 145.386 29.4238C145.731 29.8912 146.209 30.1248 146.818 30.1248C147.428 30.1248 147.9 29.8912 148.236 29.4238C148.581 28.9564 148.754 28.3214 148.754 27.5187ZM157.085 25.2022C156.933 25.1514 156.719 25.1006 156.445 25.0498C156.181 24.9888 155.871 24.9584 155.515 24.9584C155.312 24.9584 155.094 24.9787 154.86 25.0193C154.637 25.06 154.479 25.0955 154.388 25.126V31.5117H152.544V23.922C152.899 23.7899 153.341 23.668 153.869 23.5563C154.408 23.4343 155.002 23.3734 155.653 23.3734C155.774 23.3734 155.917 23.3835 156.079 23.4038C156.242 23.414 156.404 23.4343 156.567 23.4648C156.73 23.4851 156.887 23.5156 157.039 23.5563C157.192 23.5867 157.314 23.6172 157.405 23.6477L157.085 25.2022ZM161.494 30.2163C162.063 30.2163 162.495 30.1858 162.79 30.1248V28.0826C162.688 28.0522 162.541 28.0217 162.348 27.9912C162.155 27.9607 161.942 27.9455 161.708 27.9455C161.505 27.9455 161.296 27.9607 161.083 27.9912C160.88 28.0217 160.692 28.0776 160.519 28.1588C160.357 28.2401 160.224 28.357 160.123 28.5094C160.021 28.6516 159.97 28.8345 159.97 29.058C159.97 29.4949 160.108 29.7997 160.382 29.9724C160.656 30.135 161.027 30.2163 161.494 30.2163ZM161.342 23.3429C161.952 23.3429 162.465 23.4191 162.881 23.5715C163.298 23.7239 163.628 23.9373 163.872 24.2116C164.126 24.4859 164.304 24.8212 164.405 25.2175C164.517 25.6035 164.573 26.0303 164.573 26.4976V31.3288C164.289 31.3898 163.857 31.4609 163.278 31.5422C162.709 31.6336 162.063 31.6794 161.342 31.6794C160.865 31.6794 160.428 31.6336 160.031 31.5422C159.635 31.4508 159.295 31.3034 159.01 31.1002C158.736 30.897 158.518 30.6329 158.355 30.3077C158.203 29.9826 158.126 29.5813 158.126 29.1037C158.126 28.6465 158.213 28.2604 158.385 27.9455C158.568 27.6305 158.812 27.3765 159.117 27.1835C159.422 26.9803 159.772 26.838 160.169 26.7567C160.575 26.6653 160.997 26.6196 161.434 26.6196C161.637 26.6196 161.85 26.6348 162.074 26.6653C162.297 26.6856 162.536 26.7262 162.79 26.7872V26.4824C162.79 26.269 162.765 26.0658 162.714 25.8728C162.663 25.6797 162.571 25.5121 162.439 25.3699C162.317 25.2175 162.15 25.1006 161.936 25.0193C161.733 24.938 161.474 24.8974 161.159 24.8974C160.732 24.8974 160.341 24.9279 159.986 24.9888C159.63 25.0498 159.341 25.1209 159.117 25.2022L158.888 23.7087C159.122 23.6274 159.462 23.5461 159.909 23.4648C160.357 23.3835 160.834 23.3429 161.342 23.3429ZM168.279 27.5035C168.279 28.3163 168.472 28.9564 168.858 29.4238C169.244 29.881 169.778 30.1096 170.459 30.1096C170.753 30.1096 171.002 30.0994 171.205 30.0791C171.419 30.0486 171.591 30.0182 171.723 29.9877V25.4156C171.561 25.3038 171.342 25.2022 171.068 25.1108C170.804 25.0092 170.52 24.9584 170.215 24.9584C169.544 24.9584 169.051 25.187 168.736 25.6442C168.432 26.1014 168.279 26.7212 168.279 27.5035ZM173.568 31.2679C173.202 31.3796 172.74 31.4812 172.181 31.5727C171.632 31.6641 171.053 31.7098 170.443 31.7098C169.813 31.7098 169.249 31.6133 168.752 31.4203C168.254 31.2272 167.827 30.9529 167.471 30.5973C167.126 30.2315 166.857 29.7946 166.664 29.2866C166.481 28.7685 166.389 28.1893 166.389 27.5492C166.389 26.9193 166.466 26.3503 166.618 25.8423C166.781 25.3241 167.014 24.8822 167.319 24.5164C167.624 24.1506 167.995 23.8712 168.432 23.6782C168.868 23.475 169.371 23.3734 169.94 23.3734C170.326 23.3734 170.667 23.4191 170.961 23.5105C171.256 23.602 171.51 23.7036 171.723 23.8153V19.99L173.568 19.6852V31.2679ZM177.769 31.5117H175.925V23.541H177.769V31.5117ZM177.968 21.2092C177.968 21.5547 177.856 21.829 177.632 22.0322C177.409 22.2354 177.145 22.337 176.84 22.337C176.525 22.337 176.256 22.2354 176.032 22.0322C175.808 21.829 175.697 21.5547 175.697 21.2092C175.697 20.8536 175.808 20.5742 176.032 20.371C176.256 20.1678 176.525 20.0662 176.84 20.0662C177.145 20.0662 177.409 20.1678 177.632 20.371C177.856 20.5742 177.968 20.8536 177.968 21.2092ZM182.926 30.2163C183.495 30.2163 183.927 30.1858 184.222 30.1248V28.0826C184.12 28.0522 183.973 28.0217 183.78 27.9912C183.587 27.9607 183.373 27.9455 183.14 27.9455C182.936 27.9455 182.728 27.9607 182.515 27.9912C182.312 28.0217 182.124 28.0776 181.951 28.1588C181.788 28.2401 181.656 28.357 181.555 28.5094C181.453 28.6516 181.402 28.8345 181.402 29.058C181.402 29.4949 181.539 29.7997 181.814 29.9724C182.088 30.135 182.459 30.2163 182.926 30.2163ZM182.774 23.3429C183.383 23.3429 183.897 23.4191 184.313 23.5715C184.73 23.7239 185.06 23.9373 185.304 24.2116C185.558 24.4859 185.736 24.8212 185.837 25.2175C185.949 25.6035 186.005 26.0303 186.005 26.4976V31.3288C185.72 31.3898 185.288 31.4609 184.709 31.5422C184.14 31.6336 183.495 31.6794 182.774 31.6794C182.296 31.6794 181.859 31.6336 181.463 31.5422C181.067 31.4508 180.727 31.3034 180.442 31.1002C180.168 30.897 179.949 30.6329 179.787 30.3077C179.634 29.9826 179.558 29.5813 179.558 29.1037C179.558 28.6465 179.644 28.2604 179.817 27.9455C180 27.6305 180.244 27.3765 180.549 27.1835C180.854 26.9803 181.204 26.838 181.6 26.7567C182.007 26.6653 182.428 26.6196 182.865 26.6196C183.068 26.6196 183.282 26.6348 183.505 26.6653C183.729 26.6856 183.968 26.7262 184.222 26.7872V26.4824C184.222 26.269 184.196 26.0658 184.145 25.8728C184.095 25.6797 184.003 25.5121 183.871 25.3699C183.749 25.2175 183.582 25.1006 183.368 25.0193C183.165 24.938 182.906 24.8974 182.591 24.8974C182.164 24.8974 181.773 24.9279 181.417 24.9888C181.062 25.0498 180.772 25.1209 180.549 25.2022L180.32 23.7087C180.554 23.6274 180.894 23.5461 181.341 23.4648C181.788 23.3835 182.266 23.3429 182.774 23.3429Z" fill="black"/>
<path d="M131.367 56.8682C130.996 56.8682 130.658 56.8072 130.354 56.6853C130.049 56.5634 129.787 56.3856 129.569 56.1519C129.35 55.9182 129.18 55.6312 129.058 55.2908C128.941 54.9454 128.883 54.5517 128.883 54.1097C128.883 53.6677 128.949 53.2766 129.081 52.9362C129.218 52.5907 129.401 52.3012 129.63 52.0675C129.858 51.8338 130.125 51.656 130.43 51.5341C130.735 51.4122 131.06 51.3512 131.405 51.3512C131.624 51.3512 131.819 51.3664 131.992 51.3969C132.17 51.4274 132.322 51.463 132.449 51.5036C132.581 51.5442 132.688 51.5849 132.769 51.6255C132.85 51.6662 132.906 51.6966 132.937 51.717L132.723 52.3266C132.678 52.2961 132.612 52.2631 132.525 52.2275C132.439 52.192 132.34 52.1564 132.228 52.1208C132.121 52.0853 132.002 52.0573 131.87 52.037C131.743 52.0116 131.613 51.9989 131.481 51.9989C131.202 51.9989 130.95 52.0472 130.727 52.1437C130.503 52.2402 130.313 52.3799 130.155 52.5628C129.998 52.7457 129.876 52.9692 129.79 53.2334C129.708 53.4925 129.668 53.7846 129.668 54.1097C129.668 54.4247 129.703 54.7117 129.774 54.9708C129.851 55.2299 129.962 55.4534 130.11 55.6414C130.257 55.8242 130.44 55.9665 130.658 56.0681C130.882 56.1697 131.141 56.2205 131.436 56.2205C131.776 56.2205 132.058 56.1849 132.281 56.1138C132.505 56.0427 132.673 55.9792 132.784 55.9233L132.975 56.5329C132.939 56.5583 132.876 56.5913 132.784 56.632C132.693 56.6675 132.579 56.7031 132.442 56.7387C132.304 56.7742 132.144 56.8047 131.961 56.8301C131.779 56.8555 131.58 56.8682 131.367 56.8682ZM137.162 54.7727C137.162 55.0876 137.116 55.3721 137.025 55.6261C136.933 55.8801 136.804 56.0986 136.636 56.2815C136.474 56.4643 136.278 56.6066 136.049 56.7082C135.821 56.8047 135.572 56.853 135.303 56.853C135.033 56.853 134.784 56.8047 134.556 56.7082C134.327 56.6066 134.129 56.4643 133.961 56.2815C133.799 56.0986 133.672 55.8801 133.58 55.6261C133.489 55.3721 133.443 55.0876 133.443 54.7727C133.443 54.4628 133.489 54.1808 133.58 53.9268C133.672 53.6677 133.799 53.4467 133.961 53.2639C134.129 53.081 134.327 52.9413 134.556 52.8448C134.784 52.7432 135.033 52.6924 135.303 52.6924C135.572 52.6924 135.821 52.7432 136.049 52.8448C136.278 52.9413 136.474 53.081 136.636 53.2639C136.804 53.4467 136.933 53.6677 137.025 53.9268C137.116 54.1808 137.162 54.4628 137.162 54.7727ZM136.423 54.7727C136.423 54.3256 136.321 53.9725 136.118 53.7135C135.92 53.4493 135.648 53.3172 135.303 53.3172C134.957 53.3172 134.683 53.4493 134.48 53.7135C134.282 53.9725 134.182 54.3256 134.182 54.7727C134.182 55.2197 134.282 55.5753 134.48 55.8395C134.683 56.0986 134.957 56.2281 135.303 56.2281C135.648 56.2281 135.92 56.0986 136.118 55.8395C136.321 55.5753 136.423 55.2197 136.423 54.7727ZM138.159 52.9057C138.322 52.8651 138.537 52.8219 138.807 52.7762C139.076 52.7305 139.386 52.7076 139.736 52.7076C140.051 52.7076 140.313 52.7533 140.521 52.8448C140.73 52.9311 140.895 53.0556 141.017 53.2181C141.144 53.3756 141.232 53.5661 141.283 53.7897C141.334 54.0132 141.36 54.2596 141.36 54.5288V56.7539H140.651V54.6812C140.651 54.4374 140.633 54.2291 140.597 54.0564C140.567 53.8836 140.514 53.7439 140.437 53.6373C140.361 53.5306 140.26 53.4544 140.133 53.4086C140.006 53.3578 139.848 53.3324 139.66 53.3324C139.584 53.3324 139.505 53.335 139.424 53.3401C139.343 53.3451 139.264 53.3528 139.188 53.3629C139.117 53.368 139.051 53.3756 138.99 53.3858C138.934 53.3959 138.893 53.4036 138.868 53.4086V56.7539H138.159V52.9057ZM143.457 56.2434C143.746 56.2434 143.96 56.2053 144.097 56.1291C144.239 56.0528 144.31 55.9309 144.31 55.7633C144.31 55.5906 144.242 55.4534 144.104 55.3518C143.967 55.2502 143.741 55.1359 143.426 55.0089C143.274 54.9479 143.127 54.887 142.984 54.826C142.847 54.76 142.728 54.6838 142.626 54.5974C142.525 54.511 142.443 54.4069 142.382 54.285C142.321 54.163 142.291 54.0132 142.291 53.8354C142.291 53.4848 142.42 53.208 142.679 53.0048C142.939 52.7965 143.292 52.6924 143.739 52.6924C143.85 52.6924 143.962 52.7 144.074 52.7152C144.186 52.7254 144.29 52.7406 144.386 52.7609C144.483 52.7762 144.567 52.794 144.638 52.8143C144.714 52.8346 144.772 52.8524 144.813 52.8676L144.684 53.4772C144.607 53.4366 144.488 53.3959 144.325 53.3553C144.163 53.3096 143.967 53.2867 143.739 53.2867C143.541 53.2867 143.368 53.3274 143.22 53.4086C143.073 53.4848 143 53.6068 143 53.7744C143 53.8608 143.015 53.937 143.045 54.003C143.081 54.0691 143.132 54.13 143.198 54.1859C143.269 54.2367 143.355 54.285 143.457 54.3307C143.558 54.3764 143.68 54.4247 143.822 54.4755C144.01 54.5466 144.178 54.6177 144.325 54.6888C144.473 54.7549 144.597 54.8336 144.699 54.9251C144.805 55.0165 144.887 55.1283 144.943 55.2604C144.999 55.3874 145.026 55.5448 145.026 55.7328C145.026 56.0986 144.889 56.3754 144.615 56.5634C144.346 56.7514 143.96 56.8453 143.457 56.8453C143.106 56.8453 142.832 56.8149 142.634 56.7539C142.436 56.698 142.301 56.6548 142.23 56.6244L142.359 56.0147C142.441 56.0452 142.57 56.091 142.748 56.1519C142.926 56.2129 143.162 56.2434 143.457 56.2434ZM149.09 56.6396C148.928 56.6802 148.712 56.7234 148.443 56.7691C148.178 56.8149 147.871 56.8377 147.52 56.8377C147.216 56.8377 146.959 56.7945 146.751 56.7082C146.543 56.6167 146.375 56.4897 146.248 56.3272C146.121 56.1646 146.029 55.9741 145.974 55.7557C145.918 55.5321 145.89 55.2858 145.89 55.0165V52.7914H146.598V54.8641C146.598 55.3467 146.675 55.6922 146.827 55.9004C146.979 56.1087 147.236 56.2129 147.597 56.2129C147.673 56.2129 147.752 56.2103 147.833 56.2053C147.914 56.2002 147.99 56.1951 148.062 56.19C148.133 56.1799 148.196 56.1722 148.252 56.1672C148.313 56.157 148.356 56.1468 148.382 56.1367V52.7914H149.09V56.6396ZM151.5 56.8301C151.063 56.8199 150.753 56.726 150.57 56.5482C150.387 56.3704 150.296 56.0935 150.296 55.7176V50.9626L151.005 50.8406V55.6033C151.005 55.7201 151.015 55.8166 151.035 55.8928C151.055 55.969 151.088 56.03 151.134 56.0757C151.18 56.1214 151.241 56.157 151.317 56.1824C151.393 56.2027 151.487 56.2205 151.599 56.2357L151.5 56.8301ZM153.058 52.7914H154.559V53.3858H153.058V55.2146C153.058 55.4128 153.073 55.5779 153.103 55.7099C153.134 55.8369 153.18 55.9385 153.241 56.0147C153.302 56.0859 153.378 56.1367 153.469 56.1672C153.561 56.1976 153.667 56.2129 153.789 56.2129C154.003 56.2129 154.173 56.19 154.3 56.1443C154.432 56.0935 154.523 56.0579 154.574 56.0376L154.711 56.6244C154.64 56.6599 154.516 56.7031 154.338 56.7539C154.16 56.8098 153.957 56.8377 153.728 56.8377C153.459 56.8377 153.236 56.8047 153.058 56.7387C152.885 56.6675 152.745 56.5634 152.639 56.4262C152.532 56.2891 152.456 56.1214 152.41 55.9233C152.369 55.7201 152.349 55.4864 152.349 55.2223V51.6865L153.058 51.5646V52.7914ZM155.165 54.7803C155.165 54.4298 155.216 54.1249 155.318 53.8659C155.419 53.6017 155.554 53.3832 155.722 53.2105C155.889 53.0378 156.082 52.9083 156.301 52.8219C156.519 52.7355 156.743 52.6924 156.971 52.6924C157.505 52.6924 157.914 52.86 158.198 53.1953C158.483 53.5255 158.625 54.031 158.625 54.7117C158.625 54.7422 158.625 54.7828 158.625 54.8336C158.625 54.8793 158.622 54.9225 158.617 54.9632H155.904C155.935 55.3747 156.054 55.6871 156.263 55.9004C156.471 56.1138 156.796 56.2205 157.238 56.2205C157.487 56.2205 157.695 56.2002 157.863 56.1595C158.036 56.1138 158.165 56.0706 158.251 56.03L158.351 56.6244C158.264 56.6701 158.112 56.7183 157.893 56.7691C157.68 56.8199 157.436 56.8453 157.162 56.8453C156.816 56.8453 156.517 56.7945 156.263 56.6929C156.014 56.5863 155.808 56.4415 155.645 56.2586C155.483 56.0757 155.361 55.8598 155.28 55.6109C155.203 55.3569 155.165 55.08 155.165 54.7803ZM157.886 54.3917C157.891 54.0716 157.81 53.81 157.642 53.6068C157.479 53.3985 157.253 53.2943 156.964 53.2943C156.801 53.2943 156.656 53.3274 156.529 53.3934C156.407 53.4544 156.303 53.5357 156.217 53.6373C156.131 53.7389 156.062 53.8557 156.011 53.9878C155.965 54.1199 155.935 54.2545 155.92 54.3917H157.886ZM164.904 54.7727C164.904 55.0876 164.858 55.3721 164.767 55.6261C164.676 55.8801 164.546 56.0986 164.378 56.2815C164.216 56.4643 164.02 56.6066 163.792 56.7082C163.563 56.8047 163.314 56.853 163.045 56.853C162.776 56.853 162.527 56.8047 162.298 56.7082C162.069 56.6066 161.871 56.4643 161.704 56.2815C161.541 56.0986 161.414 55.8801 161.323 55.6261C161.231 55.3721 161.186 55.0876 161.186 54.7727C161.186 54.4628 161.231 54.1808 161.323 53.9268C161.414 53.6677 161.541 53.4467 161.704 53.2639C161.871 53.081 162.069 52.9413 162.298 52.8448C162.527 52.7432 162.776 52.6924 163.045 52.6924C163.314 52.6924 163.563 52.7432 163.792 52.8448C164.02 52.9413 164.216 53.081 164.378 53.2639C164.546 53.4467 164.676 53.6677 164.767 53.9268C164.858 54.1808 164.904 54.4628 164.904 54.7727ZM164.165 54.7727C164.165 54.3256 164.063 53.9725 163.86 53.7135C163.662 53.4493 163.39 53.3172 163.045 53.3172C162.699 53.3172 162.425 53.4493 162.222 53.7135C162.024 53.9725 161.925 54.3256 161.925 54.7727C161.925 55.2197 162.024 55.5753 162.222 55.8395C162.425 56.0986 162.699 56.2281 163.045 56.2281C163.39 56.2281 163.662 56.0986 163.86 55.8395C164.063 55.5753 164.165 55.2197 164.165 54.7727ZM168.374 52.9667C168.46 52.9108 168.589 52.8524 168.762 52.7914C168.94 52.7305 169.143 52.7 169.372 52.7C169.656 52.7 169.908 52.7508 170.126 52.8524C170.35 52.954 170.538 53.0962 170.69 53.2791C170.843 53.462 170.957 53.6804 171.033 53.9344C171.114 54.1884 171.155 54.4679 171.155 54.7727C171.155 55.0927 171.107 55.3823 171.01 55.6414C170.919 55.8954 170.787 56.1113 170.614 56.2891C170.441 56.4669 170.233 56.604 169.989 56.7006C169.745 56.7971 169.471 56.8453 169.166 56.8453C168.836 56.8453 168.544 56.8225 168.29 56.7768C168.036 56.731 167.827 56.6853 167.665 56.6396V50.9626L168.374 50.8406V52.9667ZM168.374 56.1367C168.445 56.157 168.544 56.1773 168.671 56.1976C168.803 56.2129 168.965 56.2205 169.158 56.2205C169.539 56.2205 169.844 56.096 170.073 55.8471C170.301 55.5931 170.416 55.235 170.416 54.7727C170.416 54.5695 170.395 54.379 170.355 54.2011C170.314 54.0233 170.248 53.8709 170.157 53.7439C170.065 53.6119 169.946 53.5103 169.799 53.4391C169.656 53.3629 169.484 53.3248 169.28 53.3248C169.087 53.3248 168.91 53.3578 168.747 53.4239C168.584 53.4899 168.46 53.5585 168.374 53.6296V56.1367ZM175.65 54.7727C175.65 55.0876 175.604 55.3721 175.513 55.6261C175.421 55.8801 175.292 56.0986 175.124 56.2815C174.961 56.4643 174.766 56.6066 174.537 56.7082C174.309 56.8047 174.06 56.853 173.791 56.853C173.521 56.853 173.272 56.8047 173.044 56.7082C172.815 56.6066 172.617 56.4643 172.449 56.2815C172.287 56.0986 172.16 55.8801 172.068 55.6261C171.977 55.3721 171.931 55.0876 171.931 54.7727C171.931 54.4628 171.977 54.1808 172.068 53.9268C172.16 53.6677 172.287 53.4467 172.449 53.2639C172.617 53.081 172.815 52.9413 173.044 52.8448C173.272 52.7432 173.521 52.6924 173.791 52.6924C174.06 52.6924 174.309 52.7432 174.537 52.8448C174.766 52.9413 174.961 53.081 175.124 53.2639C175.292 53.4467 175.421 53.6677 175.513 53.9268C175.604 54.1808 175.65 54.4628 175.65 54.7727ZM174.911 54.7727C174.911 54.3256 174.809 53.9725 174.606 53.7135C174.408 53.4493 174.136 53.3172 173.791 53.3172C173.445 53.3172 173.171 53.4493 172.968 53.7135C172.769 53.9725 172.67 54.3256 172.67 54.7727C172.67 55.2197 172.769 55.5753 172.968 55.8395C173.171 56.0986 173.445 56.2281 173.791 56.2281C174.136 56.2281 174.408 56.0986 174.606 55.8395C174.809 55.5753 174.911 55.2197 174.911 54.7727ZM177.836 56.8301C177.399 56.8199 177.089 56.726 176.906 56.5482C176.723 56.3704 176.632 56.0935 176.632 55.7176V50.9626L177.34 50.8406V55.6033C177.34 55.7201 177.35 55.8166 177.371 55.8928C177.391 55.969 177.424 56.03 177.47 56.0757C177.516 56.1214 177.577 56.157 177.653 56.1824C177.729 56.2027 177.823 56.2205 177.935 56.2357L177.836 56.8301ZM178.51 54.7803C178.51 54.4298 178.56 54.1249 178.662 53.8659C178.764 53.6017 178.898 53.3832 179.066 53.2105C179.233 53.0378 179.427 52.9083 179.645 52.8219C179.863 52.7355 180.087 52.6924 180.316 52.6924C180.849 52.6924 181.258 52.86 181.542 53.1953C181.827 53.5255 181.969 54.031 181.969 54.7117C181.969 54.7422 181.969 54.7828 181.969 54.8336C181.969 54.8793 181.967 54.9225 181.961 54.9632H179.249C179.279 55.3747 179.399 55.6871 179.607 55.9004C179.815 56.1138 180.14 56.2205 180.582 56.2205C180.831 56.2205 181.039 56.2002 181.207 56.1595C181.38 56.1138 181.509 56.0706 181.596 56.03L181.695 56.6244C181.608 56.6701 181.456 56.7183 181.238 56.7691C181.024 56.8199 180.78 56.8453 180.506 56.8453C180.161 56.8453 179.861 56.7945 179.607 56.6929C179.358 56.5863 179.152 56.4415 178.99 56.2586C178.827 56.0757 178.705 55.8598 178.624 55.6109C178.548 55.3569 178.51 55.08 178.51 54.7803ZM181.23 54.3917C181.235 54.0716 181.154 53.81 180.986 53.6068C180.824 53.3985 180.597 53.2943 180.308 53.2943C180.145 53.2943 180.001 53.3274 179.874 53.3934C179.752 53.4544 179.647 53.5357 179.561 53.6373C179.475 53.7389 179.406 53.8557 179.355 53.9878C179.31 54.1199 179.279 54.2545 179.264 54.3917H181.23ZM183.65 52.7914H185.151V53.3858H183.65V55.2146C183.65 55.4128 183.665 55.5779 183.696 55.7099C183.726 55.8369 183.772 55.9385 183.833 56.0147C183.894 56.0859 183.97 56.1367 184.062 56.1672C184.153 56.1976 184.26 56.2129 184.382 56.2129C184.595 56.2129 184.765 56.19 184.892 56.1443C185.024 56.0935 185.116 56.0579 185.166 56.0376L185.304 56.6244C185.233 56.6599 185.108 56.7031 184.93 56.7539C184.752 56.8098 184.549 56.8377 184.321 56.8377C184.051 56.8377 183.828 56.8047 183.65 56.7387C183.477 56.6675 183.338 56.5634 183.231 56.4262C183.124 56.2891 183.048 56.1214 183.002 55.9233C182.962 55.7201 182.941 55.4864 182.941 55.2223V51.6865L183.65 51.5646V52.7914ZM189.447 54.7727C189.447 55.0876 189.401 55.3721 189.309 55.6261C189.218 55.8801 189.088 56.0986 188.921 56.2815C188.758 56.4643 188.563 56.6066 188.334 56.7082C188.105 56.8047 187.856 56.853 187.587 56.853C187.318 56.853 187.069 56.8047 186.84 56.7082C186.612 56.6066 186.414 56.4643 186.246 56.2815C186.083 56.0986 185.956 55.8801 185.865 55.6261C185.774 55.3721 185.728 55.0876 185.728 54.7727C185.728 54.4628 185.774 54.1808 185.865 53.9268C185.956 53.6677 186.083 53.4467 186.246 53.2639C186.414 53.081 186.612 52.9413 186.84 52.8448C187.069 52.7432 187.318 52.6924 187.587 52.6924C187.856 52.6924 188.105 52.7432 188.334 52.8448C188.563 52.9413 188.758 53.081 188.921 53.2639C189.088 53.4467 189.218 53.6677 189.309 53.9268C189.401 54.1808 189.447 54.4628 189.447 54.7727ZM188.707 54.7727C188.707 54.3256 188.606 53.9725 188.403 53.7135C188.204 53.4493 187.933 53.3172 187.587 53.3172C187.242 53.3172 186.967 53.4493 186.764 53.7135C186.566 53.9725 186.467 54.3256 186.467 54.7727C186.467 55.2197 186.566 55.5753 186.764 55.8395C186.967 56.0986 187.242 56.2281 187.587 56.2281C187.933 56.2281 188.204 56.0986 188.403 55.8395C188.606 55.5753 188.707 55.2197 188.707 54.7727ZM131.611 62.6296C131.525 62.5585 131.4 62.4899 131.238 62.4239C131.075 62.3578 130.897 62.3248 130.704 62.3248C130.501 62.3248 130.326 62.3629 130.178 62.4391C130.036 62.5103 129.919 62.6119 129.828 62.7439C129.736 62.8709 129.67 63.0233 129.63 63.2011C129.589 63.379 129.569 63.5695 129.569 63.7727C129.569 64.235 129.683 64.5931 129.912 64.8471C130.14 65.096 130.445 65.2205 130.826 65.2205C131.019 65.2205 131.179 65.2129 131.306 65.1976C131.438 65.1773 131.54 65.157 131.611 65.1367V62.6296ZM131.611 59.9626L132.32 59.8406V65.6396C132.157 65.6853 131.949 65.731 131.695 65.7768C131.441 65.8225 131.149 65.8453 130.818 65.8453C130.514 65.8453 130.239 65.7971 129.995 65.7006C129.752 65.604 129.543 65.4669 129.371 65.2891C129.198 65.1113 129.063 64.8954 128.967 64.6414C128.875 64.3823 128.83 64.0927 128.83 63.7727C128.83 63.4679 128.868 63.1884 128.944 62.9344C129.025 62.6804 129.142 62.462 129.294 62.2791C129.447 62.0962 129.632 61.954 129.851 61.8524C130.074 61.7508 130.328 61.7 130.613 61.7C130.841 61.7 131.042 61.7305 131.215 61.7914C131.392 61.8524 131.525 61.9108 131.611 61.9667V59.9626ZM137.035 63.7727C137.035 64.0876 136.99 64.3721 136.898 64.6261C136.807 64.8801 136.677 65.0986 136.51 65.2815C136.347 65.4643 136.152 65.6066 135.923 65.7082C135.694 65.8047 135.445 65.853 135.176 65.853C134.907 65.853 134.658 65.8047 134.429 65.7082C134.201 65.6066 134.003 65.4643 133.835 65.2815C133.672 65.0986 133.545 64.8801 133.454 64.6261C133.363 64.3721 133.317 64.0876 133.317 63.7727C133.317 63.4628 133.363 63.1808 133.454 62.9268C133.545 62.6677 133.672 62.4467 133.835 62.2639C134.003 62.081 134.201 61.9413 134.429 61.8448C134.658 61.7432 134.907 61.6924 135.176 61.6924C135.445 61.6924 135.694 61.7432 135.923 61.8448C136.152 61.9413 136.347 62.081 136.51 62.2639C136.677 62.4467 136.807 62.6677 136.898 62.9268C136.99 63.1808 137.035 63.4628 137.035 63.7727ZM136.296 63.7727C136.296 63.3256 136.195 62.9725 135.992 62.7135C135.793 62.4493 135.522 62.3172 135.176 62.3172C134.831 62.3172 134.556 62.4493 134.353 62.7135C134.155 62.9725 134.056 63.3256 134.056 63.7727C134.056 64.2197 134.155 64.5753 134.353 64.8395C134.556 65.0986 134.831 65.2281 135.176 65.2281C135.522 65.2281 135.793 65.0986 135.992 64.8395C136.195 64.5753 136.296 64.2197 136.296 63.7727ZM140.718 65.2434C141.008 65.2434 141.221 65.2053 141.358 65.1291C141.501 65.0528 141.572 64.9309 141.572 64.7633C141.572 64.5906 141.503 64.4534 141.366 64.3518C141.229 64.2502 141.003 64.1359 140.688 64.0089C140.535 63.9479 140.388 63.887 140.246 63.826C140.109 63.76 139.989 63.6838 139.888 63.5974C139.786 63.511 139.705 63.4069 139.644 63.285C139.583 63.163 139.552 63.0132 139.552 62.8354C139.552 62.4848 139.682 62.208 139.941 62.0048C140.2 61.7965 140.553 61.6924 141 61.6924C141.112 61.6924 141.224 61.7 141.335 61.7152C141.447 61.7254 141.551 61.7406 141.648 61.7609C141.744 61.7762 141.828 61.794 141.899 61.8143C141.976 61.8346 142.034 61.8524 142.075 61.8676L141.945 62.4772C141.869 62.4366 141.749 62.3959 141.587 62.3553C141.424 62.3096 141.229 62.2867 141 62.2867C140.802 62.2867 140.629 62.3274 140.482 62.4086C140.335 62.4848 140.261 62.6068 140.261 62.7744C140.261 62.8608 140.276 62.937 140.307 63.003C140.342 63.0691 140.393 63.13 140.459 63.1859C140.53 63.2367 140.617 63.285 140.718 63.3307C140.82 63.3764 140.942 63.4247 141.084 63.4755C141.272 63.5466 141.44 63.6177 141.587 63.6888C141.734 63.7549 141.859 63.8336 141.96 63.9251C142.067 64.0165 142.148 64.1283 142.204 64.2604C142.26 64.3874 142.288 64.5448 142.288 64.7328C142.288 65.0986 142.151 65.3754 141.876 65.5634C141.607 65.7514 141.221 65.8453 140.718 65.8453C140.368 65.8453 140.093 65.8149 139.895 65.7539C139.697 65.698 139.562 65.6548 139.491 65.6244L139.621 65.0147C139.702 65.0452 139.832 65.091 140.01 65.1519C140.187 65.2129 140.424 65.2434 140.718 65.2434ZM142.976 63.7803C142.976 63.4298 143.027 63.1249 143.128 62.8659C143.23 62.6017 143.365 62.3832 143.532 62.2105C143.7 62.0378 143.893 61.9083 144.111 61.8219C144.33 61.7355 144.553 61.6924 144.782 61.6924C145.315 61.6924 145.724 61.86 146.009 62.1953C146.293 62.5255 146.436 63.031 146.436 63.7117C146.436 63.7422 146.436 63.7828 146.436 63.8336C146.436 63.8793 146.433 63.9225 146.428 63.9632H143.715C143.746 64.3747 143.865 64.6871 144.073 64.9004C144.282 65.1138 144.607 65.2205 145.049 65.2205C145.298 65.2205 145.506 65.2002 145.674 65.1595C145.846 65.1138 145.976 65.0706 146.062 65.03L146.161 65.6244C146.075 65.6701 145.922 65.7183 145.704 65.7691C145.491 65.8199 145.247 65.8453 144.972 65.8453C144.627 65.8453 144.327 65.7945 144.073 65.6929C143.824 65.5863 143.619 65.4415 143.456 65.2586C143.293 65.0757 143.172 64.8598 143.09 64.6109C143.014 64.3569 142.976 64.08 142.976 63.7803ZM145.696 63.3917C145.701 63.0716 145.62 62.81 145.453 62.6068C145.29 62.3985 145.064 62.2943 144.774 62.2943C144.612 62.2943 144.467 62.3274 144.34 62.3934C144.218 62.4544 144.114 62.5357 144.028 62.6373C143.941 62.7389 143.873 62.8557 143.822 62.9878C143.776 63.1199 143.746 63.2545 143.73 63.3917H145.696ZM150.608 65.6396C150.446 65.6802 150.23 65.7234 149.961 65.7691C149.696 65.8149 149.389 65.8377 149.039 65.8377C148.734 65.8377 148.477 65.7945 148.269 65.7082C148.061 65.6167 147.893 65.4897 147.766 65.3272C147.639 65.1646 147.548 64.9741 147.492 64.7557C147.436 64.5321 147.408 64.2858 147.408 64.0165V61.7914H148.117V63.8641C148.117 64.3467 148.193 64.6922 148.345 64.9004C148.498 65.1087 148.754 65.2129 149.115 65.2129C149.191 65.2129 149.27 65.2103 149.351 65.2053C149.432 65.2002 149.508 65.1951 149.58 65.19C149.651 65.1799 149.714 65.1722 149.77 65.1672C149.831 65.157 149.874 65.1468 149.9 65.1367V61.7914H150.608V65.6396ZM154.934 65.2434C155.102 65.2434 155.249 65.2408 155.376 65.2357C155.508 65.2256 155.617 65.2103 155.704 65.19V64.0089C155.653 63.9835 155.569 63.9632 155.452 63.9479C155.34 63.9276 155.203 63.9174 155.041 63.9174C154.934 63.9174 154.82 63.9251 154.698 63.9403C154.581 63.9555 154.472 63.9886 154.37 64.0394C154.274 64.0851 154.192 64.1511 154.126 64.2375C154.06 64.3188 154.027 64.428 154.027 64.5652C154.027 64.8192 154.108 64.997 154.271 65.0986C154.434 65.1951 154.655 65.2434 154.934 65.2434ZM154.873 61.6924C155.158 61.6924 155.396 61.7305 155.589 61.8067C155.787 61.8778 155.945 61.9819 156.062 62.1191C156.184 62.2512 156.27 62.4112 156.321 62.5992C156.372 62.782 156.397 62.9852 156.397 63.2088V65.6853C156.336 65.6955 156.25 65.7107 156.138 65.731C156.031 65.7463 155.909 65.7615 155.772 65.7768C155.635 65.792 155.485 65.8047 155.323 65.8149C155.165 65.8301 155.008 65.8377 154.85 65.8377C154.627 65.8377 154.421 65.8149 154.233 65.7691C154.045 65.7234 153.882 65.6523 153.745 65.5558C153.608 65.4542 153.501 65.3221 153.425 65.1595C153.349 64.997 153.311 64.8014 153.311 64.5728C153.311 64.3543 153.354 64.1664 153.44 64.0089C153.532 63.8514 153.654 63.7244 153.806 63.6279C153.959 63.5314 154.136 63.4602 154.34 63.4145C154.543 63.3688 154.756 63.3459 154.98 63.3459C155.051 63.3459 155.125 63.351 155.201 63.3612C155.277 63.3663 155.348 63.3764 155.414 63.3917C155.485 63.4018 155.546 63.412 155.597 63.4221C155.648 63.4323 155.683 63.4399 155.704 63.445V63.2469C155.704 63.13 155.691 63.0157 155.666 62.904C155.64 62.7871 155.594 62.6855 155.528 62.5992C155.462 62.5077 155.371 62.4366 155.254 62.3858C155.142 62.3299 154.995 62.302 154.812 62.302C154.578 62.302 154.373 62.3197 154.195 62.3553C154.022 62.3858 153.893 62.4188 153.806 62.4544L153.722 61.8676C153.814 61.827 153.966 61.7889 154.18 61.7533C154.393 61.7127 154.624 61.6924 154.873 61.6924ZM158.763 65.8301C158.326 65.8199 158.016 65.726 157.833 65.5482C157.65 65.3704 157.559 65.0935 157.559 64.7176V59.9626L158.268 59.8406V64.6033C158.268 64.7201 158.278 64.8166 158.298 64.8928C158.318 64.969 158.351 65.03 158.397 65.0757C158.443 65.1214 158.504 65.157 158.58 65.1824C158.656 65.2027 158.75 65.2205 158.862 65.2357L158.763 65.8301ZM162.813 65.6396C162.65 65.6802 162.434 65.7234 162.165 65.7691C161.901 65.8149 161.593 65.8377 161.243 65.8377C160.938 65.8377 160.681 65.7945 160.473 65.7082C160.265 65.6167 160.097 65.4897 159.97 65.3272C159.843 65.1646 159.752 64.9741 159.696 64.7557C159.64 64.5321 159.612 64.2858 159.612 64.0165V61.7914H160.321V63.8641C160.321 64.3467 160.397 64.6922 160.549 64.9004C160.702 65.1087 160.958 65.2129 161.319 65.2129C161.395 65.2129 161.474 65.2103 161.555 65.2053C161.636 65.2002 161.713 65.1951 161.784 65.19C161.855 65.1799 161.918 65.1722 161.974 65.1672C162.035 65.157 162.078 65.1468 162.104 65.1367V61.7914H162.813V65.6396ZM166.518 65.3577C166.457 65.3983 166.337 65.4516 166.159 65.5177C165.987 65.5786 165.784 65.6091 165.55 65.6091C165.311 65.6091 165.085 65.571 164.872 65.4948C164.663 65.4186 164.48 65.3018 164.323 65.1443C164.165 64.9817 164.041 64.7811 163.95 64.5423C163.858 64.3035 163.812 64.019 163.812 63.6888C163.812 63.3993 163.856 63.1351 163.942 62.8963C164.028 62.6525 164.153 62.4442 164.315 62.2715C164.483 62.0937 164.686 61.9565 164.925 61.86C165.164 61.7584 165.433 61.7076 165.733 61.7076C166.063 61.7076 166.35 61.733 166.594 61.7838C166.843 61.8295 167.051 61.8727 167.219 61.9133V65.4491C167.219 66.0587 167.061 66.5007 166.746 66.775C166.431 67.0493 165.954 67.1865 165.314 67.1865C165.065 67.1865 164.828 67.1662 164.605 67.1255C164.386 67.0849 164.196 67.0366 164.033 66.9808L164.163 66.3635C164.305 66.4194 164.478 66.4677 164.681 66.5083C164.889 66.554 165.105 66.5769 165.329 66.5769C165.75 66.5769 166.053 66.4931 166.236 66.3254C166.424 66.1578 166.518 65.8911 166.518 65.5253V65.3577ZM166.51 62.4163C166.439 62.3959 166.342 62.3782 166.22 62.3629C166.104 62.3426 165.944 62.3324 165.74 62.3324C165.359 62.3324 165.065 62.4569 164.856 62.7058C164.653 62.9548 164.552 63.285 164.552 63.6965C164.552 63.9251 164.58 64.1206 164.635 64.2832C164.696 64.4458 164.775 64.5804 164.872 64.6871C164.973 64.7938 165.088 64.8725 165.215 64.9233C165.347 64.9741 165.481 64.9995 165.618 64.9995C165.806 64.9995 165.979 64.9741 166.137 64.9233C166.294 64.8674 166.419 64.8039 166.51 64.7328V62.4163ZM171.594 65.6396C171.431 65.6802 171.215 65.7234 170.946 65.7691C170.682 65.8149 170.374 65.8377 170.024 65.8377C169.719 65.8377 169.462 65.7945 169.254 65.7082C169.046 65.6167 168.878 65.4897 168.751 65.3272C168.624 65.1646 168.533 64.9741 168.477 64.7557C168.421 64.5321 168.393 64.2858 168.393 64.0165V61.7914H169.102V63.8641C169.102 64.3467 169.178 64.6922 169.33 64.9004C169.483 65.1087 169.739 65.2129 170.1 65.2129C170.176 65.2129 170.255 65.2103 170.336 65.2053C170.418 65.2002 170.494 65.1951 170.565 65.19C170.636 65.1799 170.699 65.1722 170.755 65.1672C170.816 65.157 170.859 65.1468 170.885 65.1367V61.7914H171.594V65.6396ZM172.593 63.7803C172.593 63.4298 172.644 63.1249 172.746 62.8659C172.847 62.6017 172.982 62.3832 173.15 62.2105C173.317 62.0378 173.51 61.9083 173.729 61.8219C173.947 61.7355 174.171 61.6924 174.399 61.6924C174.933 61.6924 175.342 61.86 175.626 62.1953C175.911 62.5255 176.053 63.031 176.053 63.7117C176.053 63.7422 176.053 63.7828 176.053 63.8336C176.053 63.8793 176.051 63.9225 176.045 63.9632H173.333C173.363 64.3747 173.483 64.6871 173.691 64.9004C173.899 65.1138 174.224 65.2205 174.666 65.2205C174.915 65.2205 175.123 65.2002 175.291 65.1595C175.464 65.1138 175.593 65.0706 175.68 65.03L175.779 65.6244C175.692 65.6701 175.54 65.7183 175.322 65.7691C175.108 65.8199 174.864 65.8453 174.59 65.8453C174.245 65.8453 173.945 65.7945 173.691 65.6929C173.442 65.5863 173.236 65.4415 173.074 65.2586C172.911 65.0757 172.789 64.8598 172.708 64.6109C172.632 64.3569 172.593 64.08 172.593 63.7803ZM175.314 63.3917C175.319 63.0716 175.238 62.81 175.07 62.6068C174.907 62.3985 174.681 62.2943 174.392 62.2943C174.229 62.2943 174.084 62.3274 173.957 62.3934C173.836 62.4544 173.731 62.5357 173.645 62.6373C173.559 62.7389 173.49 62.8557 173.439 62.9878C173.394 63.1199 173.363 63.2545 173.348 63.3917H175.314ZM178.26 65.8301C177.823 65.8199 177.513 65.726 177.33 65.5482C177.147 65.3704 177.056 65.0935 177.056 64.7176V59.9626L177.764 59.8406V64.6033C177.764 64.7201 177.775 64.8166 177.795 64.8928C177.815 64.969 177.848 65.03 177.894 65.0757C177.94 65.1214 178.001 65.157 178.077 65.1824C178.153 65.2027 178.247 65.2205 178.359 65.2357L178.26 65.8301ZM179.993 65.3424C179.993 65.4796 179.947 65.599 179.856 65.7006C179.764 65.8022 179.64 65.853 179.482 65.853C179.325 65.853 179.2 65.8022 179.109 65.7006C179.018 65.599 178.972 65.4796 178.972 65.3424C178.972 65.2053 179.018 65.0859 179.109 64.9843C179.2 64.8827 179.325 64.8319 179.482 64.8319C179.64 64.8319 179.764 64.8827 179.856 64.9843C179.947 65.0859 179.993 65.2053 179.993 65.3424Z" fill="black"/>
</svg>
